<svg xmlns="http://www.w3.org/2000/svg" width="940" height="820" viewBox="0 0 940 820">
  <style>
    .mono { font-family: "JetBrains Mono", "IBM Plex Mono", "Menlo", monospace; }
    .cond { font-family: "Barlow Condensed", "DIN Condensed", "Arial Narrow", sans-serif; font-weight: 700; text-transform: uppercase; }
    .serif { font-family: "Instrument Serif", Georgia, serif; font-style: italic; }
  </style>
<rect width="940" height="820" fill="#f6f7fc"/>
<polygon points="430.0,366.3 451.8,372.2 467.8,388.2 473.7,410.0 467.8,431.8 451.8,447.8 430.0,453.7 408.2,447.8 392.2,431.8 386.3,410.0 392.2,388.2 408.2,372.2" fill="none" stroke="#c6cce4" stroke-width="0.8" stroke-opacity="0.55"/>
<polygon points="430.0,322.7 473.7,334.4 505.6,366.3 517.3,410.0 505.6,453.7 473.7,485.6 430.0,497.3 386.3,485.6 354.4,453.7 342.7,410.0 354.4,366.3 386.3,334.4" fill="none" stroke="#c6cce4" stroke-width="0.8" stroke-opacity="0.55"/>
<polygon points="430.0,279.0 495.5,296.6 543.4,344.5 561.0,410.0 543.4,475.5 495.5,523.4 430.0,541.0 364.5,523.4 316.6,475.5 299.0,410.0 316.6,344.5 364.5,296.6" fill="none" stroke="#c6cce4" stroke-width="0.8" stroke-opacity="0.55"/>
<polygon points="430.0,235.3 517.3,258.7 581.3,322.7 604.7,410.0 581.3,497.3 517.3,561.3 430.0,584.7 342.7,561.3 278.7,497.3 255.3,410.0 278.7,322.7 342.7,258.7" fill="none" stroke="#c6cce4" stroke-width="0.8" stroke-opacity="0.55"/>
<polygon points="430.0,191.7 539.2,220.9 619.1,300.8 648.3,410.0 619.1,519.2 539.2,599.1 430.0,628.3 320.8,599.1 240.9,519.2 211.7,410.0 240.9,300.8 320.8,220.9" fill="none" stroke="#c6cce4" stroke-width="0.8" stroke-opacity="0.55"/>
<polygon points="430.0,148.0 561.0,183.1 656.9,279.0 692.0,410.0 656.9,541.0 561.0,636.9 430.0,672.0 299.0,636.9 203.1,541.0 168.0,410.0 203.1,279.0 299.0,183.1" fill="none" stroke="#c6cce4" stroke-width="0.8" stroke-opacity="0.55"/>
<line x1="430" y1="410" x2="430.0" y2="148.0" stroke="#c6cce4" stroke-width="0.8" stroke-opacity="0.4"/>
<line x1="430" y1="410" x2="561.0" y2="183.1" stroke="#c6cce4" stroke-width="0.8" stroke-opacity="0.4"/>
<line x1="430" y1="410" x2="656.9" y2="279.0" stroke="#c6cce4" stroke-width="0.8" stroke-opacity="0.4"/>
<line x1="430" y1="410" x2="692.0" y2="410.0" stroke="#c6cce4" stroke-width="0.8" stroke-opacity="0.4"/>
<line x1="430" y1="410" x2="656.9" y2="541.0" stroke="#c6cce4" stroke-width="0.8" stroke-opacity="0.4"/>
<line x1="430" y1="410" x2="561.0" y2="636.9" stroke="#c6cce4" stroke-width="0.8" stroke-opacity="0.4"/>
<line x1="430" y1="410" x2="430.0" y2="672.0" stroke="#c6cce4" stroke-width="0.8" stroke-opacity="0.4"/>
<line x1="430" y1="410" x2="299.0" y2="636.9" stroke="#c6cce4" stroke-width="0.8" stroke-opacity="0.4"/>
<line x1="430" y1="410" x2="203.1" y2="541.0" stroke="#c6cce4" stroke-width="0.8" stroke-opacity="0.4"/>
<line x1="430" y1="410" x2="168.0" y2="410.0" stroke="#c6cce4" stroke-width="0.8" stroke-opacity="0.4"/>
<line x1="430" y1="410" x2="203.1" y2="279.0" stroke="#c6cce4" stroke-width="0.8" stroke-opacity="0.4"/>
<line x1="430" y1="410" x2="299.0" y2="183.1" stroke="#c6cce4" stroke-width="0.8" stroke-opacity="0.4"/>
<text class="mono" x="414.7" y="364.8" text-anchor="end" font-size="10" fill="#151a33" opacity="0.55">15</text>
<text class="mono" x="403.4" y="322.6" text-anchor="end" font-size="10" fill="#151a33" opacity="0.55">30</text>
<text class="mono" x="392.1" y="280.5" text-anchor="end" font-size="10" fill="#151a33" opacity="0.55">45</text>
<text class="mono" x="380.8" y="238.3" text-anchor="end" font-size="10" fill="#151a33" opacity="0.55">60</text>
<text class="mono" x="369.5" y="196.1" text-anchor="end" font-size="10" fill="#151a33" opacity="0.55">75</text>
<text class="mono" x="358.2" y="153.9" text-anchor="end" font-size="10" fill="#151a33" opacity="0.55">90</text>
<text class="mono" x="430.0" y="122.0" text-anchor="middle" font-size="12" fill="#0891b2" letter-spacing="1">AERODYNAMICS</text>
<text class="mono" x="571.0" y="159.8" text-anchor="start" font-size="12" fill="#7c3aed" letter-spacing="1">AVIONICS</text>
<text class="mono" x="674.2" y="263.0" text-anchor="start" font-size="12" fill="#db2777" letter-spacing="1">CROSS-CUTTING</text>
<text class="mono" x="712.0" y="414.0" text-anchor="start" font-size="12" fill="#ea580c" letter-spacing="1">FLIGHT MECHANICS</text>
<text class="mono" x="674.2" y="563.0" text-anchor="start" font-size="12" fill="#0891b2" letter-spacing="1">FLIGHT TEST &amp; OPS</text>
<text class="mono" x="571.0" y="666.2" text-anchor="start" font-size="12" fill="#7c3aed" letter-spacing="1">GNC &amp; AUTONOMY</text>
<text class="mono" x="430.0" y="704.0" text-anchor="middle" font-size="12" fill="#db2777" letter-spacing="1">MANUFACTURING QUALITY</text>
<text class="mono" x="289.0" y="666.2" text-anchor="end" font-size="12" fill="#ea580c" letter-spacing="1">PROPULSION</text>
<text class="mono" x="185.8" y="563.0" text-anchor="end" font-size="12" fill="#0891b2" letter-spacing="1">SPACE SYSTEMS</text>
<text class="mono" x="148.0" y="414.0" text-anchor="end" font-size="12" fill="#7c3aed" letter-spacing="1">STRUCTURES</text>
<text class="mono" x="185.8" y="263.0" text-anchor="end" font-size="12" fill="#db2777" letter-spacing="1">SYSTEMS ENG &amp; SAFETY</text>
<text class="mono" x="289.0" y="159.8" text-anchor="end" font-size="12" fill="#ea580c" letter-spacing="1">VEHICLE DESIGN</text>
<polygon points="430.0,194.6 550.8,200.7 641.8,287.7 674.5,410.0 631.7,526.4 550.8,619.3 430.0,654.5 325.2,591.5 205.6,539.5 176.7,410.0 258.6,311.0 328.1,233.5" fill="#db2777" fill-opacity="0.10" stroke="#db2777" stroke-width="2.2"/>
<rect x="426.8" y="191.4" width="6.4" height="6.4" fill="#f6f7fc" stroke="#db2777" stroke-width="1.6"/>
<rect x="547.6" y="197.5" width="6.4" height="6.4" fill="#f6f7fc" stroke="#db2777" stroke-width="1.6"/>
<rect x="638.6" y="284.5" width="6.4" height="6.4" fill="#f6f7fc" stroke="#db2777" stroke-width="1.6"/>
<rect x="671.3" y="406.8" width="6.4" height="6.4" fill="#f6f7fc" stroke="#db2777" stroke-width="1.6"/>
<rect x="628.5" y="523.2" width="6.4" height="6.4" fill="#f6f7fc" stroke="#db2777" stroke-width="1.6"/>
<rect x="547.6" y="616.1" width="6.4" height="6.4" fill="#f6f7fc" stroke="#db2777" stroke-width="1.6"/>
<rect x="426.8" y="651.3" width="6.4" height="6.4" fill="#f6f7fc" stroke="#db2777" stroke-width="1.6"/>
<rect x="322.0" y="588.3" width="6.4" height="6.4" fill="#f6f7fc" stroke="#db2777" stroke-width="1.6"/>
<rect x="202.4" y="536.3" width="6.4" height="6.4" fill="#f6f7fc" stroke="#db2777" stroke-width="1.6"/>
<rect x="173.5" y="406.8" width="6.4" height="6.4" fill="#f6f7fc" stroke="#db2777" stroke-width="1.6"/>
<rect x="255.4" y="307.8" width="6.4" height="6.4" fill="#f6f7fc" stroke="#db2777" stroke-width="1.6"/>
<rect x="324.9" y="230.3" width="6.4" height="6.4" fill="#f6f7fc" stroke="#db2777" stroke-width="1.6"/>
<polygon points="430.0,305.2 488.2,309.2 535.9,348.9 552.3,410.0 530.8,468.2 489.7,513.4 430.0,529.4 377.6,500.8 321.6,472.6 304.8,410.0 346.8,362.0 379.1,321.8" fill="#0891b2" fill-opacity="0.16" stroke="#0891b2" stroke-width="2.6"/>
<circle cx="430.0" cy="305.2" r="3.6" fill="#0891b2" stroke="#151a33" stroke-width="1.2"/>
<circle cx="488.2" cy="309.2" r="3.6" fill="#0891b2" stroke="#151a33" stroke-width="1.2"/>
<circle cx="535.9" cy="348.9" r="3.6" fill="#0891b2" stroke="#151a33" stroke-width="1.2"/>
<circle cx="552.3" cy="410.0" r="3.6" fill="#0891b2" stroke="#151a33" stroke-width="1.2"/>
<circle cx="530.8" cy="468.2" r="3.6" fill="#0891b2" stroke="#151a33" stroke-width="1.2"/>
<circle cx="489.7" cy="513.4" r="3.6" fill="#0891b2" stroke="#151a33" stroke-width="1.2"/>
<circle cx="430.0" cy="529.4" r="3.6" fill="#0891b2" stroke="#151a33" stroke-width="1.2"/>
<circle cx="377.6" cy="500.8" r="3.6" fill="#0891b2" stroke="#151a33" stroke-width="1.2"/>
<circle cx="321.6" cy="472.6" r="3.6" fill="#0891b2" stroke="#151a33" stroke-width="1.2"/>
<circle cx="304.8" cy="410.0" r="3.6" fill="#0891b2" stroke="#151a33" stroke-width="1.2"/>
<circle cx="346.8" cy="362.0" r="3.6" fill="#0891b2" stroke="#151a33" stroke-width="1.2"/>
<circle cx="379.1" cy="321.8" r="3.6" fill="#0891b2" stroke="#151a33" stroke-width="1.2"/>
<text class="mono" x="430.0" y="183.6" text-anchor="middle" font-size="9.5" fill="#db2777">74</text>
<text class="mono" x="557.8" y="191.6" text-anchor="middle" font-size="9.5" fill="#db2777">83</text>
<text class="mono" x="653.9" y="283.7" text-anchor="middle" font-size="9.5" fill="#db2777">84</text>
<text class="mono" x="688.5" y="413.0" text-anchor="middle" font-size="9.5" fill="#db2777">84</text>
<text class="mono" x="643.8" y="536.4" text-anchor="middle" font-size="9.5" fill="#db2777">80</text>
<text class="mono" x="557.8" y="634.4" text-anchor="middle" font-size="9.5" fill="#db2777">83</text>
<text class="mono" x="430.0" y="671.5" text-anchor="middle" font-size="9.5" fill="#db2777">84</text>
<text class="mono" x="318.2" y="606.6" text-anchor="middle" font-size="9.5" fill="#db2777">72</text>
<text class="mono" x="193.5" y="549.5" text-anchor="middle" font-size="9.5" fill="#db2777">89</text>
<text class="mono" x="162.7" y="413.0" text-anchor="middle" font-size="9.5" fill="#db2777">87</text>
<text class="mono" x="246.4" y="307.0" text-anchor="middle" font-size="9.5" fill="#db2777">68</text>
<text class="mono" x="321.1" y="224.4" text-anchor="middle" font-size="9.5" fill="#db2777">70</text>
<text class="cond" x="910.0" y="74.0" text-anchor="end" font-size="34" fill="#151a33" letter-spacing="2">DOMAIN COVERAGE</text>
<text class="mono" x="910.0" y="100.0" text-anchor="end" font-size="11" fill="#5a6289" letter-spacing="1">12 FAMILIES · SKILLS VS ROUTER ASSERTIONS</text>
<rect x="700" y="612" width="210" height="178" fill="#ffffff" stroke="#151a33" stroke-width="1.2"/>
<line x1="700" y1="686" x2="910" y2="686" stroke="#c6cce4" stroke-width="0.8"/>
<circle cx="722" cy="636" r="4" fill="#0891b2" stroke="#151a33" stroke-width="1.2"/>
<text class="mono" x="736.0" y="640.0" text-anchor="start" font-size="10.5" fill="#151a33">VERIFIED SKILLS · 472</text>
<rect x="718" y="656" width="8" height="8" fill="none" stroke="#db2777" stroke-width="1.6"/>
<text class="mono" x="736.0" y="664.0" text-anchor="start" font-size="10.5" fill="#151a33">ROUTER TASKS · 958</text>
<text class="mono" x="714.0" y="706.0" text-anchor="start" font-size="9" fill="#5a6289" letter-spacing="1">UNIT</text>
<text class="mono" x="766.0" y="706.0" text-anchor="start" font-size="9" fill="#151a33">COUNT PER FAMILY</text>
<text class="mono" x="714.0" y="727.0" text-anchor="start" font-size="9" fill="#5a6289" letter-spacing="1">SCALE</text>
<text class="mono" x="766.0" y="727.0" text-anchor="start" font-size="9" fill="#151a33">0–90 · RINGS 15</text>
<text class="mono" x="714.0" y="748.0" text-anchor="start" font-size="9" fill="#5a6289" letter-spacing="1">GATE</text>
<text class="mono" x="766.0" y="748.0" text-anchor="start" font-size="9" fill="#151a33">HIT@1 · DETERMINISTIC</text>
<text class="mono" x="714.0" y="769.0" text-anchor="start" font-size="9" fill="#5a6289" letter-spacing="1">SHEET</text>
<text class="mono" x="766.0" y="769.0" text-anchor="start" font-size="9" fill="#151a33">RDR-01 · REV AUTO</text>
<text class="mono" x="48.0" y="798.0" text-anchor="start" font-size="10" fill="#5a6289" letter-spacing="2">472 VERIFIED SKILLS · 85 LIVE PACKS · 958 ROUTER TASKS</text>
<text class="mono" x="910.0" y="812.0" text-anchor="end" font-size="9.5" fill="#5a6289" letter-spacing="1.5" opacity="0.9">AERO AGENT SKILLS · ASHFORDE OÜ</text>
</svg>
