<svg xmlns="http://www.w3.org/2000/svg" width="1600" height="660" viewBox="0 0 1600 660">
  <style>
    .cond { font-family: "Barlow Condensed", "DIN Condensed", "Arial Narrow", sans-serif; font-weight: 700; text-transform: uppercase; }
    .mono { font-family: "JetBrains Mono", "IBM Plex Mono", "Menlo", monospace; }
  </style>
<rect width="1600" height="660" fill="#f3f1ec"/>
<rect x="18" y="18" width="1564" height="624" fill="none" stroke="#242424" stroke-width="1.2"/>
<line x1="40" y1="30" x2="40" y2="630" stroke="#242424" stroke-opacity="0.05" stroke-width="0.5"/>
<line x1="80" y1="30" x2="80" y2="630" stroke="#242424" stroke-opacity="0.05" stroke-width="0.5"/>
<line x1="120" y1="30" x2="120" y2="630" stroke="#242424" stroke-opacity="0.05" stroke-width="0.5"/>
<line x1="160" y1="30" x2="160" y2="630" stroke="#242424" stroke-opacity="0.05" stroke-width="0.5"/>
<line x1="200" y1="30" x2="200" y2="630" stroke="#242424" stroke-opacity="0.05" stroke-width="0.5"/>
<line x1="240" y1="30" x2="240" y2="630" stroke="#242424" stroke-opacity="0.05" stroke-width="0.5"/>
<line x1="280" y1="30" x2="280" y2="630" stroke="#242424" stroke-opacity="0.05" stroke-width="0.5"/>
<line x1="320" y1="30" x2="320" y2="630" stroke="#242424" stroke-opacity="0.05" stroke-width="0.5"/>
<line x1="360" y1="30" x2="360" y2="630" stroke="#242424" stroke-opacity="0.05" stroke-width="0.5"/>
<line x1="400" y1="30" x2="400" y2="630" stroke="#242424" stroke-opacity="0.05" stroke-width="0.5"/>
<line x1="440" y1="30" x2="440" y2="630" stroke="#242424" stroke-opacity="0.05" stroke-width="0.5"/>
<line x1="480" y1="30" x2="480" y2="630" stroke="#242424" stroke-opacity="0.05" stroke-width="0.5"/>
<line x1="520" y1="30" x2="520" y2="630" stroke="#242424" stroke-opacity="0.05" stroke-width="0.5"/>
<line x1="560" y1="30" x2="560" y2="630" stroke="#242424" stroke-opacity="0.05" stroke-width="0.5"/>
<line x1="600" y1="30" x2="600" y2="630" stroke="#242424" stroke-opacity="0.05" stroke-width="0.5"/>
<line x1="640" y1="30" x2="640" y2="630" stroke="#242424" stroke-opacity="0.05" stroke-width="0.5"/>
<line x1="680" y1="30" x2="680" y2="630" stroke="#242424" stroke-opacity="0.05" stroke-width="0.5"/>
<line x1="720" y1="30" x2="720" y2="630" stroke="#242424" stroke-opacity="0.05" stroke-width="0.5"/>
<line x1="760" y1="30" x2="760" y2="630" stroke="#242424" stroke-opacity="0.05" stroke-width="0.5"/>
<line x1="800" y1="30" x2="800" y2="630" stroke="#242424" stroke-opacity="0.05" stroke-width="0.5"/>
<line x1="840" y1="30" x2="840" y2="630" stroke="#242424" stroke-opacity="0.05" stroke-width="0.5"/>
<line x1="880" y1="30" x2="880" y2="630" stroke="#242424" stroke-opacity="0.05" stroke-width="0.5"/>
<line x1="920" y1="30" x2="920" y2="630" stroke="#242424" stroke-opacity="0.05" stroke-width="0.5"/>
<line x1="960" y1="30" x2="960" y2="630" stroke="#242424" stroke-opacity="0.05" stroke-width="0.5"/>
<line x1="1000" y1="30" x2="1000" y2="630" stroke="#242424" stroke-opacity="0.05" stroke-width="0.5"/>
<line x1="1040" y1="30" x2="1040" y2="630" stroke="#242424" stroke-opacity="0.05" stroke-width="0.5"/>
<line x1="1080" y1="30" x2="1080" y2="630" stroke="#242424" stroke-opacity="0.05" stroke-width="0.5"/>
<line x1="1120" y1="30" x2="1120" y2="630" stroke="#242424" stroke-opacity="0.05" stroke-width="0.5"/>
<line x1="1160" y1="30" x2="1160" y2="630" stroke="#242424" stroke-opacity="0.05" stroke-width="0.5"/>
<line x1="1200" y1="30" x2="1200" y2="630" stroke="#242424" stroke-opacity="0.05" stroke-width="0.5"/>
<line x1="1240" y1="30" x2="1240" y2="630" stroke="#242424" stroke-opacity="0.05" stroke-width="0.5"/>
<line x1="1280" y1="30" x2="1280" y2="630" stroke="#242424" stroke-opacity="0.05" stroke-width="0.5"/>
<line x1="1320" y1="30" x2="1320" y2="630" stroke="#242424" stroke-opacity="0.05" stroke-width="0.5"/>
<line x1="1360" y1="30" x2="1360" y2="630" stroke="#242424" stroke-opacity="0.05" stroke-width="0.5"/>
<line x1="1400" y1="30" x2="1400" y2="630" stroke="#242424" stroke-opacity="0.05" stroke-width="0.5"/>
<line x1="1440" y1="30" x2="1440" y2="630" stroke="#242424" stroke-opacity="0.05" stroke-width="0.5"/>
<line x1="1480" y1="30" x2="1480" y2="630" stroke="#242424" stroke-opacity="0.05" stroke-width="0.5"/>
<line x1="1520" y1="30" x2="1520" y2="630" stroke="#242424" stroke-opacity="0.05" stroke-width="0.5"/>
<line x1="34" y1="30" x2="1566" y2="30" stroke="#242424" stroke-opacity="0.05" stroke-width="0.5"/>
<line x1="34" y1="60" x2="1566" y2="60" stroke="#242424" stroke-opacity="0.05" stroke-width="0.5"/>
<line x1="34" y1="90" x2="1566" y2="90" stroke="#242424" stroke-opacity="0.05" stroke-width="0.5"/>
<line x1="34" y1="120" x2="1566" y2="120" stroke="#242424" stroke-opacity="0.05" stroke-width="0.5"/>
<line x1="34" y1="150" x2="1566" y2="150" stroke="#242424" stroke-opacity="0.05" stroke-width="0.5"/>
<line x1="34" y1="180" x2="1566" y2="180" stroke="#242424" stroke-opacity="0.05" stroke-width="0.5"/>
<line x1="34" y1="210" x2="1566" y2="210" stroke="#242424" stroke-opacity="0.05" stroke-width="0.5"/>
<line x1="34" y1="240" x2="1566" y2="240" stroke="#242424" stroke-opacity="0.05" stroke-width="0.5"/>
<line x1="34" y1="270" x2="1566" y2="270" stroke="#242424" stroke-opacity="0.05" stroke-width="0.5"/>
<line x1="34" y1="300" x2="1566" y2="300" stroke="#242424" stroke-opacity="0.05" stroke-width="0.5"/>
<line x1="34" y1="330" x2="1566" y2="330" stroke="#242424" stroke-opacity="0.05" stroke-width="0.5"/>
<line x1="34" y1="360" x2="1566" y2="360" stroke="#242424" stroke-opacity="0.05" stroke-width="0.5"/>
<line x1="34" y1="390" x2="1566" y2="390" stroke="#242424" stroke-opacity="0.05" stroke-width="0.5"/>
<line x1="34" y1="420" x2="1566" y2="420" stroke="#242424" stroke-opacity="0.05" stroke-width="0.5"/>
<line x1="34" y1="450" x2="1566" y2="450" stroke="#242424" stroke-opacity="0.05" stroke-width="0.5"/>
<line x1="34" y1="480" x2="1566" y2="480" stroke="#242424" stroke-opacity="0.05" stroke-width="0.5"/>
<line x1="34" y1="510" x2="1566" y2="510" stroke="#242424" stroke-opacity="0.05" stroke-width="0.5"/>
<line x1="34" y1="540" x2="1566" y2="540" stroke="#242424" stroke-opacity="0.05" stroke-width="0.5"/>
<line x1="34" y1="570" x2="1566" y2="570" stroke="#242424" stroke-opacity="0.05" stroke-width="0.5"/>
<line x1="34" y1="600" x2="1566" y2="600" stroke="#242424" stroke-opacity="0.05" stroke-width="0.5"/>
<text class="mono" x="40" y="46" font-size="11" fill="#5c5c5c" letter-spacing="3">AEROSKILLS // DOMAIN MAP</text>
<text class="mono" x="1560" y="46" text-anchor="end" font-size="11" fill="#5c5c5c" letter-spacing="3">12 FAMILIES · 61 PACKS · 270 SKILLS · TARGET 73×20=1,460</text>
<rect x="28" y="70" width="380" height="190" fill="#faf9f5" stroke="#242424" stroke-width="0.8"/>
<text class="mono" x="42" y="98" font-size="12" fill="#171717" letter-spacing="3">AERODYNAMICS</text>
<text class="mono" x="394" y="98" text-anchor="end" font-size="11" fill="#5c5c5c" letter-spacing="2">23 SKILLS</text>
<line x1="42" y1="106" x2="394" y2="106" stroke="#a3a3a3" stroke-width="0.6"/>
<rect x="42" y="120" width="82.5" height="20" fill="none" stroke="#a3a3a3" stroke-width="0.8"/>
<text class="mono" x="48" y="133" font-size="10" letter-spacing="1" fill="#5c5c5c">airfoil <tspan fill="#171717">4</tspan></text>
<rect x="130.5" y="120" width="135.0" height="20" fill="none" stroke="#a3a3a3" stroke-width="0.8"/>
<text class="mono" x="136.5" y="133" font-size="10" letter-spacing="1" fill="#5c5c5c">boundary-layer <tspan fill="#171717">1</tspan></text>
<rect x="271.5" y="120" width="52.5" height="20" fill="none" stroke="#a3a3a3" stroke-width="0.8"/>
<text class="mono" x="277.5" y="133" font-size="10" letter-spacing="1" fill="#5c5c5c">cfd <tspan fill="#171717">5</tspan></text>
<rect x="42" y="146" width="112.5" height="20" fill="none" stroke="#a3a3a3" stroke-width="0.8"/>
<text class="mono" x="48" y="159" font-size="10" letter-spacing="1" fill="#5c5c5c">drag-polars <tspan fill="#171717">3</tspan></text>
<rect x="160.5" y="146" width="135.0" height="20" fill="none" stroke="#a3a3a3" stroke-width="0.8"/>
<text class="mono" x="166.5" y="159" font-size="10" letter-spacing="1" fill="#5c5c5c">ground-effects <tspan fill="#171717">1</tspan></text>
<rect x="42" y="172" width="97.5" height="20" fill="none" stroke="#a3a3a3" stroke-width="0.8"/>
<text class="mono" x="48" y="185" font-size="10" letter-spacing="1" fill="#5c5c5c">high-lift <tspan fill="#171717">1</tspan></text>
<rect x="145.5" y="172" width="105.0" height="20" fill="none" stroke="#a3a3a3" stroke-width="0.8"/>
<text class="mono" x="151.5" y="185" font-size="10" letter-spacing="1" fill="#5c5c5c">high-speed <tspan fill="#171717">7</tspan></text>
<rect x="256.5" y="172" width="112.5" height="20" fill="none" stroke="#a3a3a3" stroke-width="0.8"/>
<text class="mono" x="262.5" y="185" font-size="10" letter-spacing="1" fill="#5c5c5c">wing-design <tspan fill="#171717">1</tspan></text>
<rect x="424" y="70" width="380" height="190" fill="#faf9f5" stroke="#242424" stroke-width="0.8"/>
<text class="mono" x="438" y="98" font-size="12" fill="#171717" letter-spacing="3">AVIONICS</text>
<text class="mono" x="790" y="98" text-anchor="end" font-size="11" fill="#5c5c5c" letter-spacing="2">23 SKILLS</text>
<line x1="438" y1="106" x2="790" y2="106" stroke="#a3a3a3" stroke-width="0.6"/>
<rect x="438" y="120" width="90.0" height="20" fill="none" stroke="#a3a3a3" stroke-width="0.8"/>
<text class="mono" x="444" y="133" font-size="10" letter-spacing="1" fill="#5c5c5c">data-bus <tspan fill="#171717">3</tspan></text>
<rect x="534.0" y="120" width="67.5" height="20" fill="none" stroke="#a3a3a3" stroke-width="0.8"/>
<text class="mono" x="540.0" y="133" font-size="10" letter-spacing="1" fill="#5c5c5c">do160 <tspan fill="#171717">5</tspan></text>
<rect x="607.5" y="120" width="75.0" height="20" fill="none" stroke="#a3a3a3" stroke-width="0.8"/>
<text class="mono" x="613.5" y="133" font-size="10" letter-spacing="1" fill="#5c5c5c">do178c <tspan fill="#171717">7</tspan></text>
<rect x="688.5" y="120" width="67.5" height="20" fill="none" stroke="#a3a3a3" stroke-width="0.8"/>
<text class="mono" x="694.5" y="133" font-size="10" letter-spacing="1" fill="#5c5c5c">do254 <tspan fill="#171717">4</tspan></text>
<rect x="438" y="146" width="90.0" height="20" fill="none" stroke="#a3a3a3" stroke-width="0.8"/>
<text class="mono" x="444" y="159" font-size="10" letter-spacing="1" fill="#5c5c5c">far-cs25 <tspan fill="#171717">2</tspan></text>
<rect x="534.0" y="146" width="157.5" height="20" fill="none" stroke="#a3a3a3" stroke-width="0.8"/>
<text class="mono" x="540.0" y="159" font-size="10" letter-spacing="1" fill="#5c5c5c">flight-management <tspan fill="#171717">2</tspan></text>
<rect x="820" y="70" width="380" height="190" fill="#faf9f5" stroke="#242424" stroke-width="0.8"/>
<text class="mono" x="834" y="98" font-size="12" fill="#171717" letter-spacing="3">CROSS CUTTING</text>
<text class="mono" x="1186" y="98" text-anchor="end" font-size="11" fill="#5c5c5c" letter-spacing="2">23 SKILLS</text>
<line x1="834" y1="106" x2="1186" y2="106" stroke="#a3a3a3" stroke-width="0.6"/>
<rect x="834" y="120" width="127.5" height="20" fill="none" stroke="#a3a3a3" stroke-width="0.8"/>
<text class="mono" x="840" y="133" font-size="10" letter-spacing="1" fill="#5c5c5c">documentation <tspan fill="#171717">2</tspan></text>
<rect x="967.5" y="120" width="90.0" height="20" fill="none" stroke="#a3a3a3" stroke-width="0.8"/>
<text class="mono" x="973.5" y="133" font-size="10" letter-spacing="1" fill="#5c5c5c">numerics <tspan fill="#171717">12</tspan></text>
<rect x="1063.5" y="120" width="82.5" height="20" fill="none" stroke="#a3a3a3" stroke-width="0.8"/>
<text class="mono" x="1069.5" y="133" font-size="10" letter-spacing="1" fill="#5c5c5c">sep2640 <tspan fill="#171717">3</tspan></text>
<rect x="834" y="146" width="112.5" height="20" fill="none" stroke="#a3a3a3" stroke-width="0.8"/>
<text class="mono" x="840" y="159" font-size="10" letter-spacing="1" fill="#5c5c5c">tolerancing <tspan fill="#171717">2</tspan></text>
<rect x="952.5" y="146" width="112.5" height="20" fill="none" stroke="#a3a3a3" stroke-width="0.8"/>
<text class="mono" x="958.5" y="159" font-size="10" letter-spacing="1" fill="#5c5c5c">units-atmos <tspan fill="#171717">4</tspan></text>
<rect x="1216" y="70" width="380" height="190" fill="#faf9f5" stroke="#242424" stroke-width="0.8"/>
<text class="mono" x="1230" y="98" font-size="12" fill="#171717" letter-spacing="3">FLIGHT MECHANICS</text>
<text class="mono" x="1582" y="98" text-anchor="end" font-size="11" fill="#5c5c5c" letter-spacing="2">22 SKILLS</text>
<line x1="1230" y1="106" x2="1582" y2="106" stroke="#a3a3a3" stroke-width="0.6"/>
<rect x="1230" y="120" width="165.0" height="20" fill="none" stroke="#a3a3a3" stroke-width="0.8"/>
<text class="mono" x="1236" y="133" font-size="10" letter-spacing="1" fill="#5c5c5c">handling-qualities <tspan fill="#171717">2</tspan></text>
<rect x="1401.0" y="120" width="112.5" height="20" fill="none" stroke="#a3a3a3" stroke-width="0.8"/>
<text class="mono" x="1407.0" y="133" font-size="10" letter-spacing="1" fill="#5c5c5c">performance <tspan fill="#171717">13</tspan></text>
<rect x="1230" y="146" width="157.5" height="20" fill="none" stroke="#a3a3a3" stroke-width="0.8"/>
<text class="mono" x="1236" y="159" font-size="10" letter-spacing="1" fill="#5c5c5c">stability-control <tspan fill="#171717">7</tspan></text>
<rect x="28" y="276" width="380" height="190" fill="#faf9f5" stroke="#242424" stroke-width="0.8"/>
<text class="mono" x="42" y="304" font-size="12" fill="#171717" letter-spacing="3">FLIGHT TEST OPERATIONS</text>
<text class="mono" x="394" y="304" text-anchor="end" font-size="11" fill="#5c5c5c" letter-spacing="2">23 SKILLS</text>
<line x1="42" y1="312" x2="394" y2="312" stroke="#a3a3a3" stroke-width="0.6"/>
<rect x="42" y="326" width="90.0" height="20" fill="none" stroke="#a3a3a3" stroke-width="0.8"/>
<text class="mono" x="48" y="339" font-size="10" letter-spacing="1" fill="#5c5c5c">envelope <tspan fill="#171717">6</tspan></text>
<rect x="138.0" y="326" width="82.5" height="20" fill="none" stroke="#a3a3a3" stroke-width="0.8"/>
<text class="mono" x="144.0" y="339" font-size="10" letter-spacing="1" fill="#5c5c5c">flutter <tspan fill="#171717">3</tspan></text>
<rect x="226.5" y="326" width="112.5" height="20" fill="none" stroke="#a3a3a3" stroke-width="0.8"/>
<text class="mono" x="232.5" y="339" font-size="10" letter-spacing="1" fill="#5c5c5c">performance <tspan fill="#171717">7</tspan></text>
<rect x="42" y="352" width="90.0" height="20" fill="none" stroke="#a3a3a3" stroke-width="0.8"/>
<text class="mono" x="48" y="365" font-size="10" letter-spacing="1" fill="#5c5c5c">planning <tspan fill="#171717">6</tspan></text>
<rect x="138.0" y="352" width="97.5" height="20" fill="none" stroke="#a3a3a3" stroke-width="0.8"/>
<text class="mono" x="144.0" y="365" font-size="10" letter-spacing="1" fill="#5c5c5c">stability <tspan fill="#171717">1</tspan></text>
<rect x="424" y="276" width="380" height="190" fill="#faf9f5" stroke="#242424" stroke-width="0.8"/>
<text class="mono" x="438" y="304" font-size="12" fill="#171717" letter-spacing="3">GNC AUTONOMY</text>
<text class="mono" x="790" y="304" text-anchor="end" font-size="11" fill="#5c5c5c" letter-spacing="2">22 SKILLS</text>
<line x1="438" y1="312" x2="790" y2="312" stroke="#a3a3a3" stroke-width="0.6"/>
<rect x="438" y="326" width="82.5" height="20" fill="none" stroke="#a3a3a3" stroke-width="0.8"/>
<text class="mono" x="444" y="339" font-size="10" letter-spacing="1" fill="#5c5c5c">control <tspan fill="#171717">8</tspan></text>
<rect x="526.5" y="326" width="90.0" height="20" fill="none" stroke="#a3a3a3" stroke-width="0.8"/>
<text class="mono" x="532.5" y="339" font-size="10" letter-spacing="1" fill="#5c5c5c">guidance <tspan fill="#171717">5</tspan></text>
<rect x="622.5" y="326" width="105.0" height="20" fill="none" stroke="#a3a3a3" stroke-width="0.8"/>
<text class="mono" x="628.5" y="339" font-size="10" letter-spacing="1" fill="#5c5c5c">navigation <tspan fill="#171717">4</tspan></text>
<rect x="438" y="352" width="142.5" height="20" fill="none" stroke="#a3a3a3" stroke-width="0.8"/>
<text class="mono" x="444" y="365" font-size="10" letter-spacing="1" fill="#5c5c5c">optimal-control <tspan fill="#171717">2</tspan></text>
<rect x="586.5" y="352" width="67.5" height="20" fill="none" stroke="#a3a3a3" stroke-width="0.8"/>
<text class="mono" x="592.5" y="365" font-size="10" letter-spacing="1" fill="#5c5c5c">space <tspan fill="#171717">3</tspan></text>
<rect x="820" y="276" width="380" height="190" fill="#faf9f5" stroke="#242424" stroke-width="0.8"/>
<text class="mono" x="834" y="304" font-size="12" fill="#171717" letter-spacing="3">MANUFACTURING QUALITY</text>
<text class="mono" x="1186" y="304" text-anchor="end" font-size="11" fill="#5c5c5c" letter-spacing="2">23 SKILLS</text>
<line x1="834" y1="312" x2="1186" y2="312" stroke="#a3a3a3" stroke-width="0.6"/>
<rect x="834" y="326" width="75.0" height="20" fill="none" stroke="#a3a3a3" stroke-width="0.8"/>
<text class="mono" x="840" y="339" font-size="10" letter-spacing="1" fill="#5c5c5c">as9100 <tspan fill="#171717">10</tspan></text>
<rect x="915.0" y="326" width="75.0" height="20" fill="none" stroke="#a3a3a3" stroke-width="0.8"/>
<text class="mono" x="921.0" y="339" font-size="10" letter-spacing="1" fill="#5c5c5c">as9102 <tspan fill="#171717">4</tspan></text>
<rect x="996.0" y="326" width="52.5" height="20" fill="none" stroke="#a3a3a3" stroke-width="0.8"/>
<text class="mono" x="1002.0" y="339" font-size="10" letter-spacing="1" fill="#5c5c5c">ndt <tspan fill="#171717">8</tspan></text>
<rect x="834" y="352" width="157.5" height="20" fill="none" stroke="#a3a3a3" stroke-width="0.8"/>
<text class="mono" x="840" y="365" font-size="10" letter-spacing="1" fill="#5c5c5c">special-processes <tspan fill="#171717">1</tspan></text>
<rect x="1216" y="276" width="380" height="190" fill="#faf9f5" stroke="#242424" stroke-width="0.8"/>
<text class="mono" x="1230" y="304" font-size="12" fill="#171717" letter-spacing="3">PROPULSION</text>
<text class="mono" x="1582" y="304" text-anchor="end" font-size="11" fill="#5c5c5c" letter-spacing="2">22 SKILLS</text>
<line x1="1230" y1="312" x2="1582" y2="312" stroke="#a3a3a3" stroke-width="0.6"/>
<rect x="1230" y="326" width="150.0" height="20" fill="none" stroke="#a3a3a3" stroke-width="0.8"/>
<text class="mono" x="1236" y="339" font-size="10" letter-spacing="1" fill="#5c5c5c">axial-compressor <tspan fill="#171717">4</tspan></text>
<rect x="1386.0" y="326" width="142.5" height="20" fill="none" stroke="#a3a3a3" stroke-width="0.8"/>
<text class="mono" x="1392.0" y="339" font-size="10" letter-spacing="1" fill="#5c5c5c">engine-airframe <tspan fill="#171717">1</tspan></text>
<rect x="1230" y="352" width="157.5" height="20" fill="none" stroke="#a3a3a3" stroke-width="0.8"/>
<text class="mono" x="1236" y="365" font-size="10" letter-spacing="1" fill="#5c5c5c">gas-turbine-cycle <tspan fill="#171717">4</tspan></text>
<rect x="1393.5" y="352" width="75.0" height="20" fill="none" stroke="#a3a3a3" stroke-width="0.8"/>
<text class="mono" x="1399.5" y="365" font-size="10" letter-spacing="1" fill="#5c5c5c">ramjet <tspan fill="#171717">2</tspan></text>
<rect x="1474.5" y="352" width="75.0" height="20" fill="none" stroke="#a3a3a3" stroke-width="0.8"/>
<text class="mono" x="1480.5" y="365" font-size="10" letter-spacing="1" fill="#5c5c5c">rocket <tspan fill="#171717">6</tspan></text>
<rect x="1230" y="378" width="90.0" height="20" fill="none" stroke="#a3a3a3" stroke-width="0.8"/>
<text class="mono" x="1236" y="391" font-size="10" letter-spacing="1" fill="#5c5c5c">turbofan <tspan fill="#171717">3</tspan></text>
<rect x="1326.0" y="378" width="97.5" height="20" fill="none" stroke="#a3a3a3" stroke-width="0.8"/>
<text class="mono" x="1332.0" y="391" font-size="10" letter-spacing="1" fill="#5c5c5c">turboprop <tspan fill="#171717">2</tspan></text>
<rect x="28" y="482" width="380" height="190" fill="#faf9f5" stroke="#242424" stroke-width="0.8"/>
<text class="mono" x="42" y="510" font-size="12" fill="#171717" letter-spacing="3">SPACE SYSTEMS</text>
<text class="mono" x="394" y="510" text-anchor="end" font-size="11" fill="#5c5c5c" letter-spacing="2">22 SKILLS</text>
<line x1="42" y1="518" x2="394" y2="518" stroke="#a3a3a3" stroke-width="0.6"/>
<rect x="42" y="532" width="60.0" height="20" fill="none" stroke="#a3a3a3" stroke-width="0.8"/>
<text class="mono" x="48" y="545" font-size="10" letter-spacing="1" fill="#5c5c5c">adcs <tspan fill="#171717">5</tspan></text>
<rect x="108.0" y="532" width="60.0" height="20" fill="none" stroke="#a3a3a3" stroke-width="0.8"/>
<text class="mono" x="114.0" y="545" font-size="10" letter-spacing="1" fill="#5c5c5c">ecss <tspan fill="#171717">3</tspan></text>
<rect x="174.0" y="532" width="142.5" height="20" fill="none" stroke="#a3a3a3" stroke-width="0.8"/>
<text class="mono" x="180.0" y="545" font-size="10" letter-spacing="1" fill="#5c5c5c">orbit-mechanics <tspan fill="#171717">9</tspan></text>
<rect x="42" y="558" width="105.0" height="20" fill="none" stroke="#a3a3a3" stroke-width="0.8"/>
<text class="mono" x="48" y="571" font-size="10" letter-spacing="1" fill="#5c5c5c">subsystems <tspan fill="#171717">5</tspan></text>
<rect x="424" y="482" width="380" height="190" fill="#faf9f5" stroke="#242424" stroke-width="0.8"/>
<text class="mono" x="438" y="510" font-size="12" fill="#171717" letter-spacing="3">STRUCTURES</text>
<text class="mono" x="790" y="510" text-anchor="end" font-size="11" fill="#5c5c5c" letter-spacing="2">23 SKILLS</text>
<line x1="438" y1="518" x2="790" y2="518" stroke="#a3a3a3" stroke-width="0.6"/>
<rect x="438" y="532" width="105.0" height="20" fill="none" stroke="#a3a3a3" stroke-width="0.8"/>
<text class="mono" x="444" y="545" font-size="10" letter-spacing="1" fill="#5c5c5c">composites <tspan fill="#171717">4</tspan></text>
<rect x="549.0" y="532" width="150.0" height="20" fill="none" stroke="#a3a3a3" stroke-width="0.8"/>
<text class="mono" x="555.0" y="545" font-size="10" letter-spacing="1" fill="#5c5c5c">damage-tolerance <tspan fill="#171717">4</tspan></text>
<rect x="705.0" y="532" width="82.5" height="20" fill="none" stroke="#a3a3a3" stroke-width="0.8"/>
<text class="mono" x="711.0" y="545" font-size="10" letter-spacing="1" fill="#5c5c5c">fatigue <tspan fill="#171717">5</tspan></text>
<rect x="438" y="558" width="52.5" height="20" fill="none" stroke="#a3a3a3" stroke-width="0.8"/>
<text class="mono" x="444" y="571" font-size="10" letter-spacing="1" fill="#5c5c5c">fem <tspan fill="#171717">6</tspan></text>
<rect x="496.5" y="558" width="97.5" height="20" fill="none" stroke="#a3a3a3" stroke-width="0.8"/>
<text class="mono" x="502.5" y="571" font-size="10" letter-spacing="1" fill="#5c5c5c">materials <tspan fill="#171717">4</tspan></text>
<rect x="820" y="482" width="380" height="190" fill="#faf9f5" stroke="#242424" stroke-width="0.8"/>
<text class="mono" x="834" y="510" font-size="12" fill="#171717" letter-spacing="3">SYSTEMS ENGINEERING SAFETY</text>
<text class="mono" x="1186" y="510" text-anchor="end" font-size="11" fill="#5c5c5c" letter-spacing="2">22 SKILLS</text>
<line x1="834" y1="518" x2="1186" y2="518" stroke="#a3a3a3" stroke-width="0.6"/>
<rect x="834" y="532" width="90.0" height="20" fill="none" stroke="#a3a3a3" stroke-width="0.8"/>
<text class="mono" x="840" y="545" font-size="10" letter-spacing="1" fill="#5c5c5c">arp4754a <tspan fill="#171717">7</tspan></text>
<rect x="930.0" y="532" width="90.0" height="20" fill="none" stroke="#a3a3a3" stroke-width="0.8"/>
<text class="mono" x="936.0" y="545" font-size="10" letter-spacing="1" fill="#5c5c5c">arp4761a <tspan fill="#171717">9</tspan></text>
<rect x="1026.0" y="532" width="60.0" height="20" fill="none" stroke="#a3a3a3" stroke-width="0.8"/>
<text class="mono" x="1032.0" y="545" font-size="10" letter-spacing="1" fill="#5c5c5c">mbse <tspan fill="#171717">6</tspan></text>
<rect x="1216" y="482" width="380" height="190" fill="#faf9f5" stroke="#242424" stroke-width="0.8"/>
<text class="mono" x="1230" y="510" font-size="12" fill="#171717" letter-spacing="3">VEHICLE DESIGN</text>
<text class="mono" x="1582" y="510" text-anchor="end" font-size="11" fill="#5c5c5c" letter-spacing="2">22 SKILLS</text>
<line x1="1230" y1="518" x2="1582" y2="518" stroke="#a3a3a3" stroke-width="0.6"/>
<rect x="1230" y="532" width="105.0" height="20" fill="none" stroke="#a3a3a3" stroke-width="0.8"/>
<text class="mono" x="1236" y="545" font-size="10" letter-spacing="1" fill="#5c5c5c">conceptual <tspan fill="#171717">2</tspan></text>
<rect x="1341.0" y="532" width="142.5" height="20" fill="none" stroke="#a3a3a3" stroke-width="0.8"/>
<text class="mono" x="1347.0" y="545" font-size="10" letter-spacing="1" fill="#5c5c5c">cost-estimation <tspan fill="#171717">3</tspan></text>
<rect x="1230" y="558" width="142.5" height="20" fill="none" stroke="#a3a3a3" stroke-width="0.8"/>
<text class="mono" x="1236" y="571" font-size="10" letter-spacing="1" fill="#5c5c5c">mass-properties <tspan fill="#171717">3</tspan></text>
<rect x="1378.5" y="558" width="52.5" height="20" fill="none" stroke="#a3a3a3" stroke-width="0.8"/>
<text class="mono" x="1384.5" y="571" font-size="10" letter-spacing="1" fill="#5c5c5c">mdo <tspan fill="#171717">1</tspan></text>
<rect x="1437.0" y="558" width="75.0" height="20" fill="none" stroke="#a3a3a3" stroke-width="0.8"/>
<text class="mono" x="1443.0" y="571" font-size="10" letter-spacing="1" fill="#5c5c5c">sizing <tspan fill="#171717">11</tspan></text>
<rect x="1230" y="584" width="195.0" height="20" fill="none" stroke="#a3a3a3" stroke-width="0.8"/>
<text class="mono" x="1236" y="597" font-size="10" letter-spacing="1" fill="#5c5c5c">structures-integration <tspan fill="#171717">2</tspan></text>
<text class="mono" x="40" y="636" font-size="10" fill="#a3a3a3" letter-spacing="2">EVERY LEAF VERIFIED · MAKE VALIDATE 5/5 · AGENTSKILLS.IO FORMAT</text>
</svg>