<svg xmlns="http://www.w3.org/2000/svg" width="940" height="820" viewBox="0 0 940 820">
  <style>
    .mono { font-family: "JetBrains Mono", "IBM Plex Mono", "Menlo", monospace; }
    .cond { font-family: "Barlow Condensed", "DIN Condensed", "Arial Narrow", sans-serif; font-weight: 700; text-transform: uppercase; }
    .serif { font-family: "Instrument Serif", Georgia, serif; font-style: italic; }
  </style>
<rect width="940" height="820" fill="#f6f7fc"/>
<polygon points="430.0,357.6 456.2,364.6 475.4,383.8 482.4,410.0 475.4,436.2 456.2,455.4 430.0,462.4 403.8,455.4 384.6,436.2 377.6,410.0 384.6,383.8 403.8,364.6" fill="none" stroke="#c6cce4" stroke-width="0.8" stroke-opacity="0.55"/>
<polygon points="430.0,305.2 482.4,319.2 520.8,357.6 534.8,410.0 520.8,462.4 482.4,500.8 430.0,514.8 377.6,500.8 339.2,462.4 325.2,410.0 339.2,357.6 377.6,319.2" fill="none" stroke="#c6cce4" stroke-width="0.8" stroke-opacity="0.55"/>
<polygon points="430.0,252.8 508.6,273.9 566.1,331.4 587.2,410.0 566.1,488.6 508.6,546.1 430.0,567.2 351.4,546.1 293.9,488.6 272.8,410.0 293.9,331.4 351.4,273.9" fill="none" stroke="#c6cce4" stroke-width="0.8" stroke-opacity="0.55"/>
<polygon points="430.0,200.4 534.8,228.5 611.5,305.2 639.6,410.0 611.5,514.8 534.8,591.5 430.0,619.6 325.2,591.5 248.5,514.8 220.4,410.0 248.5,305.2 325.2,228.5" fill="none" stroke="#c6cce4" stroke-width="0.8" stroke-opacity="0.55"/>
<polygon points="430.0,148.0 561.0,183.1 656.9,279.0 692.0,410.0 656.9,541.0 561.0,636.9 430.0,672.0 299.0,636.9 203.1,541.0 168.0,410.0 203.1,279.0 299.0,183.1" fill="none" stroke="#c6cce4" stroke-width="0.8" stroke-opacity="0.55"/>
<line x1="430" y1="410" x2="430.0" y2="148.0" stroke="#c6cce4" stroke-width="0.8" stroke-opacity="0.4"/>
<line x1="430" y1="410" x2="561.0" y2="183.1" stroke="#c6cce4" stroke-width="0.8" stroke-opacity="0.4"/>
<line x1="430" y1="410" x2="656.9" y2="279.0" stroke="#c6cce4" stroke-width="0.8" stroke-opacity="0.4"/>
<line x1="430" y1="410" x2="692.0" y2="410.0" stroke="#c6cce4" stroke-width="0.8" stroke-opacity="0.4"/>
<line x1="430" y1="410" x2="656.9" y2="541.0" stroke="#c6cce4" stroke-width="0.8" stroke-opacity="0.4"/>
<line x1="430" y1="410" x2="561.0" y2="636.9" stroke="#c6cce4" stroke-width="0.8" stroke-opacity="0.4"/>
<line x1="430" y1="410" x2="430.0" y2="672.0" stroke="#c6cce4" stroke-width="0.8" stroke-opacity="0.4"/>
<line x1="430" y1="410" x2="299.0" y2="636.9" stroke="#c6cce4" stroke-width="0.8" stroke-opacity="0.4"/>
<line x1="430" y1="410" x2="203.1" y2="541.0" stroke="#c6cce4" stroke-width="0.8" stroke-opacity="0.4"/>
<line x1="430" y1="410" x2="168.0" y2="410.0" stroke="#c6cce4" stroke-width="0.8" stroke-opacity="0.4"/>
<line x1="430" y1="410" x2="203.1" y2="279.0" stroke="#c6cce4" stroke-width="0.8" stroke-opacity="0.4"/>
<line x1="430" y1="410" x2="299.0" y2="183.1" stroke="#c6cce4" stroke-width="0.8" stroke-opacity="0.4"/>
<text class="mono" x="412.4" y="356.4" text-anchor="end" font-size="10" fill="#151a33" opacity="0.55">15</text>
<text class="mono" x="398.9" y="305.8" text-anchor="end" font-size="10" fill="#151a33" opacity="0.55">30</text>
<text class="mono" x="385.3" y="255.2" text-anchor="end" font-size="10" fill="#151a33" opacity="0.55">45</text>
<text class="mono" x="371.8" y="204.5" text-anchor="end" font-size="10" fill="#151a33" opacity="0.55">60</text>
<text class="mono" x="358.2" y="153.9" text-anchor="end" font-size="10" fill="#151a33" opacity="0.55">75</text>
<text class="mono" x="430.0" y="122.0" text-anchor="middle" font-size="12" fill="#0891b2" letter-spacing="1">AERODYNAMICS</text>
<text class="mono" x="571.0" y="159.8" text-anchor="start" font-size="12" fill="#7c3aed" letter-spacing="1">AVIONICS</text>
<text class="mono" x="674.2" y="263.0" text-anchor="start" font-size="12" fill="#db2777" letter-spacing="1">CROSS-CUTTING</text>
<text class="mono" x="712.0" y="414.0" text-anchor="start" font-size="12" fill="#ea580c" letter-spacing="1">FLIGHT MECHANICS</text>
<text class="mono" x="674.2" y="563.0" text-anchor="start" font-size="12" fill="#0891b2" letter-spacing="1">FLIGHT TEST &amp; OPS</text>
<text class="mono" x="571.0" y="666.2" text-anchor="start" font-size="12" fill="#7c3aed" letter-spacing="1">GNC &amp; AUTONOMY</text>
<text class="mono" x="430.0" y="704.0" text-anchor="middle" font-size="12" fill="#db2777" letter-spacing="1">MANUFACTURING QUALITY</text>
<text class="mono" x="289.0" y="666.2" text-anchor="end" font-size="12" fill="#ea580c" letter-spacing="1">PROPULSION</text>
<text class="mono" x="185.8" y="563.0" text-anchor="end" font-size="12" fill="#0891b2" letter-spacing="1">SPACE SYSTEMS</text>
<text class="mono" x="148.0" y="414.0" text-anchor="end" font-size="12" fill="#7c3aed" letter-spacing="1">STRUCTURES</text>
<text class="mono" x="185.8" y="263.0" text-anchor="end" font-size="12" fill="#db2777" letter-spacing="1">SYSTEMS ENG &amp; SAFETY</text>
<text class="mono" x="289.0" y="159.8" text-anchor="end" font-size="12" fill="#ea580c" letter-spacing="1">VEHICLE DESIGN</text>
<polygon points="430.0,193.4 533.1,231.5 599.4,312.2 625.6,410.0 599.4,507.8 533.1,588.5 430.0,612.6 328.7,585.5 245.5,516.5 223.9,410.0 254.5,308.7 335.7,246.6" fill="#db2777" fill-opacity="0.10" stroke="#db2777" stroke-width="2.2"/>
<rect x="426.8" y="190.2" width="6.4" height="6.4" fill="#f6f7fc" stroke="#db2777" stroke-width="1.6"/>
<rect x="529.9" y="228.3" width="6.4" height="6.4" fill="#f6f7fc" stroke="#db2777" stroke-width="1.6"/>
<rect x="596.2" y="309.0" width="6.4" height="6.4" fill="#f6f7fc" stroke="#db2777" stroke-width="1.6"/>
<rect x="622.4" y="406.8" width="6.4" height="6.4" fill="#f6f7fc" stroke="#db2777" stroke-width="1.6"/>
<rect x="596.2" y="504.6" width="6.4" height="6.4" fill="#f6f7fc" stroke="#db2777" stroke-width="1.6"/>
<rect x="529.9" y="585.3" width="6.4" height="6.4" fill="#f6f7fc" stroke="#db2777" stroke-width="1.6"/>
<rect x="426.8" y="609.4" width="6.4" height="6.4" fill="#f6f7fc" stroke="#db2777" stroke-width="1.6"/>
<rect x="325.5" y="582.3" width="6.4" height="6.4" fill="#f6f7fc" stroke="#db2777" stroke-width="1.6"/>
<rect x="242.3" y="513.3" width="6.4" height="6.4" fill="#f6f7fc" stroke="#db2777" stroke-width="1.6"/>
<rect x="220.7" y="406.8" width="6.4" height="6.4" fill="#f6f7fc" stroke="#db2777" stroke-width="1.6"/>
<rect x="251.3" y="305.5" width="6.4" height="6.4" fill="#f6f7fc" stroke="#db2777" stroke-width="1.6"/>
<rect x="332.5" y="243.4" width="6.4" height="6.4" fill="#f6f7fc" stroke="#db2777" stroke-width="1.6"/>
<polygon points="430.0,305.2 478.9,325.3 514.7,361.1 527.8,410.0 514.7,458.9 480.7,497.7 430.0,507.8 379.3,497.7 342.3,460.7 328.7,410.0 345.3,361.1 382.8,328.3" fill="#0891b2" fill-opacity="0.16" stroke="#0891b2" stroke-width="2.6"/>
<circle cx="430.0" cy="305.2" r="3.6" fill="#0891b2" stroke="#151a33" stroke-width="1.2"/>
<circle cx="478.9" cy="325.3" r="3.6" fill="#0891b2" stroke="#151a33" stroke-width="1.2"/>
<circle cx="514.7" cy="361.1" r="3.6" fill="#0891b2" stroke="#151a33" stroke-width="1.2"/>
<circle cx="527.8" cy="410.0" r="3.6" fill="#0891b2" stroke="#151a33" stroke-width="1.2"/>
<circle cx="514.7" cy="458.9" r="3.6" fill="#0891b2" stroke="#151a33" stroke-width="1.2"/>
<circle cx="480.7" cy="497.7" r="3.6" fill="#0891b2" stroke="#151a33" stroke-width="1.2"/>
<circle cx="430.0" cy="507.8" r="3.6" fill="#0891b2" stroke="#151a33" stroke-width="1.2"/>
<circle cx="379.3" cy="497.7" r="3.6" fill="#0891b2" stroke="#151a33" stroke-width="1.2"/>
<circle cx="342.3" cy="460.7" r="3.6" fill="#0891b2" stroke="#151a33" stroke-width="1.2"/>
<circle cx="328.7" cy="410.0" r="3.6" fill="#0891b2" stroke="#151a33" stroke-width="1.2"/>
<circle cx="345.3" cy="361.1" r="3.6" fill="#0891b2" stroke="#151a33" stroke-width="1.2"/>
<circle cx="382.8" cy="328.3" r="3.6" fill="#0891b2" stroke="#151a33" stroke-width="1.2"/>
<text class="mono" x="430.0" y="182.4" text-anchor="middle" font-size="9.5" fill="#db2777">62</text>
<text class="mono" x="540.1" y="222.4" text-anchor="middle" font-size="9.5" fill="#db2777">59</text>
<text class="mono" x="611.5" y="308.2" text-anchor="middle" font-size="9.5" fill="#db2777">56</text>
<text class="mono" x="639.6" y="413.0" text-anchor="middle" font-size="9.5" fill="#db2777">56</text>
<text class="mono" x="611.5" y="517.8" text-anchor="middle" font-size="9.5" fill="#db2777">56</text>
<text class="mono" x="540.1" y="603.6" text-anchor="middle" font-size="9.5" fill="#db2777">59</text>
<text class="mono" x="430.0" y="629.6" text-anchor="middle" font-size="9.5" fill="#db2777">58</text>
<text class="mono" x="321.7" y="600.6" text-anchor="middle" font-size="9.5" fill="#db2777">58</text>
<text class="mono" x="233.3" y="526.5" text-anchor="middle" font-size="9.5" fill="#db2777">61</text>
<text class="mono" x="209.9" y="413.0" text-anchor="middle" font-size="9.5" fill="#db2777">59</text>
<text class="mono" x="242.4" y="304.7" text-anchor="middle" font-size="9.5" fill="#db2777">58</text>
<text class="mono" x="328.7" y="237.5" text-anchor="middle" font-size="9.5" fill="#db2777">54</text>
<text class="cond" x="910.0" y="74.0" text-anchor="end" font-size="34" fill="#151a33" letter-spacing="2">DOMAIN COVERAGE</text>
<text class="mono" x="910.0" y="100.0" text-anchor="end" font-size="11" fill="#5a6289" letter-spacing="1">12 FAMILIES · SKILLS VS ROUTER ASSERTIONS</text>
<rect x="700" y="612" width="210" height="178" fill="#ffffff" stroke="#151a33" stroke-width="1.2"/>
<line x1="700" y1="686" x2="910" y2="686" stroke="#c6cce4" stroke-width="0.8"/>
<circle cx="722" cy="636" r="4" fill="#0891b2" stroke="#151a33" stroke-width="1.2"/>
<text class="mono" x="736.0" y="640.0" text-anchor="start" font-size="10.5" fill="#151a33">VERIFIED SKILLS · 341</text>
<rect x="718" y="656" width="8" height="8" fill="none" stroke="#db2777" stroke-width="1.6"/>
<text class="mono" x="736.0" y="664.0" text-anchor="start" font-size="10.5" fill="#151a33">ROUTER TASKS · 696</text>
<text class="mono" x="714.0" y="706.0" text-anchor="start" font-size="9" fill="#5a6289" letter-spacing="1">UNIT</text>
<text class="mono" x="766.0" y="706.0" text-anchor="start" font-size="9" fill="#151a33">COUNT PER FAMILY</text>
<text class="mono" x="714.0" y="727.0" text-anchor="start" font-size="9" fill="#5a6289" letter-spacing="1">SCALE</text>
<text class="mono" x="766.0" y="727.0" text-anchor="start" font-size="9" fill="#151a33">0–75 · RINGS 15</text>
<text class="mono" x="714.0" y="748.0" text-anchor="start" font-size="9" fill="#5a6289" letter-spacing="1">GATE</text>
<text class="mono" x="766.0" y="748.0" text-anchor="start" font-size="9" fill="#151a33">HIT@1 · DETERMINISTIC</text>
<text class="mono" x="714.0" y="769.0" text-anchor="start" font-size="9" fill="#5a6289" letter-spacing="1">SHEET</text>
<text class="mono" x="766.0" y="769.0" text-anchor="start" font-size="9" fill="#151a33">RDR-01 · REV AUTO</text>
<text class="mono" x="48.0" y="798.0" text-anchor="start" font-size="10" fill="#5a6289" letter-spacing="2">341 VERIFIED SKILLS · 81 LIVE PACKS · 696 ROUTER TASKS</text>
<text class="mono" x="910.0" y="812.0" text-anchor="end" font-size="9.5" fill="#5a6289" letter-spacing="1.5" opacity="0.9">AERO AGENT SKILLS · ASHFORDE OÜ</text>
</svg>
