<svg xmlns="http://www.w3.org/2000/svg" width="940" height="820" viewBox="0 0 940 820">
  <style>
    .mono { font-family: "JetBrains Mono", "IBM Plex Mono", "Menlo", monospace; }
    .cond { font-family: "Barlow Condensed", "DIN Condensed", "Arial Narrow", sans-serif; font-weight: 700; text-transform: uppercase; }
    .serif { font-family: "Instrument Serif", Georgia, serif; font-style: italic; }
  </style>
<rect width="940" height="820" fill="#0a0d1e"/>
<polygon points="430.0,366.3 451.8,372.2 467.8,388.2 473.7,410.0 467.8,431.8 451.8,447.8 430.0,453.7 408.2,447.8 392.2,431.8 386.3,410.0 392.2,388.2 408.2,372.2" fill="none" stroke="#2c3564" stroke-width="0.8" stroke-opacity="0.55"/>
<polygon points="430.0,322.7 473.7,334.4 505.6,366.3 517.3,410.0 505.6,453.7 473.7,485.6 430.0,497.3 386.3,485.6 354.4,453.7 342.7,410.0 354.4,366.3 386.3,334.4" fill="none" stroke="#2c3564" stroke-width="0.8" stroke-opacity="0.55"/>
<polygon points="430.0,279.0 495.5,296.6 543.4,344.5 561.0,410.0 543.4,475.5 495.5,523.4 430.0,541.0 364.5,523.4 316.6,475.5 299.0,410.0 316.6,344.5 364.5,296.6" fill="none" stroke="#2c3564" stroke-width="0.8" stroke-opacity="0.55"/>
<polygon points="430.0,235.3 517.3,258.7 581.3,322.7 604.7,410.0 581.3,497.3 517.3,561.3 430.0,584.7 342.7,561.3 278.7,497.3 255.3,410.0 278.7,322.7 342.7,258.7" fill="none" stroke="#2c3564" stroke-width="0.8" stroke-opacity="0.55"/>
<polygon points="430.0,191.7 539.2,220.9 619.1,300.8 648.3,410.0 619.1,519.2 539.2,599.1 430.0,628.3 320.8,599.1 240.9,519.2 211.7,410.0 240.9,300.8 320.8,220.9" fill="none" stroke="#2c3564" stroke-width="0.8" stroke-opacity="0.55"/>
<polygon points="430.0,148.0 561.0,183.1 656.9,279.0 692.0,410.0 656.9,541.0 561.0,636.9 430.0,672.0 299.0,636.9 203.1,541.0 168.0,410.0 203.1,279.0 299.0,183.1" fill="none" stroke="#2c3564" stroke-width="0.8" stroke-opacity="0.55"/>
<line x1="430" y1="410" x2="430.0" y2="148.0" stroke="#2c3564" stroke-width="0.8" stroke-opacity="0.4"/>
<line x1="430" y1="410" x2="561.0" y2="183.1" stroke="#2c3564" stroke-width="0.8" stroke-opacity="0.4"/>
<line x1="430" y1="410" x2="656.9" y2="279.0" stroke="#2c3564" stroke-width="0.8" stroke-opacity="0.4"/>
<line x1="430" y1="410" x2="692.0" y2="410.0" stroke="#2c3564" stroke-width="0.8" stroke-opacity="0.4"/>
<line x1="430" y1="410" x2="656.9" y2="541.0" stroke="#2c3564" stroke-width="0.8" stroke-opacity="0.4"/>
<line x1="430" y1="410" x2="561.0" y2="636.9" stroke="#2c3564" stroke-width="0.8" stroke-opacity="0.4"/>
<line x1="430" y1="410" x2="430.0" y2="672.0" stroke="#2c3564" stroke-width="0.8" stroke-opacity="0.4"/>
<line x1="430" y1="410" x2="299.0" y2="636.9" stroke="#2c3564" stroke-width="0.8" stroke-opacity="0.4"/>
<line x1="430" y1="410" x2="203.1" y2="541.0" stroke="#2c3564" stroke-width="0.8" stroke-opacity="0.4"/>
<line x1="430" y1="410" x2="168.0" y2="410.0" stroke="#2c3564" stroke-width="0.8" stroke-opacity="0.4"/>
<line x1="430" y1="410" x2="203.1" y2="279.0" stroke="#2c3564" stroke-width="0.8" stroke-opacity="0.4"/>
<line x1="430" y1="410" x2="299.0" y2="183.1" stroke="#2c3564" stroke-width="0.8" stroke-opacity="0.4"/>
<text class="mono" x="414.7" y="364.8" text-anchor="end" font-size="10" fill="#edf0fc" opacity="0.55">20</text>
<text class="mono" x="403.4" y="322.6" text-anchor="end" font-size="10" fill="#edf0fc" opacity="0.55">40</text>
<text class="mono" x="392.1" y="280.5" text-anchor="end" font-size="10" fill="#edf0fc" opacity="0.55">60</text>
<text class="mono" x="380.8" y="238.3" text-anchor="end" font-size="10" fill="#edf0fc" opacity="0.55">80</text>
<text class="mono" x="369.5" y="196.1" text-anchor="end" font-size="10" fill="#edf0fc" opacity="0.55">100</text>
<text class="mono" x="358.2" y="153.9" text-anchor="end" font-size="10" fill="#edf0fc" opacity="0.55">120</text>
<text class="mono" x="430.0" y="122.0" text-anchor="middle" font-size="12" fill="#38bdf8" letter-spacing="1">AERODYNAMICS</text>
<text class="mono" x="571.0" y="159.8" text-anchor="start" font-size="12" fill="#a78bfa" letter-spacing="1">AVIONICS</text>
<text class="mono" x="674.2" y="263.0" text-anchor="start" font-size="12" fill="#f472b6" letter-spacing="1">CROSS-CUTTING</text>
<text class="mono" x="712.0" y="414.0" text-anchor="start" font-size="12" fill="#fb923c" letter-spacing="1">FLIGHT MECHANICS</text>
<text class="mono" x="674.2" y="563.0" text-anchor="start" font-size="12" fill="#38bdf8" letter-spacing="1">FLIGHT TEST &amp; OPS</text>
<text class="mono" x="571.0" y="666.2" text-anchor="start" font-size="12" fill="#a78bfa" letter-spacing="1">GNC &amp; AUTONOMY</text>
<text class="mono" x="430.0" y="704.0" text-anchor="middle" font-size="12" fill="#f472b6" letter-spacing="1">MANUFACTURING QUALITY</text>
<text class="mono" x="289.0" y="666.2" text-anchor="end" font-size="12" fill="#fb923c" letter-spacing="1">PROPULSION</text>
<text class="mono" x="185.8" y="563.0" text-anchor="end" font-size="12" fill="#38bdf8" letter-spacing="1">SPACE SYSTEMS</text>
<text class="mono" x="148.0" y="414.0" text-anchor="end" font-size="12" fill="#a78bfa" letter-spacing="1">STRUCTURES</text>
<text class="mono" x="185.8" y="263.0" text-anchor="end" font-size="12" fill="#f472b6" letter-spacing="1">SYSTEMS ENG &amp; SAFETY</text>
<text class="mono" x="289.0" y="159.8" text-anchor="end" font-size="12" fill="#fb923c" letter-spacing="1">VEHICLE DESIGN</text>
<polygon points="430.0,231.0 533.7,230.4 634.2,292.1 626.5,410.0 585.0,499.5 522.8,570.7 430.0,624.0 338.3,568.8 235.2,522.4 213.8,410.0 267.4,316.1 314.3,209.6" fill="#f472b6" fill-opacity="0.10" stroke="#f472b6" stroke-width="2.2"/>
<rect x="426.8" y="227.8" width="6.4" height="6.4" fill="#0a0d1e" stroke="#f472b6" stroke-width="1.6"/>
<rect x="530.5" y="227.2" width="6.4" height="6.4" fill="#0a0d1e" stroke="#f472b6" stroke-width="1.6"/>
<rect x="631.0" y="288.9" width="6.4" height="6.4" fill="#0a0d1e" stroke="#f472b6" stroke-width="1.6"/>
<rect x="623.3" y="406.8" width="6.4" height="6.4" fill="#0a0d1e" stroke="#f472b6" stroke-width="1.6"/>
<rect x="581.8" y="496.3" width="6.4" height="6.4" fill="#0a0d1e" stroke="#f472b6" stroke-width="1.6"/>
<rect x="519.6" y="567.5" width="6.4" height="6.4" fill="#0a0d1e" stroke="#f472b6" stroke-width="1.6"/>
<rect x="426.8" y="620.8" width="6.4" height="6.4" fill="#0a0d1e" stroke="#f472b6" stroke-width="1.6"/>
<rect x="335.1" y="565.6" width="6.4" height="6.4" fill="#0a0d1e" stroke="#f472b6" stroke-width="1.6"/>
<rect x="232.0" y="519.2" width="6.4" height="6.4" fill="#0a0d1e" stroke="#f472b6" stroke-width="1.6"/>
<rect x="210.7" y="406.8" width="6.4" height="6.4" fill="#0a0d1e" stroke="#f472b6" stroke-width="1.6"/>
<rect x="264.2" y="312.9" width="6.4" height="6.4" fill="#0a0d1e" stroke="#f472b6" stroke-width="1.6"/>
<rect x="311.1" y="206.4" width="6.4" height="6.4" fill="#0a0d1e" stroke="#f472b6" stroke-width="1.6"/>
<polygon points="430.0,322.7 480.2,323.0 532.1,351.1 528.2,410.0 507.5,454.8 475.9,489.4 430.0,514.8 384.2,489.4 335.5,464.6 323.0,410.0 350.6,364.1 373.2,311.7" fill="#38bdf8" fill-opacity="0.16" stroke="#38bdf8" stroke-width="2.6"/>
<circle cx="430.0" cy="322.7" r="3.6" fill="#38bdf8" stroke="#edf0fc" stroke-width="1.2"/>
<circle cx="480.2" cy="323.0" r="3.6" fill="#38bdf8" stroke="#edf0fc" stroke-width="1.2"/>
<circle cx="532.1" cy="351.1" r="3.6" fill="#38bdf8" stroke="#edf0fc" stroke-width="1.2"/>
<circle cx="528.2" cy="410.0" r="3.6" fill="#38bdf8" stroke="#edf0fc" stroke-width="1.2"/>
<circle cx="507.5" cy="454.8" r="3.6" fill="#38bdf8" stroke="#edf0fc" stroke-width="1.2"/>
<circle cx="475.9" cy="489.4" r="3.6" fill="#38bdf8" stroke="#edf0fc" stroke-width="1.2"/>
<circle cx="430.0" cy="514.8" r="3.6" fill="#38bdf8" stroke="#edf0fc" stroke-width="1.2"/>
<circle cx="384.2" cy="489.4" r="3.6" fill="#38bdf8" stroke="#edf0fc" stroke-width="1.2"/>
<circle cx="335.5" cy="464.6" r="3.6" fill="#38bdf8" stroke="#edf0fc" stroke-width="1.2"/>
<circle cx="323.0" cy="410.0" r="3.6" fill="#38bdf8" stroke="#edf0fc" stroke-width="1.2"/>
<circle cx="350.6" cy="364.1" r="3.6" fill="#38bdf8" stroke="#edf0fc" stroke-width="1.2"/>
<circle cx="373.2" cy="311.7" r="3.6" fill="#38bdf8" stroke="#edf0fc" stroke-width="1.2"/>
<text class="mono" x="430.0" y="220.0" text-anchor="middle" font-size="9.5" fill="#f472b6">82</text>
<text class="mono" x="540.7" y="221.2" text-anchor="middle" font-size="9.5" fill="#f472b6">95</text>
<text class="mono" x="646.3" y="288.1" text-anchor="middle" font-size="9.5" fill="#f472b6">108</text>
<text class="mono" x="640.5" y="413.0" text-anchor="middle" font-size="9.5" fill="#f472b6">90</text>
<text class="mono" x="597.2" y="509.5" text-anchor="middle" font-size="9.5" fill="#f472b6">82</text>
<text class="mono" x="529.8" y="585.8" text-anchor="middle" font-size="9.5" fill="#f472b6">85</text>
<text class="mono" x="430.0" y="641.0" text-anchor="middle" font-size="9.5" fill="#f472b6">98</text>
<text class="mono" x="331.3" y="584.0" text-anchor="middle" font-size="9.5" fill="#f472b6">84</text>
<text class="mono" x="223.1" y="532.4" text-anchor="middle" font-size="9.5" fill="#f472b6">103</text>
<text class="mono" x="199.8" y="413.0" text-anchor="middle" font-size="9.5" fill="#f472b6">99</text>
<text class="mono" x="255.3" y="312.1" text-anchor="middle" font-size="9.5" fill="#f472b6">86</text>
<text class="mono" x="307.3" y="200.4" text-anchor="middle" font-size="9.5" fill="#f472b6">106</text>
<text class="cond" x="910.0" y="74.0" text-anchor="end" font-size="34" fill="#edf0fc" letter-spacing="2">DOMAIN COVERAGE</text>
<text class="mono" x="910.0" y="100.0" text-anchor="end" font-size="11" fill="#8a93c4" letter-spacing="1">12 FAMILIES · SKILLS VS ROUTER ASSERTIONS</text>
<rect x="700" y="612" width="210" height="178" fill="#111632" stroke="#edf0fc" stroke-width="1.2"/>
<line x1="700" y1="686" x2="910" y2="686" stroke="#2c3564" stroke-width="0.8"/>
<circle cx="722" cy="636" r="4" fill="#38bdf8" stroke="#edf0fc" stroke-width="1.2"/>
<text class="mono" x="736.0" y="640.0" text-anchor="start" font-size="10.5" fill="#edf0fc">VERIFIED SKILLS · 551</text>
<rect x="718" y="656" width="8" height="8" fill="none" stroke="#f472b6" stroke-width="1.6"/>
<text class="mono" x="736.0" y="664.0" text-anchor="start" font-size="10.5" fill="#edf0fc">ROUTER TASKS · 1118</text>
<text class="mono" x="714.0" y="706.0" text-anchor="start" font-size="9" fill="#8a93c4" letter-spacing="1">UNIT</text>
<text class="mono" x="766.0" y="706.0" text-anchor="start" font-size="9" fill="#edf0fc">COUNT PER FAMILY</text>
<text class="mono" x="714.0" y="727.0" text-anchor="start" font-size="9" fill="#8a93c4" letter-spacing="1">SCALE</text>
<text class="mono" x="766.0" y="727.0" text-anchor="start" font-size="9" fill="#edf0fc">0–120 · RINGS 20</text>
<text class="mono" x="714.0" y="748.0" text-anchor="start" font-size="9" fill="#8a93c4" letter-spacing="1">GATE</text>
<text class="mono" x="766.0" y="748.0" text-anchor="start" font-size="9" fill="#edf0fc">HIT@1 · DETERMINISTIC</text>
<text class="mono" x="714.0" y="769.0" text-anchor="start" font-size="9" fill="#8a93c4" letter-spacing="1">SHEET</text>
<text class="mono" x="766.0" y="769.0" text-anchor="start" font-size="9" fill="#edf0fc">RDR-01 · REV AUTO</text>
<text class="mono" x="48.0" y="798.0" text-anchor="start" font-size="10" fill="#8a93c4" letter-spacing="2">551 VERIFIED SKILLS · 85 LIVE PACKS · 1118 ROUTER TASKS</text>
<text class="mono" x="910.0" y="812.0" text-anchor="end" font-size="9.5" fill="#8a93c4" letter-spacing="1.5" opacity="0.9">AERO AGENT SKILLS · ASHFORDE OÜ</text>
</svg>
