<svg xmlns="http://www.w3.org/2000/svg" width="940" height="820" viewBox="0 0 940 820">
  <style>
    .mono { font-family: "JetBrains Mono", "IBM Plex Mono", "Menlo", monospace; }
    .cond { font-family: "Barlow Condensed", "DIN Condensed", "Arial Narrow", sans-serif; font-weight: 700; text-transform: uppercase; }
    .serif { font-family: "Instrument Serif", Georgia, serif; font-style: italic; }
  </style>
<rect width="940" height="820" fill="#0a0d1e"/>
<polygon points="430.0,344.5 462.8,353.3 486.7,377.2 495.5,410.0 486.7,442.8 462.8,466.7 430.0,475.5 397.2,466.7 373.3,442.8 364.5,410.0 373.3,377.2 397.2,353.3" fill="none" stroke="#2c3564" stroke-width="0.8" stroke-opacity="0.55"/>
<polygon points="430.0,279.0 495.5,296.6 543.4,344.5 561.0,410.0 543.4,475.5 495.5,523.4 430.0,541.0 364.5,523.4 316.6,475.5 299.0,410.0 316.6,344.5 364.5,296.6" fill="none" stroke="#2c3564" stroke-width="0.8" stroke-opacity="0.55"/>
<polygon points="430.0,213.5 528.2,239.8 600.2,311.8 626.5,410.0 600.2,508.2 528.2,580.2 430.0,606.5 331.8,580.2 259.8,508.2 233.5,410.0 259.8,311.8 331.7,239.8" fill="none" stroke="#2c3564" stroke-width="0.8" stroke-opacity="0.55"/>
<polygon points="430.0,148.0 561.0,183.1 656.9,279.0 692.0,410.0 656.9,541.0 561.0,636.9 430.0,672.0 299.0,636.9 203.1,541.0 168.0,410.0 203.1,279.0 299.0,183.1" fill="none" stroke="#2c3564" stroke-width="0.8" stroke-opacity="0.55"/>
<line x1="430" y1="410" x2="430.0" y2="148.0" stroke="#2c3564" stroke-width="0.8" stroke-opacity="0.4"/>
<line x1="430" y1="410" x2="561.0" y2="183.1" stroke="#2c3564" stroke-width="0.8" stroke-opacity="0.4"/>
<line x1="430" y1="410" x2="656.9" y2="279.0" stroke="#2c3564" stroke-width="0.8" stroke-opacity="0.4"/>
<line x1="430" y1="410" x2="692.0" y2="410.0" stroke="#2c3564" stroke-width="0.8" stroke-opacity="0.4"/>
<line x1="430" y1="410" x2="656.9" y2="541.0" stroke="#2c3564" stroke-width="0.8" stroke-opacity="0.4"/>
<line x1="430" y1="410" x2="561.0" y2="636.9" stroke="#2c3564" stroke-width="0.8" stroke-opacity="0.4"/>
<line x1="430" y1="410" x2="430.0" y2="672.0" stroke="#2c3564" stroke-width="0.8" stroke-opacity="0.4"/>
<line x1="430" y1="410" x2="299.0" y2="636.9" stroke="#2c3564" stroke-width="0.8" stroke-opacity="0.4"/>
<line x1="430" y1="410" x2="203.1" y2="541.0" stroke="#2c3564" stroke-width="0.8" stroke-opacity="0.4"/>
<line x1="430" y1="410" x2="168.0" y2="410.0" stroke="#2c3564" stroke-width="0.8" stroke-opacity="0.4"/>
<line x1="430" y1="410" x2="203.1" y2="279.0" stroke="#2c3564" stroke-width="0.8" stroke-opacity="0.4"/>
<line x1="430" y1="410" x2="299.0" y2="183.1" stroke="#2c3564" stroke-width="0.8" stroke-opacity="0.4"/>
<text class="mono" x="409.0" y="343.7" text-anchor="end" font-size="10" fill="#edf0fc" opacity="0.55">500</text>
<text class="mono" x="392.1" y="280.5" text-anchor="end" font-size="10" fill="#edf0fc" opacity="0.55">1000</text>
<text class="mono" x="375.1" y="217.2" text-anchor="end" font-size="10" fill="#edf0fc" opacity="0.55">1500</text>
<text class="mono" x="358.2" y="153.9" text-anchor="end" font-size="10" fill="#edf0fc" opacity="0.55">2000</text>
<text class="mono" x="430.0" y="122.0" text-anchor="middle" font-size="12" fill="#38bdf8" letter-spacing="1">AERODYNAMICS</text>
<text class="mono" x="571.0" y="159.8" text-anchor="start" font-size="12" fill="#a78bfa" letter-spacing="1">AVIONICS</text>
<text class="mono" x="674.2" y="263.0" text-anchor="start" font-size="12" fill="#f472b6" letter-spacing="1">CROSS-CUTTING</text>
<text class="mono" x="712.0" y="414.0" text-anchor="start" font-size="12" fill="#fb923c" letter-spacing="1">FLIGHT MECHANICS</text>
<text class="mono" x="674.2" y="563.0" text-anchor="start" font-size="12" fill="#38bdf8" letter-spacing="1">FLIGHT TEST &amp; OPS</text>
<text class="mono" x="571.0" y="666.2" text-anchor="start" font-size="12" fill="#a78bfa" letter-spacing="1">GNC &amp; AUTONOMY</text>
<text class="mono" x="430.0" y="704.0" text-anchor="middle" font-size="12" fill="#f472b6" letter-spacing="1">MANUFACTURING QUALITY</text>
<text class="mono" x="289.0" y="666.2" text-anchor="end" font-size="12" fill="#fb923c" letter-spacing="1">PROPULSION</text>
<text class="mono" x="185.8" y="563.0" text-anchor="end" font-size="12" fill="#38bdf8" letter-spacing="1">SPACE SYSTEMS</text>
<text class="mono" x="148.0" y="414.0" text-anchor="end" font-size="12" fill="#a78bfa" letter-spacing="1">STRUCTURES</text>
<text class="mono" x="185.8" y="263.0" text-anchor="end" font-size="12" fill="#f472b6" letter-spacing="1">SYSTEMS ENG &amp; SAFETY</text>
<text class="mono" x="289.0" y="159.8" text-anchor="end" font-size="12" fill="#fb923c" letter-spacing="1">VEHICLE DESIGN</text>
<polygon points="430.0,394.8 436.9,398.1 442.7,402.7 442.8,410.0 441.1,416.4 439.0,425.5 430.0,422.8 422.9,422.3 370.2,444.5 411.8,410.0 419.1,403.7 422.1,396.4" fill="#f472b6" fill-opacity="0.10" stroke="#f472b6" stroke-width="2.2"/>
<rect x="426.8" y="391.6" width="6.4" height="6.4" fill="#0a0d1e" stroke="#f472b6" stroke-width="1.6"/>
<rect x="433.7" y="394.9" width="6.4" height="6.4" fill="#0a0d1e" stroke="#f472b6" stroke-width="1.6"/>
<rect x="439.5" y="399.5" width="6.4" height="6.4" fill="#0a0d1e" stroke="#f472b6" stroke-width="1.6"/>
<rect x="439.6" y="406.8" width="6.4" height="6.4" fill="#0a0d1e" stroke="#f472b6" stroke-width="1.6"/>
<rect x="437.9" y="413.2" width="6.4" height="6.4" fill="#0a0d1e" stroke="#f472b6" stroke-width="1.6"/>
<rect x="435.8" y="422.3" width="6.4" height="6.4" fill="#0a0d1e" stroke="#f472b6" stroke-width="1.6"/>
<rect x="426.8" y="419.6" width="6.4" height="6.4" fill="#0a0d1e" stroke="#f472b6" stroke-width="1.6"/>
<rect x="419.7" y="419.1" width="6.4" height="6.4" fill="#0a0d1e" stroke="#f472b6" stroke-width="1.6"/>
<rect x="367.0" y="441.3" width="6.4" height="6.4" fill="#0a0d1e" stroke="#f472b6" stroke-width="1.6"/>
<rect x="408.6" y="406.8" width="6.4" height="6.4" fill="#0a0d1e" stroke="#f472b6" stroke-width="1.6"/>
<rect x="415.9" y="400.5" width="6.4" height="6.4" fill="#0a0d1e" stroke="#f472b6" stroke-width="1.6"/>
<rect x="418.9" y="393.2" width="6.4" height="6.4" fill="#0a0d1e" stroke="#f472b6" stroke-width="1.6"/>
<polygon points="430.0,402.5 433.3,404.2 436.4,406.3 436.4,410.0 435.6,413.2 434.5,417.7 430.0,416.3 426.5,416.1 251.4,513.1 421.0,410.0 424.7,406.9 426.1,403.3" fill="#38bdf8" fill-opacity="0.16" stroke="#38bdf8" stroke-width="2.6"/>
<circle cx="430.0" cy="402.5" r="3.6" fill="#38bdf8" stroke="#edf0fc" stroke-width="1.2"/>
<circle cx="433.3" cy="404.2" r="3.6" fill="#38bdf8" stroke="#edf0fc" stroke-width="1.2"/>
<circle cx="436.4" cy="406.3" r="3.6" fill="#38bdf8" stroke="#edf0fc" stroke-width="1.2"/>
<circle cx="436.4" cy="410.0" r="3.6" fill="#38bdf8" stroke="#edf0fc" stroke-width="1.2"/>
<circle cx="435.6" cy="413.2" r="3.6" fill="#38bdf8" stroke="#edf0fc" stroke-width="1.2"/>
<circle cx="434.5" cy="417.7" r="3.6" fill="#38bdf8" stroke="#edf0fc" stroke-width="1.2"/>
<circle cx="430.0" cy="416.3" r="3.6" fill="#38bdf8" stroke="#edf0fc" stroke-width="1.2"/>
<circle cx="426.5" cy="416.1" r="3.6" fill="#38bdf8" stroke="#edf0fc" stroke-width="1.2"/>
<circle cx="251.4" cy="513.1" r="3.6" fill="#38bdf8" stroke="#edf0fc" stroke-width="1.2"/>
<circle cx="421.0" cy="410.0" r="3.6" fill="#38bdf8" stroke="#edf0fc" stroke-width="1.2"/>
<circle cx="424.7" cy="406.9" r="3.6" fill="#38bdf8" stroke="#edf0fc" stroke-width="1.2"/>
<circle cx="426.1" cy="403.3" r="3.6" fill="#38bdf8" stroke="#edf0fc" stroke-width="1.2"/>
<text class="mono" x="430.0" y="383.8" text-anchor="middle" font-size="9.5" fill="#f472b6">116</text>
<text class="mono" x="443.9" y="389.0" text-anchor="middle" font-size="9.5" fill="#f472b6">105</text>
<text class="mono" x="454.8" y="398.7" text-anchor="middle" font-size="9.5" fill="#f472b6">112</text>
<text class="mono" x="456.8" y="413.0" text-anchor="middle" font-size="9.5" fill="#f472b6">98</text>
<text class="mono" x="453.2" y="426.4" text-anchor="middle" font-size="9.5" fill="#f472b6">98</text>
<text class="mono" x="446.0" y="440.7" text-anchor="middle" font-size="9.5" fill="#f472b6">137</text>
<text class="mono" x="430.0" y="439.8" text-anchor="middle" font-size="9.5" fill="#f472b6">98</text>
<text class="mono" x="415.9" y="437.4" text-anchor="middle" font-size="9.5" fill="#f472b6">108</text>
<text class="mono" x="358.1" y="454.5" text-anchor="middle" font-size="9.5" fill="#f472b6">527</text>
<text class="mono" x="397.8" y="413.0" text-anchor="middle" font-size="9.5" fill="#f472b6">139</text>
<text class="mono" x="407.0" y="399.7" text-anchor="middle" font-size="9.5" fill="#f472b6">96</text>
<text class="mono" x="415.1" y="387.3" text-anchor="middle" font-size="9.5" fill="#f472b6">120</text>
<text class="cond" x="910.0" y="74.0" text-anchor="end" font-size="34" fill="#edf0fc" letter-spacing="2">DOMAIN COVERAGE</text>
<text class="mono" x="910.0" y="100.0" text-anchor="end" font-size="11" fill="#8a93c4" letter-spacing="1">12 FAMILIES · SKILLS VS ROUTER ASSERTIONS</text>
<rect x="700" y="612" width="210" height="178" fill="#111632" stroke="#edf0fc" stroke-width="1.2"/>
<line x1="700" y1="686" x2="910" y2="686" stroke="#2c3564" stroke-width="0.8"/>
<circle cx="722" cy="636" r="4" fill="#38bdf8" stroke="#edf0fc" stroke-width="1.2"/>
<text class="mono" x="736.0" y="640.0" text-anchor="start" font-size="10.5" fill="#edf0fc">VERIFIED SKILLS · 2181</text>
<rect x="718" y="656" width="8" height="8" fill="none" stroke="#f472b6" stroke-width="1.6"/>
<text class="mono" x="736.0" y="664.0" text-anchor="start" font-size="10.5" fill="#edf0fc">ROUTER TASKS · 1754</text>
<text class="mono" x="714.0" y="706.0" text-anchor="start" font-size="9" fill="#8a93c4" letter-spacing="1">UNIT</text>
<text class="mono" x="766.0" y="706.0" text-anchor="start" font-size="9" fill="#edf0fc">COUNT PER FAMILY</text>
<text class="mono" x="714.0" y="727.0" text-anchor="start" font-size="9" fill="#8a93c4" letter-spacing="1">SCALE</text>
<text class="mono" x="766.0" y="727.0" text-anchor="start" font-size="9" fill="#edf0fc">0–2000 · RINGS 500</text>
<text class="mono" x="714.0" y="748.0" text-anchor="start" font-size="9" fill="#8a93c4" letter-spacing="1">GATE</text>
<text class="mono" x="766.0" y="748.0" text-anchor="start" font-size="9" fill="#edf0fc">HIT@1 · DETERMINISTIC</text>
<text class="mono" x="714.0" y="769.0" text-anchor="start" font-size="9" fill="#8a93c4" letter-spacing="1">SHEET</text>
<text class="mono" x="766.0" y="769.0" text-anchor="start" font-size="9" fill="#edf0fc">RDR-01 · REV AUTO</text>
<text class="mono" x="48.0" y="798.0" text-anchor="start" font-size="10" fill="#8a93c4" letter-spacing="2">2181 VERIFIED SKILLS · 86 LIVE PACKS · 1754 ROUTER TASKS</text>
<text class="mono" x="910.0" y="812.0" text-anchor="end" font-size="9.5" fill="#8a93c4" letter-spacing="1.5" opacity="0.9">AERO AGENT SKILLS · ASHFORDE OÜ</text>
</svg>
