<svg xmlns="http://www.w3.org/2000/svg" width="940" height="820" viewBox="0 0 940 820">
  <style>
    .mono { font-family: "JetBrains Mono", "IBM Plex Mono", "Menlo", monospace; }
    .cond { font-family: "Barlow Condensed", "DIN Condensed", "Arial Narrow", sans-serif; font-weight: 700; text-transform: uppercase; }
    .serif { font-family: "Instrument Serif", Georgia, serif; font-style: italic; }
  </style>
<rect width="940" height="820" fill="#0a0d1e"/>
<polygon points="430.0,344.5 462.8,353.3 486.7,377.2 495.5,410.0 486.7,442.8 462.8,466.7 430.0,475.5 397.2,466.7 373.3,442.8 364.5,410.0 373.3,377.2 397.2,353.3" fill="none" stroke="#2c3564" stroke-width="0.8" stroke-opacity="0.55"/>
<polygon points="430.0,279.0 495.5,296.6 543.4,344.5 561.0,410.0 543.4,475.5 495.5,523.4 430.0,541.0 364.5,523.4 316.6,475.5 299.0,410.0 316.6,344.5 364.5,296.6" fill="none" stroke="#2c3564" stroke-width="0.8" stroke-opacity="0.55"/>
<polygon points="430.0,213.5 528.2,239.8 600.2,311.8 626.5,410.0 600.2,508.2 528.2,580.2 430.0,606.5 331.8,580.2 259.8,508.2 233.5,410.0 259.8,311.8 331.7,239.8" fill="none" stroke="#2c3564" stroke-width="0.8" stroke-opacity="0.55"/>
<polygon points="430.0,148.0 561.0,183.1 656.9,279.0 692.0,410.0 656.9,541.0 561.0,636.9 430.0,672.0 299.0,636.9 203.1,541.0 168.0,410.0 203.1,279.0 299.0,183.1" fill="none" stroke="#2c3564" stroke-width="0.8" stroke-opacity="0.55"/>
<line x1="430" y1="410" x2="430.0" y2="148.0" stroke="#2c3564" stroke-width="0.8" stroke-opacity="0.4"/>
<line x1="430" y1="410" x2="561.0" y2="183.1" stroke="#2c3564" stroke-width="0.8" stroke-opacity="0.4"/>
<line x1="430" y1="410" x2="656.9" y2="279.0" stroke="#2c3564" stroke-width="0.8" stroke-opacity="0.4"/>
<line x1="430" y1="410" x2="692.0" y2="410.0" stroke="#2c3564" stroke-width="0.8" stroke-opacity="0.4"/>
<line x1="430" y1="410" x2="656.9" y2="541.0" stroke="#2c3564" stroke-width="0.8" stroke-opacity="0.4"/>
<line x1="430" y1="410" x2="561.0" y2="636.9" stroke="#2c3564" stroke-width="0.8" stroke-opacity="0.4"/>
<line x1="430" y1="410" x2="430.0" y2="672.0" stroke="#2c3564" stroke-width="0.8" stroke-opacity="0.4"/>
<line x1="430" y1="410" x2="299.0" y2="636.9" stroke="#2c3564" stroke-width="0.8" stroke-opacity="0.4"/>
<line x1="430" y1="410" x2="203.1" y2="541.0" stroke="#2c3564" stroke-width="0.8" stroke-opacity="0.4"/>
<line x1="430" y1="410" x2="168.0" y2="410.0" stroke="#2c3564" stroke-width="0.8" stroke-opacity="0.4"/>
<line x1="430" y1="410" x2="203.1" y2="279.0" stroke="#2c3564" stroke-width="0.8" stroke-opacity="0.4"/>
<line x1="430" y1="410" x2="299.0" y2="183.1" stroke="#2c3564" stroke-width="0.8" stroke-opacity="0.4"/>
<text class="mono" x="409.0" y="343.7" text-anchor="end" font-size="10" fill="#edf0fc" opacity="0.55">100</text>
<text class="mono" x="392.1" y="280.5" text-anchor="end" font-size="10" fill="#edf0fc" opacity="0.55">200</text>
<text class="mono" x="375.1" y="217.2" text-anchor="end" font-size="10" fill="#edf0fc" opacity="0.55">300</text>
<text class="mono" x="358.2" y="153.9" text-anchor="end" font-size="10" fill="#edf0fc" opacity="0.55">400</text>
<text class="mono" x="430.0" y="122.0" text-anchor="middle" font-size="12" fill="#38bdf8" letter-spacing="1">AERODYNAMICS</text>
<text class="mono" x="571.0" y="159.8" text-anchor="start" font-size="12" fill="#a78bfa" letter-spacing="1">AVIONICS</text>
<text class="mono" x="674.2" y="263.0" text-anchor="start" font-size="12" fill="#f472b6" letter-spacing="1">CROSS-CUTTING</text>
<text class="mono" x="712.0" y="414.0" text-anchor="start" font-size="12" fill="#fb923c" letter-spacing="1">FLIGHT MECHANICS</text>
<text class="mono" x="674.2" y="563.0" text-anchor="start" font-size="12" fill="#38bdf8" letter-spacing="1">FLIGHT TEST &amp; OPS</text>
<text class="mono" x="571.0" y="666.2" text-anchor="start" font-size="12" fill="#a78bfa" letter-spacing="1">GNC &amp; AUTONOMY</text>
<text class="mono" x="430.0" y="704.0" text-anchor="middle" font-size="12" fill="#f472b6" letter-spacing="1">MANUFACTURING QUALITY</text>
<text class="mono" x="289.0" y="666.2" text-anchor="end" font-size="12" fill="#fb923c" letter-spacing="1">PROPULSION</text>
<text class="mono" x="185.8" y="563.0" text-anchor="end" font-size="12" fill="#38bdf8" letter-spacing="1">SPACE SYSTEMS</text>
<text class="mono" x="148.0" y="414.0" text-anchor="end" font-size="12" fill="#a78bfa" letter-spacing="1">STRUCTURES</text>
<text class="mono" x="185.8" y="263.0" text-anchor="end" font-size="12" fill="#f472b6" letter-spacing="1">SYSTEMS ENG &amp; SAFETY</text>
<text class="mono" x="289.0" y="159.8" text-anchor="end" font-size="12" fill="#fb923c" letter-spacing="1">VEHICLE DESIGN</text>
<polygon points="430.0,334.0 464.4,350.4 493.5,373.3 494.2,410.0 485.6,442.1 474.9,487.7 430.0,474.2 394.6,471.3 254.7,511.2 339.0,410.0 375.5,378.6 390.7,341.9" fill="#f472b6" fill-opacity="0.10" stroke="#f472b6" stroke-width="2.2"/>
<rect x="426.8" y="330.8" width="6.4" height="6.4" fill="#0a0d1e" stroke="#f472b6" stroke-width="1.6"/>
<rect x="461.2" y="347.2" width="6.4" height="6.4" fill="#0a0d1e" stroke="#f472b6" stroke-width="1.6"/>
<rect x="490.3" y="370.1" width="6.4" height="6.4" fill="#0a0d1e" stroke="#f472b6" stroke-width="1.6"/>
<rect x="491.0" y="406.8" width="6.4" height="6.4" fill="#0a0d1e" stroke="#f472b6" stroke-width="1.6"/>
<rect x="482.4" y="438.9" width="6.4" height="6.4" fill="#0a0d1e" stroke="#f472b6" stroke-width="1.6"/>
<rect x="471.7" y="484.5" width="6.4" height="6.4" fill="#0a0d1e" stroke="#f472b6" stroke-width="1.6"/>
<rect x="426.8" y="471.0" width="6.4" height="6.4" fill="#0a0d1e" stroke="#f472b6" stroke-width="1.6"/>
<rect x="391.4" y="468.1" width="6.4" height="6.4" fill="#0a0d1e" stroke="#f472b6" stroke-width="1.6"/>
<rect x="251.5" y="508.0" width="6.4" height="6.4" fill="#0a0d1e" stroke="#f472b6" stroke-width="1.6"/>
<rect x="335.8" y="406.8" width="6.4" height="6.4" fill="#0a0d1e" stroke="#f472b6" stroke-width="1.6"/>
<rect x="372.3" y="375.4" width="6.4" height="6.4" fill="#0a0d1e" stroke="#f472b6" stroke-width="1.6"/>
<rect x="387.5" y="338.7" width="6.4" height="6.4" fill="#0a0d1e" stroke="#f472b6" stroke-width="1.6"/>
<polygon points="430.0,372.7 446.7,381.1 461.8,391.7 462.1,410.0 457.8,426.0 452.3,448.6 430.0,441.4 412.3,440.6 343.2,460.1 384.8,410.0 403.3,394.6 410.7,376.5" fill="#38bdf8" fill-opacity="0.16" stroke="#38bdf8" stroke-width="2.6"/>
<circle cx="430.0" cy="372.7" r="3.6" fill="#38bdf8" stroke="#edf0fc" stroke-width="1.2"/>
<circle cx="446.7" cy="381.1" r="3.6" fill="#38bdf8" stroke="#edf0fc" stroke-width="1.2"/>
<circle cx="461.8" cy="391.7" r="3.6" fill="#38bdf8" stroke="#edf0fc" stroke-width="1.2"/>
<circle cx="462.1" cy="410.0" r="3.6" fill="#38bdf8" stroke="#edf0fc" stroke-width="1.2"/>
<circle cx="457.8" cy="426.0" r="3.6" fill="#38bdf8" stroke="#edf0fc" stroke-width="1.2"/>
<circle cx="452.3" cy="448.6" r="3.6" fill="#38bdf8" stroke="#edf0fc" stroke-width="1.2"/>
<circle cx="430.0" cy="441.4" r="3.6" fill="#38bdf8" stroke="#edf0fc" stroke-width="1.2"/>
<circle cx="412.3" cy="440.6" r="3.6" fill="#38bdf8" stroke="#edf0fc" stroke-width="1.2"/>
<circle cx="343.2" cy="460.1" r="3.6" fill="#38bdf8" stroke="#edf0fc" stroke-width="1.2"/>
<circle cx="384.8" cy="410.0" r="3.6" fill="#38bdf8" stroke="#edf0fc" stroke-width="1.2"/>
<circle cx="403.3" cy="394.6" r="3.6" fill="#38bdf8" stroke="#edf0fc" stroke-width="1.2"/>
<circle cx="410.7" cy="376.5" r="3.6" fill="#38bdf8" stroke="#edf0fc" stroke-width="1.2"/>
<text class="mono" x="430.0" y="323.0" text-anchor="middle" font-size="9.5" fill="#f472b6">116</text>
<text class="mono" x="471.4" y="341.3" text-anchor="middle" font-size="9.5" fill="#f472b6">105</text>
<text class="mono" x="505.7" y="369.3" text-anchor="middle" font-size="9.5" fill="#f472b6">112</text>
<text class="mono" x="508.2" y="413.0" text-anchor="middle" font-size="9.5" fill="#f472b6">98</text>
<text class="mono" x="497.7" y="452.1" text-anchor="middle" font-size="9.5" fill="#f472b6">98</text>
<text class="mono" x="481.9" y="502.8" text-anchor="middle" font-size="9.5" fill="#f472b6">137</text>
<text class="mono" x="430.0" y="491.2" text-anchor="middle" font-size="9.5" fill="#f472b6">98</text>
<text class="mono" x="387.6" y="486.4" text-anchor="middle" font-size="9.5" fill="#f472b6">108</text>
<text class="mono" x="242.6" y="521.2" text-anchor="middle" font-size="9.5" fill="#f472b6">309</text>
<text class="mono" x="325.0" y="413.0" text-anchor="middle" font-size="9.5" fill="#f472b6">139</text>
<text class="mono" x="363.4" y="374.6" text-anchor="middle" font-size="9.5" fill="#f472b6">96</text>
<text class="mono" x="383.7" y="332.8" text-anchor="middle" font-size="9.5" fill="#f472b6">120</text>
<text class="cond" x="910.0" y="74.0" text-anchor="end" font-size="34" fill="#edf0fc" letter-spacing="2">DOMAIN COVERAGE</text>
<text class="mono" x="910.0" y="100.0" text-anchor="end" font-size="11" fill="#8a93c4" letter-spacing="1">12 FAMILIES · SKILLS VS ROUTER ASSERTIONS</text>
<rect x="700" y="612" width="210" height="178" fill="#111632" stroke="#edf0fc" stroke-width="1.2"/>
<line x1="700" y1="686" x2="910" y2="686" stroke="#2c3564" stroke-width="0.8"/>
<circle cx="722" cy="636" r="4" fill="#38bdf8" stroke="#edf0fc" stroke-width="1.2"/>
<text class="mono" x="736.0" y="640.0" text-anchor="start" font-size="10.5" fill="#edf0fc">VERIFIED SKILLS · 760</text>
<rect x="718" y="656" width="8" height="8" fill="none" stroke="#f472b6" stroke-width="1.6"/>
<text class="mono" x="736.0" y="664.0" text-anchor="start" font-size="10.5" fill="#edf0fc">ROUTER TASKS · 1536</text>
<text class="mono" x="714.0" y="706.0" text-anchor="start" font-size="9" fill="#8a93c4" letter-spacing="1">UNIT</text>
<text class="mono" x="766.0" y="706.0" text-anchor="start" font-size="9" fill="#edf0fc">COUNT PER FAMILY</text>
<text class="mono" x="714.0" y="727.0" text-anchor="start" font-size="9" fill="#8a93c4" letter-spacing="1">SCALE</text>
<text class="mono" x="766.0" y="727.0" text-anchor="start" font-size="9" fill="#edf0fc">0–400 · RINGS 100</text>
<text class="mono" x="714.0" y="748.0" text-anchor="start" font-size="9" fill="#8a93c4" letter-spacing="1">GATE</text>
<text class="mono" x="766.0" y="748.0" text-anchor="start" font-size="9" fill="#edf0fc">HIT@1 · DETERMINISTIC</text>
<text class="mono" x="714.0" y="769.0" text-anchor="start" font-size="9" fill="#8a93c4" letter-spacing="1">SHEET</text>
<text class="mono" x="766.0" y="769.0" text-anchor="start" font-size="9" fill="#edf0fc">RDR-01 · REV AUTO</text>
<text class="mono" x="48.0" y="798.0" text-anchor="start" font-size="10" fill="#8a93c4" letter-spacing="2">760 VERIFIED SKILLS · 86 LIVE PACKS · 1536 ROUTER TASKS</text>
<text class="mono" x="910.0" y="812.0" text-anchor="end" font-size="9.5" fill="#8a93c4" letter-spacing="1.5" opacity="0.9">AERO AGENT SKILLS · ASHFORDE OÜ</text>
</svg>
