<svg xmlns="http://www.w3.org/2000/svg" width="940" height="820" viewBox="0 0 940 820">
  <style>
    .mono { font-family: "JetBrains Mono", "IBM Plex Mono", "Menlo", monospace; }
    .cond { font-family: "Barlow Condensed", "DIN Condensed", "Arial Narrow", sans-serif; font-weight: 700; text-transform: uppercase; }
    .serif { font-family: "Instrument Serif", Georgia, serif; font-style: italic; }
  </style>
<rect width="940" height="820" fill="#0a0d1e"/>
<polygon points="430.0,322.7 473.7,334.4 505.6,366.3 517.3,410.0 505.6,453.7 473.7,485.6 430.0,497.3 386.3,485.6 354.4,453.7 342.7,410.0 354.4,366.3 386.3,334.4" fill="none" stroke="#2c3564" stroke-width="0.8" stroke-opacity="0.55"/>
<polygon points="430.0,235.3 517.3,258.7 581.3,322.7 604.7,410.0 581.3,497.3 517.3,561.3 430.0,584.7 342.7,561.3 278.7,497.3 255.3,410.0 278.7,322.7 342.7,258.7" fill="none" stroke="#2c3564" stroke-width="0.8" stroke-opacity="0.55"/>
<polygon points="430.0,148.0 561.0,183.1 656.9,279.0 692.0,410.0 656.9,541.0 561.0,636.9 430.0,672.0 299.0,636.9 203.1,541.0 168.0,410.0 203.1,279.0 299.0,183.1" fill="none" stroke="#2c3564" stroke-width="0.8" stroke-opacity="0.55"/>
<line x1="430" y1="410" x2="430.0" y2="148.0" stroke="#2c3564" stroke-width="0.8" stroke-opacity="0.4"/>
<line x1="430" y1="410" x2="561.0" y2="183.1" stroke="#2c3564" stroke-width="0.8" stroke-opacity="0.4"/>
<line x1="430" y1="410" x2="656.9" y2="279.0" stroke="#2c3564" stroke-width="0.8" stroke-opacity="0.4"/>
<line x1="430" y1="410" x2="692.0" y2="410.0" stroke="#2c3564" stroke-width="0.8" stroke-opacity="0.4"/>
<line x1="430" y1="410" x2="656.9" y2="541.0" stroke="#2c3564" stroke-width="0.8" stroke-opacity="0.4"/>
<line x1="430" y1="410" x2="561.0" y2="636.9" stroke="#2c3564" stroke-width="0.8" stroke-opacity="0.4"/>
<line x1="430" y1="410" x2="430.0" y2="672.0" stroke="#2c3564" stroke-width="0.8" stroke-opacity="0.4"/>
<line x1="430" y1="410" x2="299.0" y2="636.9" stroke="#2c3564" stroke-width="0.8" stroke-opacity="0.4"/>
<line x1="430" y1="410" x2="203.1" y2="541.0" stroke="#2c3564" stroke-width="0.8" stroke-opacity="0.4"/>
<line x1="430" y1="410" x2="168.0" y2="410.0" stroke="#2c3564" stroke-width="0.8" stroke-opacity="0.4"/>
<line x1="430" y1="410" x2="203.1" y2="279.0" stroke="#2c3564" stroke-width="0.8" stroke-opacity="0.4"/>
<line x1="430" y1="410" x2="299.0" y2="183.1" stroke="#2c3564" stroke-width="0.8" stroke-opacity="0.4"/>
<text class="mono" x="403.4" y="322.6" text-anchor="end" font-size="10" fill="#edf0fc" opacity="0.55">500</text>
<text class="mono" x="380.8" y="238.3" text-anchor="end" font-size="10" fill="#edf0fc" opacity="0.55">1000</text>
<text class="mono" x="358.2" y="153.9" text-anchor="end" font-size="10" fill="#edf0fc" opacity="0.55">1500</text>
<text class="mono" x="430.0" y="122.0" text-anchor="middle" font-size="12" fill="#38bdf8" letter-spacing="1">AERODYNAMICS</text>
<text class="mono" x="571.0" y="159.8" text-anchor="start" font-size="12" fill="#a78bfa" letter-spacing="1">AVIONICS</text>
<text class="mono" x="674.2" y="263.0" text-anchor="start" font-size="12" fill="#f472b6" letter-spacing="1">CROSS-CUTTING</text>
<text class="mono" x="712.0" y="414.0" text-anchor="start" font-size="12" fill="#fb923c" letter-spacing="1">FLIGHT MECHANICS</text>
<text class="mono" x="674.2" y="563.0" text-anchor="start" font-size="12" fill="#38bdf8" letter-spacing="1">FLIGHT TEST &amp; OPS</text>
<text class="mono" x="571.0" y="666.2" text-anchor="start" font-size="12" fill="#a78bfa" letter-spacing="1">GNC &amp; AUTONOMY</text>
<text class="mono" x="430.0" y="704.0" text-anchor="middle" font-size="12" fill="#f472b6" letter-spacing="1">MANUFACTURING QUALITY</text>
<text class="mono" x="289.0" y="666.2" text-anchor="end" font-size="12" fill="#fb923c" letter-spacing="1">PROPULSION</text>
<text class="mono" x="185.8" y="563.0" text-anchor="end" font-size="12" fill="#38bdf8" letter-spacing="1">SPACE SYSTEMS</text>
<text class="mono" x="148.0" y="414.0" text-anchor="end" font-size="12" fill="#a78bfa" letter-spacing="1">STRUCTURES</text>
<text class="mono" x="185.8" y="263.0" text-anchor="end" font-size="12" fill="#f472b6" letter-spacing="1">SYSTEMS ENG &amp; SAFETY</text>
<text class="mono" x="289.0" y="159.8" text-anchor="end" font-size="12" fill="#fb923c" letter-spacing="1">VEHICLE DESIGN</text>
<polygon points="430.0,389.7 439.2,394.1 446.9,400.2 447.1,410.0 444.8,418.6 442.0,430.7 430.0,427.1 420.6,426.3 350.3,456.0 405.7,410.0 415.5,401.6 419.5,391.8" fill="#f472b6" fill-opacity="0.10" stroke="#f472b6" stroke-width="2.2"/>
<rect x="426.8" y="386.5" width="6.4" height="6.4" fill="#0a0d1e" stroke="#f472b6" stroke-width="1.6"/>
<rect x="436.0" y="390.9" width="6.4" height="6.4" fill="#0a0d1e" stroke="#f472b6" stroke-width="1.6"/>
<rect x="443.7" y="397.0" width="6.4" height="6.4" fill="#0a0d1e" stroke="#f472b6" stroke-width="1.6"/>
<rect x="443.9" y="406.8" width="6.4" height="6.4" fill="#0a0d1e" stroke="#f472b6" stroke-width="1.6"/>
<rect x="441.6" y="415.4" width="6.4" height="6.4" fill="#0a0d1e" stroke="#f472b6" stroke-width="1.6"/>
<rect x="438.8" y="427.5" width="6.4" height="6.4" fill="#0a0d1e" stroke="#f472b6" stroke-width="1.6"/>
<rect x="426.8" y="423.9" width="6.4" height="6.4" fill="#0a0d1e" stroke="#f472b6" stroke-width="1.6"/>
<rect x="417.4" y="423.1" width="6.4" height="6.4" fill="#0a0d1e" stroke="#f472b6" stroke-width="1.6"/>
<rect x="347.1" y="452.8" width="6.4" height="6.4" fill="#0a0d1e" stroke="#f472b6" stroke-width="1.6"/>
<rect x="402.5" y="406.8" width="6.4" height="6.4" fill="#0a0d1e" stroke="#f472b6" stroke-width="1.6"/>
<rect x="412.3" y="398.4" width="6.4" height="6.4" fill="#0a0d1e" stroke="#f472b6" stroke-width="1.6"/>
<rect x="416.3" y="388.6" width="6.4" height="6.4" fill="#0a0d1e" stroke="#f472b6" stroke-width="1.6"/>
<polygon points="430.0,400.0 434.5,402.3 438.5,405.1 438.6,410.0 437.4,414.3 435.9,420.3 430.0,418.4 425.3,418.2 225.8,527.9 417.9,410.0 422.9,405.9 424.8,401.1" fill="#38bdf8" fill-opacity="0.16" stroke="#38bdf8" stroke-width="2.6"/>
<circle cx="430.0" cy="400.0" r="3.6" fill="#38bdf8" stroke="#edf0fc" stroke-width="1.2"/>
<circle cx="434.5" cy="402.3" r="3.6" fill="#38bdf8" stroke="#edf0fc" stroke-width="1.2"/>
<circle cx="438.5" cy="405.1" r="3.6" fill="#38bdf8" stroke="#edf0fc" stroke-width="1.2"/>
<circle cx="438.6" cy="410.0" r="3.6" fill="#38bdf8" stroke="#edf0fc" stroke-width="1.2"/>
<circle cx="437.4" cy="414.3" r="3.6" fill="#38bdf8" stroke="#edf0fc" stroke-width="1.2"/>
<circle cx="435.9" cy="420.3" r="3.6" fill="#38bdf8" stroke="#edf0fc" stroke-width="1.2"/>
<circle cx="430.0" cy="418.4" r="3.6" fill="#38bdf8" stroke="#edf0fc" stroke-width="1.2"/>
<circle cx="425.3" cy="418.2" r="3.6" fill="#38bdf8" stroke="#edf0fc" stroke-width="1.2"/>
<circle cx="225.8" cy="527.9" r="3.6" fill="#38bdf8" stroke="#edf0fc" stroke-width="1.2"/>
<circle cx="417.9" cy="410.0" r="3.6" fill="#38bdf8" stroke="#edf0fc" stroke-width="1.2"/>
<circle cx="422.9" cy="405.9" r="3.6" fill="#38bdf8" stroke="#edf0fc" stroke-width="1.2"/>
<circle cx="424.8" cy="401.1" r="3.6" fill="#38bdf8" stroke="#edf0fc" stroke-width="1.2"/>
<text class="mono" x="430.0" y="378.7" text-anchor="middle" font-size="9.5" fill="#f472b6">116</text>
<text class="mono" x="446.2" y="385.0" text-anchor="middle" font-size="9.5" fill="#f472b6">105</text>
<text class="mono" x="459.1" y="396.2" text-anchor="middle" font-size="9.5" fill="#f472b6">112</text>
<text class="mono" x="461.1" y="413.0" text-anchor="middle" font-size="9.5" fill="#f472b6">98</text>
<text class="mono" x="456.9" y="428.6" text-anchor="middle" font-size="9.5" fill="#f472b6">98</text>
<text class="mono" x="449.0" y="445.8" text-anchor="middle" font-size="9.5" fill="#f472b6">137</text>
<text class="mono" x="430.0" y="444.1" text-anchor="middle" font-size="9.5" fill="#f472b6">98</text>
<text class="mono" x="413.6" y="441.5" text-anchor="middle" font-size="9.5" fill="#f472b6">108</text>
<text class="mono" x="338.2" y="466.0" text-anchor="middle" font-size="9.5" fill="#f472b6">527</text>
<text class="mono" x="391.7" y="413.0" text-anchor="middle" font-size="9.5" fill="#f472b6">139</text>
<text class="mono" x="403.4" y="397.6" text-anchor="middle" font-size="9.5" fill="#f472b6">96</text>
<text class="mono" x="412.5" y="382.7" text-anchor="middle" font-size="9.5" fill="#f472b6">120</text>
<text class="cond" x="910.0" y="74.0" text-anchor="end" font-size="34" fill="#edf0fc" letter-spacing="2">DOMAIN COVERAGE</text>
<text class="mono" x="910.0" y="100.0" text-anchor="end" font-size="11" fill="#8a93c4" letter-spacing="1">12 FAMILIES · SKILLS VS ROUTER ASSERTIONS</text>
<rect x="700" y="612" width="210" height="178" fill="#111632" stroke="#edf0fc" stroke-width="1.2"/>
<line x1="700" y1="686" x2="910" y2="686" stroke="#2c3564" stroke-width="0.8"/>
<circle cx="722" cy="636" r="4" fill="#38bdf8" stroke="#edf0fc" stroke-width="1.2"/>
<text class="mono" x="736.0" y="640.0" text-anchor="start" font-size="10.5" fill="#edf0fc">VERIFIED SKILLS · 1957</text>
<rect x="718" y="656" width="8" height="8" fill="none" stroke="#f472b6" stroke-width="1.6"/>
<text class="mono" x="736.0" y="664.0" text-anchor="start" font-size="10.5" fill="#edf0fc">ROUTER TASKS · 1754</text>
<text class="mono" x="714.0" y="706.0" text-anchor="start" font-size="9" fill="#8a93c4" letter-spacing="1">UNIT</text>
<text class="mono" x="766.0" y="706.0" text-anchor="start" font-size="9" fill="#edf0fc">COUNT PER FAMILY</text>
<text class="mono" x="714.0" y="727.0" text-anchor="start" font-size="9" fill="#8a93c4" letter-spacing="1">SCALE</text>
<text class="mono" x="766.0" y="727.0" text-anchor="start" font-size="9" fill="#edf0fc">0–1500 · RINGS 500</text>
<text class="mono" x="714.0" y="748.0" text-anchor="start" font-size="9" fill="#8a93c4" letter-spacing="1">GATE</text>
<text class="mono" x="766.0" y="748.0" text-anchor="start" font-size="9" fill="#edf0fc">HIT@1 · DETERMINISTIC</text>
<text class="mono" x="714.0" y="769.0" text-anchor="start" font-size="9" fill="#8a93c4" letter-spacing="1">SHEET</text>
<text class="mono" x="766.0" y="769.0" text-anchor="start" font-size="9" fill="#edf0fc">RDR-01 · REV AUTO</text>
<text class="mono" x="48.0" y="798.0" text-anchor="start" font-size="10" fill="#8a93c4" letter-spacing="2">1957 VERIFIED SKILLS · 86 LIVE PACKS · 1754 ROUTER TASKS</text>
<text class="mono" x="910.0" y="812.0" text-anchor="end" font-size="9.5" fill="#8a93c4" letter-spacing="1.5" opacity="0.9">AERO AGENT SKILLS · ASHFORDE OÜ</text>
</svg>
