<svg xmlns="http://www.w3.org/2000/svg" width="1600" height="660" viewBox="0 0 1600 660">
  <style>
    .disp { font-family: "Barlow Condensed", "DIN Condensed", "Arial Narrow", sans-serif; font-weight: 700; text-transform: uppercase; }
    .mono { font-family: "JetBrains Mono", "IBM Plex Mono", "Menlo", monospace; }
  </style>
  <rect width="1600" height="660" fill="#000000"/>
  <rect x="20" y="20" width="1560" height="620" fill="none" stroke="#1a1a1e" stroke-width="1"/>
  <text class="mono" x="40" y="46" font-size="11" fill="#545457" letter-spacing="3">AEROSKILLS // DOMAIN MAP</text>
  <text class="mono" x="1560" y="46" text-anchor="end" font-size="11" fill="#545457" letter-spacing="3">12 FAMILIES · 61 PACKS · 270 SKILLS · TARGET 73×20=1,460</text>
  <rect x="28" y="70" width="380" height="190" fill="#0a0a0c" stroke="#1f1f21" stroke-width="1"/>
  <text class="mono" x="42" y="98" font-size="12" fill="#f0f0fa" letter-spacing="3">AERODYNAMICS</text>
  <text class="mono" x="394" y="98" text-anchor="end" font-size="11" fill="#545457" letter-spacing="2">23 SKILLS</text>
  <line x1="42" y1="106" x2="394" y2="106" stroke="#1f1f21" stroke-width="1"/>
  <rect x="42" y="120" width="82.5" height="20" fill="none" stroke="#3c3d3e" stroke-width="1"/>
  <text class="mono" x="48" y="133" font-size="10" letter-spacing="1" fill="#cececf">airfoil <tspan fill="#f0f0fa">4</tspan></text>
  <rect x="130.5" y="120" width="135.0" height="20" fill="none" stroke="#3c3d3e" stroke-width="1"/>
  <text class="mono" x="136.5" y="133" font-size="10" letter-spacing="1" fill="#cececf">boundary-layer <tspan fill="#f0f0fa">1</tspan></text>
  <rect x="271.5" y="120" width="52.5" height="20" fill="none" stroke="#3c3d3e" stroke-width="1"/>
  <text class="mono" x="277.5" y="133" font-size="10" letter-spacing="1" fill="#cececf">cfd <tspan fill="#f0f0fa">5</tspan></text>
  <rect x="42" y="146" width="112.5" height="20" fill="none" stroke="#3c3d3e" stroke-width="1"/>
  <text class="mono" x="48" y="159" font-size="10" letter-spacing="1" fill="#cececf">drag-polars <tspan fill="#f0f0fa">3</tspan></text>
  <rect x="160.5" y="146" width="135.0" height="20" fill="none" stroke="#3c3d3e" stroke-width="1"/>
  <text class="mono" x="166.5" y="159" font-size="10" letter-spacing="1" fill="#cececf">ground-effects <tspan fill="#f0f0fa">1</tspan></text>
  <rect x="42" y="172" width="97.5" height="20" fill="none" stroke="#3c3d3e" stroke-width="1"/>
  <text class="mono" x="48" y="185" font-size="10" letter-spacing="1" fill="#cececf">high-lift <tspan fill="#f0f0fa">1</tspan></text>
  <rect x="145.5" y="172" width="105.0" height="20" fill="none" stroke="#3c3d3e" stroke-width="1"/>
  <text class="mono" x="151.5" y="185" font-size="10" letter-spacing="1" fill="#cececf">high-speed <tspan fill="#f0f0fa">7</tspan></text>
  <rect x="256.5" y="172" width="112.5" height="20" fill="none" stroke="#3c3d3e" stroke-width="1"/>
  <text class="mono" x="262.5" y="185" font-size="10" letter-spacing="1" fill="#cececf">wing-design <tspan fill="#f0f0fa">1</tspan></text>
  <rect x="424" y="70" width="380" height="190" fill="#0a0a0c" stroke="#1f1f21" stroke-width="1"/>
  <text class="mono" x="438" y="98" font-size="12" fill="#f0f0fa" letter-spacing="3">AVIONICS</text>
  <text class="mono" x="790" y="98" text-anchor="end" font-size="11" fill="#545457" letter-spacing="2">23 SKILLS</text>
  <line x1="438" y1="106" x2="790" y2="106" stroke="#1f1f21" stroke-width="1"/>
  <rect x="438" y="120" width="90.0" height="20" fill="none" stroke="#3c3d3e" stroke-width="1"/>
  <text class="mono" x="444" y="133" font-size="10" letter-spacing="1" fill="#cececf">data-bus <tspan fill="#f0f0fa">3</tspan></text>
  <rect x="534.0" y="120" width="67.5" height="20" fill="none" stroke="#3c3d3e" stroke-width="1"/>
  <text class="mono" x="540.0" y="133" font-size="10" letter-spacing="1" fill="#cececf">do160 <tspan fill="#f0f0fa">5</tspan></text>
  <rect x="607.5" y="120" width="75.0" height="20" fill="none" stroke="#3c3d3e" stroke-width="1"/>
  <text class="mono" x="613.5" y="133" font-size="10" letter-spacing="1" fill="#cececf">do178c <tspan fill="#f0f0fa">7</tspan></text>
  <rect x="688.5" y="120" width="67.5" height="20" fill="none" stroke="#3c3d3e" stroke-width="1"/>
  <text class="mono" x="694.5" y="133" font-size="10" letter-spacing="1" fill="#cececf">do254 <tspan fill="#f0f0fa">4</tspan></text>
  <rect x="438" y="146" width="90.0" height="20" fill="none" stroke="#3c3d3e" stroke-width="1"/>
  <text class="mono" x="444" y="159" font-size="10" letter-spacing="1" fill="#cececf">far-cs25 <tspan fill="#f0f0fa">2</tspan></text>
  <rect x="534.0" y="146" width="157.5" height="20" fill="none" stroke="#3c3d3e" stroke-width="1"/>
  <text class="mono" x="540.0" y="159" font-size="10" letter-spacing="1" fill="#cececf">flight-management <tspan fill="#f0f0fa">2</tspan></text>
  <rect x="820" y="70" width="380" height="190" fill="#0a0a0c" stroke="#1f1f21" stroke-width="1"/>
  <text class="mono" x="834" y="98" font-size="12" fill="#f0f0fa" letter-spacing="3">CROSS CUTTING</text>
  <text class="mono" x="1186" y="98" text-anchor="end" font-size="11" fill="#545457" letter-spacing="2">23 SKILLS</text>
  <line x1="834" y1="106" x2="1186" y2="106" stroke="#1f1f21" stroke-width="1"/>
  <rect x="834" y="120" width="127.5" height="20" fill="none" stroke="#3c3d3e" stroke-width="1"/>
  <text class="mono" x="840" y="133" font-size="10" letter-spacing="1" fill="#cececf">documentation <tspan fill="#f0f0fa">2</tspan></text>
  <rect x="967.5" y="120" width="90.0" height="20" fill="none" stroke="#3c3d3e" stroke-width="1"/>
  <text class="mono" x="973.5" y="133" font-size="10" letter-spacing="1" fill="#cececf">numerics <tspan fill="#f0f0fa">12</tspan></text>
  <rect x="1063.5" y="120" width="82.5" height="20" fill="none" stroke="#3c3d3e" stroke-width="1"/>
  <text class="mono" x="1069.5" y="133" font-size="10" letter-spacing="1" fill="#cececf">sep2640 <tspan fill="#f0f0fa">3</tspan></text>
  <rect x="834" y="146" width="112.5" height="20" fill="none" stroke="#3c3d3e" stroke-width="1"/>
  <text class="mono" x="840" y="159" font-size="10" letter-spacing="1" fill="#cececf">tolerancing <tspan fill="#f0f0fa">2</tspan></text>
  <rect x="952.5" y="146" width="112.5" height="20" fill="none" stroke="#3c3d3e" stroke-width="1"/>
  <text class="mono" x="958.5" y="159" font-size="10" letter-spacing="1" fill="#cececf">units-atmos <tspan fill="#f0f0fa">4</tspan></text>
  <rect x="1216" y="70" width="380" height="190" fill="#0a0a0c" stroke="#1f1f21" stroke-width="1"/>
  <text class="mono" x="1230" y="98" font-size="12" fill="#f0f0fa" letter-spacing="3">FLIGHT MECHANICS</text>
  <text class="mono" x="1582" y="98" text-anchor="end" font-size="11" fill="#545457" letter-spacing="2">22 SKILLS</text>
  <line x1="1230" y1="106" x2="1582" y2="106" stroke="#1f1f21" stroke-width="1"/>
  <rect x="1230" y="120" width="165.0" height="20" fill="none" stroke="#3c3d3e" stroke-width="1"/>
  <text class="mono" x="1236" y="133" font-size="10" letter-spacing="1" fill="#cececf">handling-qualities <tspan fill="#f0f0fa">2</tspan></text>
  <rect x="1401.0" y="120" width="112.5" height="20" fill="none" stroke="#3c3d3e" stroke-width="1"/>
  <text class="mono" x="1407.0" y="133" font-size="10" letter-spacing="1" fill="#cececf">performance <tspan fill="#f0f0fa">13</tspan></text>
  <rect x="1230" y="146" width="157.5" height="20" fill="none" stroke="#3c3d3e" stroke-width="1"/>
  <text class="mono" x="1236" y="159" font-size="10" letter-spacing="1" fill="#cececf">stability-control <tspan fill="#f0f0fa">7</tspan></text>
  <rect x="28" y="276" width="380" height="190" fill="#0a0a0c" stroke="#1f1f21" stroke-width="1"/>
  <text class="mono" x="42" y="304" font-size="12" fill="#f0f0fa" letter-spacing="3">FLIGHT TEST OPERATIONS</text>
  <text class="mono" x="394" y="304" text-anchor="end" font-size="11" fill="#545457" letter-spacing="2">23 SKILLS</text>
  <line x1="42" y1="312" x2="394" y2="312" stroke="#1f1f21" stroke-width="1"/>
  <rect x="42" y="326" width="90.0" height="20" fill="none" stroke="#3c3d3e" stroke-width="1"/>
  <text class="mono" x="48" y="339" font-size="10" letter-spacing="1" fill="#cececf">envelope <tspan fill="#f0f0fa">6</tspan></text>
  <rect x="138.0" y="326" width="82.5" height="20" fill="none" stroke="#3c3d3e" stroke-width="1"/>
  <text class="mono" x="144.0" y="339" font-size="10" letter-spacing="1" fill="#cececf">flutter <tspan fill="#f0f0fa">3</tspan></text>
  <rect x="226.5" y="326" width="112.5" height="20" fill="none" stroke="#3c3d3e" stroke-width="1"/>
  <text class="mono" x="232.5" y="339" font-size="10" letter-spacing="1" fill="#cececf">performance <tspan fill="#f0f0fa">7</tspan></text>
  <rect x="42" y="352" width="90.0" height="20" fill="none" stroke="#3c3d3e" stroke-width="1"/>
  <text class="mono" x="48" y="365" font-size="10" letter-spacing="1" fill="#cececf">planning <tspan fill="#f0f0fa">6</tspan></text>
  <rect x="138.0" y="352" width="97.5" height="20" fill="none" stroke="#3c3d3e" stroke-width="1"/>
  <text class="mono" x="144.0" y="365" font-size="10" letter-spacing="1" fill="#cececf">stability <tspan fill="#f0f0fa">1</tspan></text>
  <rect x="424" y="276" width="380" height="190" fill="#0a0a0c" stroke="#1f1f21" stroke-width="1"/>
  <text class="mono" x="438" y="304" font-size="12" fill="#f0f0fa" letter-spacing="3">GNC AUTONOMY</text>
  <text class="mono" x="790" y="304" text-anchor="end" font-size="11" fill="#545457" letter-spacing="2">22 SKILLS</text>
  <line x1="438" y1="312" x2="790" y2="312" stroke="#1f1f21" stroke-width="1"/>
  <rect x="438" y="326" width="82.5" height="20" fill="none" stroke="#3c3d3e" stroke-width="1"/>
  <text class="mono" x="444" y="339" font-size="10" letter-spacing="1" fill="#cececf">control <tspan fill="#f0f0fa">8</tspan></text>
  <rect x="526.5" y="326" width="90.0" height="20" fill="none" stroke="#3c3d3e" stroke-width="1"/>
  <text class="mono" x="532.5" y="339" font-size="10" letter-spacing="1" fill="#cececf">guidance <tspan fill="#f0f0fa">5</tspan></text>
  <rect x="622.5" y="326" width="105.0" height="20" fill="none" stroke="#3c3d3e" stroke-width="1"/>
  <text class="mono" x="628.5" y="339" font-size="10" letter-spacing="1" fill="#cececf">navigation <tspan fill="#f0f0fa">4</tspan></text>
  <rect x="438" y="352" width="142.5" height="20" fill="none" stroke="#3c3d3e" stroke-width="1"/>
  <text class="mono" x="444" y="365" font-size="10" letter-spacing="1" fill="#cececf">optimal-control <tspan fill="#f0f0fa">2</tspan></text>
  <rect x="586.5" y="352" width="67.5" height="20" fill="none" stroke="#3c3d3e" stroke-width="1"/>
  <text class="mono" x="592.5" y="365" font-size="10" letter-spacing="1" fill="#cececf">space <tspan fill="#f0f0fa">3</tspan></text>
  <rect x="820" y="276" width="380" height="190" fill="#0a0a0c" stroke="#1f1f21" stroke-width="1"/>
  <text class="mono" x="834" y="304" font-size="12" fill="#f0f0fa" letter-spacing="3">MANUFACTURING QUALITY</text>
  <text class="mono" x="1186" y="304" text-anchor="end" font-size="11" fill="#545457" letter-spacing="2">23 SKILLS</text>
  <line x1="834" y1="312" x2="1186" y2="312" stroke="#1f1f21" stroke-width="1"/>
  <rect x="834" y="326" width="75.0" height="20" fill="none" stroke="#3c3d3e" stroke-width="1"/>
  <text class="mono" x="840" y="339" font-size="10" letter-spacing="1" fill="#cececf">as9100 <tspan fill="#f0f0fa">10</tspan></text>
  <rect x="915.0" y="326" width="75.0" height="20" fill="none" stroke="#3c3d3e" stroke-width="1"/>
  <text class="mono" x="921.0" y="339" font-size="10" letter-spacing="1" fill="#cececf">as9102 <tspan fill="#f0f0fa">4</tspan></text>
  <rect x="996.0" y="326" width="52.5" height="20" fill="none" stroke="#3c3d3e" stroke-width="1"/>
  <text class="mono" x="1002.0" y="339" font-size="10" letter-spacing="1" fill="#cececf">ndt <tspan fill="#f0f0fa">8</tspan></text>
  <rect x="834" y="352" width="157.5" height="20" fill="none" stroke="#3c3d3e" stroke-width="1"/>
  <text class="mono" x="840" y="365" font-size="10" letter-spacing="1" fill="#cececf">special-processes <tspan fill="#f0f0fa">1</tspan></text>
  <rect x="1216" y="276" width="380" height="190" fill="#0a0a0c" stroke="#1f1f21" stroke-width="1"/>
  <text class="mono" x="1230" y="304" font-size="12" fill="#f0f0fa" letter-spacing="3">PROPULSION</text>
  <text class="mono" x="1582" y="304" text-anchor="end" font-size="11" fill="#545457" letter-spacing="2">22 SKILLS</text>
  <line x1="1230" y1="312" x2="1582" y2="312" stroke="#1f1f21" stroke-width="1"/>
  <rect x="1230" y="326" width="150.0" height="20" fill="none" stroke="#3c3d3e" stroke-width="1"/>
  <text class="mono" x="1236" y="339" font-size="10" letter-spacing="1" fill="#cececf">axial-compressor <tspan fill="#f0f0fa">4</tspan></text>
  <rect x="1386.0" y="326" width="142.5" height="20" fill="none" stroke="#3c3d3e" stroke-width="1"/>
  <text class="mono" x="1392.0" y="339" font-size="10" letter-spacing="1" fill="#cececf">engine-airframe <tspan fill="#f0f0fa">1</tspan></text>
  <rect x="1230" y="352" width="157.5" height="20" fill="none" stroke="#3c3d3e" stroke-width="1"/>
  <text class="mono" x="1236" y="365" font-size="10" letter-spacing="1" fill="#cececf">gas-turbine-cycle <tspan fill="#f0f0fa">4</tspan></text>
  <rect x="1393.5" y="352" width="75.0" height="20" fill="none" stroke="#3c3d3e" stroke-width="1"/>
  <text class="mono" x="1399.5" y="365" font-size="10" letter-spacing="1" fill="#cececf">ramjet <tspan fill="#f0f0fa">2</tspan></text>
  <rect x="1474.5" y="352" width="75.0" height="20" fill="none" stroke="#3c3d3e" stroke-width="1"/>
  <text class="mono" x="1480.5" y="365" font-size="10" letter-spacing="1" fill="#cececf">rocket <tspan fill="#f0f0fa">6</tspan></text>
  <rect x="1230" y="378" width="90.0" height="20" fill="none" stroke="#3c3d3e" stroke-width="1"/>
  <text class="mono" x="1236" y="391" font-size="10" letter-spacing="1" fill="#cececf">turbofan <tspan fill="#f0f0fa">3</tspan></text>
  <rect x="1326.0" y="378" width="97.5" height="20" fill="none" stroke="#3c3d3e" stroke-width="1"/>
  <text class="mono" x="1332.0" y="391" font-size="10" letter-spacing="1" fill="#cececf">turboprop <tspan fill="#f0f0fa">2</tspan></text>
  <rect x="28" y="482" width="380" height="190" fill="#0a0a0c" stroke="#1f1f21" stroke-width="1"/>
  <text class="mono" x="42" y="510" font-size="12" fill="#f0f0fa" letter-spacing="3">SPACE SYSTEMS</text>
  <text class="mono" x="394" y="510" text-anchor="end" font-size="11" fill="#545457" letter-spacing="2">22 SKILLS</text>
  <line x1="42" y1="518" x2="394" y2="518" stroke="#1f1f21" stroke-width="1"/>
  <rect x="42" y="532" width="60.0" height="20" fill="none" stroke="#3c3d3e" stroke-width="1"/>
  <text class="mono" x="48" y="545" font-size="10" letter-spacing="1" fill="#cececf">adcs <tspan fill="#f0f0fa">5</tspan></text>
  <rect x="108.0" y="532" width="60.0" height="20" fill="none" stroke="#3c3d3e" stroke-width="1"/>
  <text class="mono" x="114.0" y="545" font-size="10" letter-spacing="1" fill="#cececf">ecss <tspan fill="#f0f0fa">3</tspan></text>
  <rect x="174.0" y="532" width="142.5" height="20" fill="none" stroke="#3c3d3e" stroke-width="1"/>
  <text class="mono" x="180.0" y="545" font-size="10" letter-spacing="1" fill="#cececf">orbit-mechanics <tspan fill="#f0f0fa">9</tspan></text>
  <rect x="42" y="558" width="105.0" height="20" fill="none" stroke="#3c3d3e" stroke-width="1"/>
  <text class="mono" x="48" y="571" font-size="10" letter-spacing="1" fill="#cececf">subsystems <tspan fill="#f0f0fa">5</tspan></text>
  <rect x="424" y="482" width="380" height="190" fill="#0a0a0c" stroke="#1f1f21" stroke-width="1"/>
  <text class="mono" x="438" y="510" font-size="12" fill="#f0f0fa" letter-spacing="3">STRUCTURES</text>
  <text class="mono" x="790" y="510" text-anchor="end" font-size="11" fill="#545457" letter-spacing="2">23 SKILLS</text>
  <line x1="438" y1="518" x2="790" y2="518" stroke="#1f1f21" stroke-width="1"/>
  <rect x="438" y="532" width="105.0" height="20" fill="none" stroke="#3c3d3e" stroke-width="1"/>
  <text class="mono" x="444" y="545" font-size="10" letter-spacing="1" fill="#cececf">composites <tspan fill="#f0f0fa">4</tspan></text>
  <rect x="549.0" y="532" width="150.0" height="20" fill="none" stroke="#3c3d3e" stroke-width="1"/>
  <text class="mono" x="555.0" y="545" font-size="10" letter-spacing="1" fill="#cececf">damage-tolerance <tspan fill="#f0f0fa">4</tspan></text>
  <rect x="705.0" y="532" width="82.5" height="20" fill="none" stroke="#3c3d3e" stroke-width="1"/>
  <text class="mono" x="711.0" y="545" font-size="10" letter-spacing="1" fill="#cececf">fatigue <tspan fill="#f0f0fa">5</tspan></text>
  <rect x="438" y="558" width="52.5" height="20" fill="none" stroke="#3c3d3e" stroke-width="1"/>
  <text class="mono" x="444" y="571" font-size="10" letter-spacing="1" fill="#cececf">fem <tspan fill="#f0f0fa">6</tspan></text>
  <rect x="496.5" y="558" width="97.5" height="20" fill="none" stroke="#3c3d3e" stroke-width="1"/>
  <text class="mono" x="502.5" y="571" font-size="10" letter-spacing="1" fill="#cececf">materials <tspan fill="#f0f0fa">4</tspan></text>
  <rect x="820" y="482" width="380" height="190" fill="#0a0a0c" stroke="#1f1f21" stroke-width="1"/>
  <text class="mono" x="834" y="510" font-size="12" fill="#f0f0fa" letter-spacing="3">SYSTEMS ENGINEERING SAFETY</text>
  <text class="mono" x="1186" y="510" text-anchor="end" font-size="11" fill="#545457" letter-spacing="2">22 SKILLS</text>
  <line x1="834" y1="518" x2="1186" y2="518" stroke="#1f1f21" stroke-width="1"/>
  <rect x="834" y="532" width="90.0" height="20" fill="none" stroke="#3c3d3e" stroke-width="1"/>
  <text class="mono" x="840" y="545" font-size="10" letter-spacing="1" fill="#cececf">arp4754a <tspan fill="#f0f0fa">7</tspan></text>
  <rect x="930.0" y="532" width="90.0" height="20" fill="none" stroke="#3c3d3e" stroke-width="1"/>
  <text class="mono" x="936.0" y="545" font-size="10" letter-spacing="1" fill="#cececf">arp4761a <tspan fill="#f0f0fa">9</tspan></text>
  <rect x="1026.0" y="532" width="60.0" height="20" fill="none" stroke="#3c3d3e" stroke-width="1"/>
  <text class="mono" x="1032.0" y="545" font-size="10" letter-spacing="1" fill="#cececf">mbse <tspan fill="#f0f0fa">6</tspan></text>
  <rect x="1216" y="482" width="380" height="190" fill="#0a0a0c" stroke="#1f1f21" stroke-width="1"/>
  <text class="mono" x="1230" y="510" font-size="12" fill="#f0f0fa" letter-spacing="3">VEHICLE DESIGN</text>
  <text class="mono" x="1582" y="510" text-anchor="end" font-size="11" fill="#545457" letter-spacing="2">22 SKILLS</text>
  <line x1="1230" y1="518" x2="1582" y2="518" stroke="#1f1f21" stroke-width="1"/>
  <rect x="1230" y="532" width="105.0" height="20" fill="none" stroke="#3c3d3e" stroke-width="1"/>
  <text class="mono" x="1236" y="545" font-size="10" letter-spacing="1" fill="#cececf">conceptual <tspan fill="#f0f0fa">2</tspan></text>
  <rect x="1341.0" y="532" width="142.5" height="20" fill="none" stroke="#3c3d3e" stroke-width="1"/>
  <text class="mono" x="1347.0" y="545" font-size="10" letter-spacing="1" fill="#cececf">cost-estimation <tspan fill="#f0f0fa">3</tspan></text>
  <rect x="1230" y="558" width="142.5" height="20" fill="none" stroke="#3c3d3e" stroke-width="1"/>
  <text class="mono" x="1236" y="571" font-size="10" letter-spacing="1" fill="#cececf">mass-properties <tspan fill="#f0f0fa">3</tspan></text>
  <rect x="1378.5" y="558" width="52.5" height="20" fill="none" stroke="#3c3d3e" stroke-width="1"/>
  <text class="mono" x="1384.5" y="571" font-size="10" letter-spacing="1" fill="#cececf">mdo <tspan fill="#f0f0fa">1</tspan></text>
  <rect x="1437.0" y="558" width="75.0" height="20" fill="none" stroke="#3c3d3e" stroke-width="1"/>
  <text class="mono" x="1443.0" y="571" font-size="10" letter-spacing="1" fill="#cececf">sizing <tspan fill="#f0f0fa">11</tspan></text>
  <rect x="1230" y="584" width="195.0" height="20" fill="none" stroke="#3c3d3e" stroke-width="1"/>
  <text class="mono" x="1236" y="597" font-size="10" letter-spacing="1" fill="#cececf">structures-integration <tspan fill="#f0f0fa">2</tspan></text>
  <text class="mono" x="40" y="636" font-size="10" fill="#545457" letter-spacing="2">EVERY LEAF VERIFIED · MAKE VALIDATE 5/5 · AGENTSKILLS.IO FORMAT</text>
</svg>