<svg xmlns="http://www.w3.org/2000/svg" width="940" height="900" viewBox="0 0 940 900">
  <style>
    .mono { font-family: "JetBrains Mono", "IBM Plex Mono", "Menlo", monospace; }
    .cond { font-family: "Barlow Condensed", "DIN Condensed", "Arial Narrow", sans-serif; font-weight: 700; text-transform: uppercase; }
    .serif { font-family: "Instrument Serif", Georgia, serif; font-style: italic; }
  </style>
<rect width="940" height="900" fill="#0a0d1e"/>
<path d="M 470.0 274.0 A 186.0 186.0 0 0 1 499.9 276.4 L 486.7 357.4 A 104.0 104.0 0 0 0 470.0 356.0 Z" fill="#38bdf8" fill-opacity="0.9" stroke="#0a0d1e" stroke-width="1.5"/>
<path d="M 470.0 198.0 A 262.0 262.0 0 0 1 472.8 198.0 L 472.0 268.0 A 192.0 192.0 0 0 0 470.0 268.0 Z" fill="#38bdf8" fill-opacity="0.55" stroke="#0a0d1e" stroke-width="1"/>
<path d="M 474.0 198.0 A 262.0 262.0 0 0 1 476.7 198.1 L 474.9 268.1 A 192.0 192.0 0 0 0 472.9 268.0 Z" fill="#38bdf8" fill-opacity="0.32" stroke="#0a0d1e" stroke-width="1"/>
<path d="M 477.9 198.1 A 262.0 262.0 0 0 1 483.5 198.3 L 479.9 268.3 A 192.0 192.0 0 0 0 475.8 268.1 Z" fill="#38bdf8" fill-opacity="0.55" stroke="#0a0d1e" stroke-width="1"/>
<path d="M 484.7 198.4 A 262.0 262.0 0 0 1 488.5 198.7 L 483.6 268.5 A 192.0 192.0 0 0 0 480.7 268.3 Z" fill="#38bdf8" fill-opacity="0.32" stroke="#0a0d1e" stroke-width="1"/>
<path d="M 489.7 198.7 A 262.0 262.0 0 0 1 491.4 198.9 L 485.7 268.6 A 192.0 192.0 0 0 0 484.4 268.5 Z" fill="#38bdf8" fill-opacity="0.55" stroke="#0a0d1e" stroke-width="1"/>
<path d="M 492.6 199.0 A 262.0 262.0 0 0 1 493.1 199.0 L 486.9 268.7 A 192.0 192.0 0 0 0 486.5 268.7 Z" fill="#38bdf8" fill-opacity="0.32" stroke="#0a0d1e" stroke-width="1"/>
<path d="M 494.3 199.1 A 262.0 262.0 0 0 1 494.8 199.2 L 488.2 268.9 A 192.0 192.0 0 0 0 487.8 268.8 Z" fill="#38bdf8" fill-opacity="0.55" stroke="#0a0d1e" stroke-width="1"/>
<path d="M 496.0 199.3 A 262.0 262.0 0 0 1 507.1 200.6 L 497.2 269.9 A 192.0 192.0 0 0 0 489.1 268.9 Z" fill="#38bdf8" fill-opacity="0.32" stroke="#0a0d1e" stroke-width="1"/>
<path d="M 508.2 200.8 A 262.0 262.0 0 0 1 509.9 201.1 L 499.2 270.2 A 192.0 192.0 0 0 0 498.0 270.1 Z" fill="#38bdf8" fill-opacity="0.55" stroke="#0a0d1e" stroke-width="1"/>
<path d="M 511.0 201.2 A 262.0 262.0 0 0 1 512.1 201.4 L 500.9 270.5 A 192.0 192.0 0 0 0 500.1 270.4 Z" fill="#38bdf8" fill-opacity="0.32" stroke="#0a0d1e" stroke-width="1"/>
<text class="mono" x="492.9" y="172.9" text-anchor="middle" font-size="11" fill="#8a93c4" letter-spacing="1">AERODYNAMICS</text>
<text class="mono" x="492.9" y="187.9" text-anchor="middle" font-size="9.5" fill="#38bdf8" letter-spacing="1">10P · 57S</text>
<path d="M 506.9 277.7 A 186.0 186.0 0 0 1 532.8 284.9 L 505.1 362.1 A 104.0 104.0 0 0 0 490.7 358.1 Z" fill="#a78bfa" fill-opacity="0.9" stroke="#0a0d1e" stroke-width="1.5"/>
<path d="M 522.0 203.2 A 262.0 262.0 0 0 1 524.7 203.8 L 510.1 272.2 A 192.0 192.0 0 0 0 508.1 271.8 Z" fill="#a78bfa" fill-opacity="0.55" stroke="#0a0d1e" stroke-width="1"/>
<path d="M 525.9 204.0 A 262.0 262.0 0 0 1 529.2 204.8 L 513.4 273.0 A 192.0 192.0 0 0 0 511.0 272.4 Z" fill="#a78bfa" fill-opacity="0.32" stroke="#0a0d1e" stroke-width="1"/>
<path d="M 530.3 205.0 A 262.0 262.0 0 0 1 535.2 206.2 L 517.8 274.0 A 192.0 192.0 0 0 0 514.2 273.2 Z" fill="#a78bfa" fill-opacity="0.55" stroke="#0a0d1e" stroke-width="1"/>
<path d="M 536.3 206.5 A 262.0 262.0 0 0 1 538.5 207.1 L 520.2 274.7 A 192.0 192.0 0 0 0 518.6 274.3 Z" fill="#a78bfa" fill-opacity="0.32" stroke="#0a0d1e" stroke-width="1"/>
<path d="M 539.6 207.4 A 262.0 262.0 0 0 1 540.7 207.7 L 521.8 275.1 A 192.0 192.0 0 0 0 521.0 274.9 Z" fill="#a78bfa" fill-opacity="0.55" stroke="#0a0d1e" stroke-width="1"/>
<path d="M 541.8 208.0 A 262.0 262.0 0 0 1 547.7 209.8 L 526.9 276.6 A 192.0 192.0 0 0 0 522.6 275.4 Z" fill="#a78bfa" fill-opacity="0.32" stroke="#0a0d1e" stroke-width="1"/>
<path d="M 548.8 210.1 A 262.0 262.0 0 0 1 553.6 211.7 L 531.3 278.0 A 192.0 192.0 0 0 0 527.8 276.9 Z" fill="#a78bfa" fill-opacity="0.55" stroke="#0a0d1e" stroke-width="1"/>
<path d="M 554.7 212.1 A 262.0 262.0 0 0 1 555.8 212.4 L 532.9 278.6 A 192.0 192.0 0 0 0 532.1 278.3 Z" fill="#a78bfa" fill-opacity="0.32" stroke="#0a0d1e" stroke-width="1"/>
<path d="M 556.9 212.8 A 262.0 262.0 0 0 1 558.5 213.4 L 534.8 279.3 A 192.0 192.0 0 0 0 533.7 278.9 Z" fill="#a78bfa" fill-opacity="0.55" stroke="#0a0d1e" stroke-width="1"/>
<text class="mono" x="546.3" y="182.5" text-anchor="middle" font-size="11" fill="#8a93c4" letter-spacing="1">AVIONICS</text>
<text class="mono" x="546.3" y="197.5" text-anchor="middle" font-size="9.5" fill="#a78bfa" letter-spacing="1">9P · 51S</text>
<path d="M 539.5 287.5 A 186.0 186.0 0 0 1 565.9 300.6 L 523.6 370.9 A 104.0 104.0 0 0 0 508.8 363.5 Z" fill="#f472b6" fill-opacity="0.9" stroke="#0a0d1e" stroke-width="1.5"/>
<path d="M 567.9 217.0 A 262.0 262.0 0 0 1 568.4 217.2 L 542.1 282.0 A 192.0 192.0 0 0 0 541.7 281.9 Z" fill="#f472b6" fill-opacity="0.55" stroke="#0a0d1e" stroke-width="1"/>
<path d="M 570.0 217.8 A 262.0 262.0 0 0 1 571.0 218.3 L 544.0 282.8 A 192.0 192.0 0 0 0 543.3 282.5 Z" fill="#f472b6" fill-opacity="0.32" stroke="#0a0d1e" stroke-width="1"/>
<path d="M 572.6 218.9 A 262.0 262.0 0 0 1 573.1 219.1 L 545.6 283.5 A 192.0 192.0 0 0 0 545.2 283.3 Z" fill="#f472b6" fill-opacity="0.55" stroke="#0a0d1e" stroke-width="1"/>
<path d="M 574.7 219.8 A 262.0 262.0 0 0 1 593.7 229.1 L 560.7 290.8 A 192.0 192.0 0 0 0 546.7 284.0 Z" fill="#f472b6" fill-opacity="0.32" stroke="#0a0d1e" stroke-width="1"/>
<path d="M 595.3 229.9 A 262.0 262.0 0 0 1 596.7 230.7 L 562.9 292.0 A 192.0 192.0 0 0 0 561.8 291.4 Z" fill="#f472b6" fill-opacity="0.55" stroke="#0a0d1e" stroke-width="1"/>
<path d="M 598.2 231.5 A 262.0 262.0 0 0 1 600.7 232.9 L 565.7 293.6 A 192.0 192.0 0 0 0 564.0 292.6 Z" fill="#f472b6" fill-opacity="0.32" stroke="#0a0d1e" stroke-width="1"/>
<path d="M 602.2 233.8 A 262.0 262.0 0 0 1 605.0 235.5 L 569.0 295.5 A 192.0 192.0 0 0 0 566.8 294.2 Z" fill="#f472b6" fill-opacity="0.55" stroke="#0a0d1e" stroke-width="1"/>
<text class="mono" x="596.6" y="201.8" text-anchor="start" font-size="11" fill="#8a93c4" letter-spacing="1">CROSS-CUTTING</text>
<text class="mono" x="596.6" y="216.8" text-anchor="start" font-size="9.5" fill="#f472b6" letter-spacing="1">7P · 56S</text>
<path d="M 571.9 304.4 A 186.0 186.0 0 0 1 592.5 320.0 L 538.5 381.7 A 104.0 104.0 0 0 0 527.0 373.0 Z" fill="#fb923c" fill-opacity="0.9" stroke="#0a0d1e" stroke-width="1.5"/>
<path d="M 613.5 240.8 A 262.0 262.0 0 0 1 614.5 241.4 L 575.9 299.8 A 192.0 192.0 0 0 0 575.2 299.4 Z" fill="#fb923c" fill-opacity="0.55" stroke="#0a0d1e" stroke-width="1"/>
<path d="M 617.0 243.1 A 262.0 262.0 0 0 1 618.8 244.4 L 579.1 302.0 A 192.0 192.0 0 0 0 577.7 301.1 Z" fill="#fb923c" fill-opacity="0.32" stroke="#0a0d1e" stroke-width="1"/>
<path d="M 621.3 246.1 A 262.0 262.0 0 0 1 635.5 256.9 L 591.3 311.2 A 192.0 192.0 0 0 0 580.9 303.3 Z" fill="#fb923c" fill-opacity="0.55" stroke="#0a0d1e" stroke-width="1"/>
<path d="M 637.8 258.8 A 262.0 262.0 0 0 1 642.5 262.8 L 596.4 315.5 A 192.0 192.0 0 0 0 593.0 312.6 Z" fill="#fb923c" fill-opacity="0.32" stroke="#0a0d1e" stroke-width="1"/>
<text class="mono" x="641.7" y="229.8" text-anchor="start" font-size="11" fill="#8a93c4" letter-spacing="1">FLIGHT MECHANICS</text>
<text class="mono" x="641.7" y="244.8" text-anchor="start" font-size="9.5" fill="#fb923c" letter-spacing="1">4P · 49S</text>
<path d="M 597.7 324.8 A 186.0 186.0 0 0 1 615.2 343.8 L 551.2 395.0 A 104.0 104.0 0 0 0 541.4 384.4 Z" fill="#38bdf8" fill-opacity="0.9" stroke="#0a0d1e" stroke-width="1.5"/>
<path d="M 649.9 269.6 A 262.0 262.0 0 0 1 655.5 275.0 L 606.0 324.4 A 192.0 192.0 0 0 0 601.9 320.4 Z" fill="#38bdf8" fill-opacity="0.55" stroke="#0a0d1e" stroke-width="1"/>
<path d="M 656.8 276.3 A 262.0 262.0 0 0 1 658.4 277.9 L 608.0 326.5 A 192.0 192.0 0 0 0 606.9 325.4 Z" fill="#38bdf8" fill-opacity="0.32" stroke="#0a0d1e" stroke-width="1"/>
<path d="M 659.6 279.2 A 262.0 262.0 0 0 1 666.0 286.2 L 613.7 332.6 A 192.0 192.0 0 0 0 609.0 327.5 Z" fill="#38bdf8" fill-opacity="0.55" stroke="#0a0d1e" stroke-width="1"/>
<path d="M 667.2 287.5 A 262.0 262.0 0 0 1 670.5 291.3 L 616.9 336.4 A 192.0 192.0 0 0 0 614.5 333.6 Z" fill="#38bdf8" fill-opacity="0.32" stroke="#0a0d1e" stroke-width="1"/>
<path d="M 671.7 292.7 A 262.0 262.0 0 0 1 673.1 294.5 L 618.8 338.7 A 192.0 192.0 0 0 0 617.8 337.4 Z" fill="#38bdf8" fill-opacity="0.55" stroke="#0a0d1e" stroke-width="1"/>
<path d="M 674.2 295.9 A 262.0 262.0 0 0 1 674.6 296.3 L 619.9 340.0 A 192.0 192.0 0 0 0 619.7 339.7 Z" fill="#38bdf8" fill-opacity="0.32" stroke="#0a0d1e" stroke-width="1"/>
<text class="mono" x="678.9" y="263.6" text-anchor="start" font-size="11" fill="#8a93c4" letter-spacing="1">FLIGHT TEST &amp; OPS</text>
<text class="mono" x="678.9" y="278.6" text-anchor="start" font-size="9.5" fill="#38bdf8" letter-spacing="1">6P · 49S</text>
<path d="M 619.6 349.4 A 186.0 186.0 0 0 1 638.0 380.1 L 563.9 415.3 A 104.0 104.0 0 0 0 553.6 398.2 Z" fill="#a78bfa" fill-opacity="0.9" stroke="#0a0d1e" stroke-width="1.5"/>
<path d="M 680.7 304.3 A 262.0 262.0 0 0 1 687.4 313.8 L 629.3 352.9 A 192.0 192.0 0 0 0 624.4 345.9 Z" fill="#a78bfa" fill-opacity="0.55" stroke="#0a0d1e" stroke-width="1"/>
<path d="M 688.8 315.9 A 262.0 262.0 0 0 1 691.8 320.6 L 632.6 357.9 A 192.0 192.0 0 0 0 630.4 354.4 Z" fill="#a78bfa" fill-opacity="0.32" stroke="#0a0d1e" stroke-width="1"/>
<path d="M 693.2 322.8 A 262.0 262.0 0 0 1 696.3 328.0 L 635.9 363.3 A 192.0 192.0 0 0 0 633.5 359.4 Z" fill="#a78bfa" fill-opacity="0.55" stroke="#0a0d1e" stroke-width="1"/>
<path d="M 697.6 330.2 A 262.0 262.0 0 0 1 701.6 337.5 L 639.7 370.2 A 192.0 192.0 0 0 0 636.8 364.9 Z" fill="#a78bfa" fill-opacity="0.32" stroke="#0a0d1e" stroke-width="1"/>
<path d="M 702.8 339.8 A 262.0 262.0 0 0 1 704.5 343.2 L 641.9 374.4 A 192.0 192.0 0 0 0 640.6 371.9 Z" fill="#a78bfa" fill-opacity="0.55" stroke="#0a0d1e" stroke-width="1"/>
<path d="M 705.7 345.5 A 262.0 262.0 0 0 1 706.6 347.5 L 643.4 377.6 A 192.0 192.0 0 0 0 642.7 376.1 Z" fill="#a78bfa" fill-opacity="0.32" stroke="#0a0d1e" stroke-width="1"/>
<text class="mono" x="713.6" y="309.9" text-anchor="start" font-size="11" fill="#8a93c4" letter-spacing="1">GNC &amp; AUTONOMY</text>
<text class="mono" x="713.6" y="324.9" text-anchor="start" font-size="9.5" fill="#a78bfa" letter-spacing="1">6P · 68S</text>
<path d="M 640.9 386.6 A 186.0 186.0 0 0 1 649.3 410.5 L 570.2 432.3 A 104.0 104.0 0 0 0 565.6 419.0 Z" fill="#f472b6" fill-opacity="0.9" stroke="#0a0d1e" stroke-width="1.5"/>
<path d="M 710.8 356.7 A 262.0 262.0 0 0 1 711.2 357.7 L 646.8 385.0 A 192.0 192.0 0 0 0 646.4 384.3 Z" fill="#f472b6" fill-opacity="0.55" stroke="#0a0d1e" stroke-width="1"/>
<path d="M 711.7 358.9 A 262.0 262.0 0 0 1 716.2 370.3 L 650.4 394.2 A 192.0 192.0 0 0 0 647.1 385.9 Z" fill="#f472b6" fill-opacity="0.32" stroke="#0a0d1e" stroke-width="1"/>
<path d="M 716.6 371.5 A 262.0 262.0 0 0 1 717.3 373.6 L 651.3 396.7 A 192.0 192.0 0 0 0 650.7 395.1 Z" fill="#f472b6" fill-opacity="0.55" stroke="#0a0d1e" stroke-width="1"/>
<path d="M 717.7 374.8 A 262.0 262.0 0 0 1 717.9 375.3 L 651.7 397.9 A 192.0 192.0 0 0 0 651.6 397.5 Z" fill="#f472b6" fill-opacity="0.32" stroke="#0a0d1e" stroke-width="1"/>
<path d="M 718.3 376.5 A 262.0 262.0 0 0 1 718.9 378.1 L 652.4 400.0 A 192.0 192.0 0 0 0 652.0 398.8 Z" fill="#f472b6" fill-opacity="0.55" stroke="#0a0d1e" stroke-width="1"/>
<path d="M 719.3 379.3 A 262.0 262.0 0 0 1 719.4 379.8 L 652.8 401.2 A 192.0 192.0 0 0 0 652.7 400.9 Z" fill="#f472b6" fill-opacity="0.32" stroke="#0a0d1e" stroke-width="1"/>
<path d="M 719.8 381.0 A 262.0 262.0 0 0 1 721.9 388.0 L 654.6 407.2 A 192.0 192.0 0 0 0 653.1 402.1 Z" fill="#f472b6" fill-opacity="0.55" stroke="#0a0d1e" stroke-width="1"/>
<path d="M 722.2 389.2 A 262.0 262.0 0 0 1 722.5 390.3 L 655.1 408.9 A 192.0 192.0 0 0 0 654.9 408.1 Z" fill="#f472b6" fill-opacity="0.32" stroke="#0a0d1e" stroke-width="1"/>
<text class="mono" x="738.0" y="370.0" text-anchor="start" font-size="11" fill="#8a93c4" letter-spacing="1">MANUFACTURING QUALITY</text>
<text class="mono" x="738.0" y="385.0" text-anchor="start" font-size="9.5" fill="#f472b6" letter-spacing="1">8P · 48S</text>
<path d="M 651.1 417.4 A 186.0 186.0 0 0 1 655.4 445.5 L 573.7 451.9 A 104.0 104.0 0 0 0 571.2 436.2 Z" fill="#fb923c" fill-opacity="0.9" stroke="#0a0d1e" stroke-width="1.5"/>
<path d="M 725.0 400.0 A 262.0 262.0 0 0 1 725.8 403.3 L 657.4 418.4 A 192.0 192.0 0 0 0 656.9 416.0 Z" fill="#fb923c" fill-opacity="0.55" stroke="#0a0d1e" stroke-width="1"/>
<path d="M 726.0 404.2 A 262.0 262.0 0 0 1 726.1 404.8 L 657.7 419.5 A 192.0 192.0 0 0 0 657.6 419.1 Z" fill="#fb923c" fill-opacity="0.32" stroke="#0a0d1e" stroke-width="1"/>
<path d="M 726.3 405.8 A 262.0 262.0 0 0 1 726.8 407.9 L 658.2 421.9 A 192.0 192.0 0 0 0 657.8 420.3 Z" fill="#fb923c" fill-opacity="0.55" stroke="#0a0d1e" stroke-width="1"/>
<path d="M 727.0 408.9 A 262.0 262.0 0 0 1 727.1 409.5 L 658.4 423.0 A 192.0 192.0 0 0 0 658.3 422.6 Z" fill="#fb923c" fill-opacity="0.32" stroke="#0a0d1e" stroke-width="1"/>
<path d="M 727.3 410.5 A 262.0 262.0 0 0 1 728.3 415.9 L 659.3 427.7 A 192.0 192.0 0 0 0 658.5 423.7 Z" fill="#fb923c" fill-opacity="0.55" stroke="#0a0d1e" stroke-width="1"/>
<path d="M 728.4 416.9 A 262.0 262.0 0 0 1 728.6 418.0 L 659.5 429.2 A 192.0 192.0 0 0 0 659.4 428.4 Z" fill="#fb923c" fill-opacity="0.32" stroke="#0a0d1e" stroke-width="1"/>
<path d="M 728.8 419.0 A 262.0 262.0 0 0 1 729.0 420.7 L 659.8 431.2 A 192.0 192.0 0 0 0 659.6 430.0 Z" fill="#fb923c" fill-opacity="0.55" stroke="#0a0d1e" stroke-width="1"/>
<path d="M 729.2 421.7 A 262.0 262.0 0 0 1 730.5 431.6 L 660.9 439.2 A 192.0 192.0 0 0 0 659.9 431.9 Z" fill="#fb923c" fill-opacity="0.32" stroke="#0a0d1e" stroke-width="1"/>
<path d="M 730.6 432.6 A 262.0 262.0 0 0 1 730.8 435.4 L 661.1 441.9 A 192.0 192.0 0 0 0 660.9 439.9 Z" fill="#fb923c" fill-opacity="0.55" stroke="#0a0d1e" stroke-width="1"/>
<path d="M 730.9 436.4 A 262.0 262.0 0 0 1 731.0 437.5 L 661.3 443.5 A 192.0 192.0 0 0 0 661.2 442.7 Z" fill="#fb923c" fill-opacity="0.32" stroke="#0a0d1e" stroke-width="1"/>
<path d="M 731.1 438.5 A 262.0 262.0 0 0 1 731.2 439.6 L 661.4 445.0 A 192.0 192.0 0 0 0 661.4 444.2 Z" fill="#fb923c" fill-opacity="0.55" stroke="#0a0d1e" stroke-width="1"/>
<text class="mono" x="750.6" y="420.3" text-anchor="start" font-size="11" fill="#8a93c4" letter-spacing="1">PROPULSION</text>
<text class="mono" x="750.6" y="435.3" text-anchor="start" font-size="9.5" fill="#fb923c" letter-spacing="1">11P · 54S</text>
<path d="M 655.9 452.6 A 186.0 186.0 0 1 1 357.5 311.9 L 407.1 377.2 A 104.0 104.0 0 1 0 573.9 455.9 Z" fill="#38bdf8" fill-opacity="0.9" stroke="#0a0d1e" stroke-width="1.5"/>
<path d="M 731.8 449.6 A 262.0 262.0 0 0 1 732.0 459.9 L 662.0 459.9 A 192.0 192.0 0 0 0 661.8 452.4 Z" fill="#38bdf8" fill-opacity="0.55" stroke="#0a0d1e" stroke-width="1"/>
<path d="M 732.0 463.1 A 262.0 262.0 0 1 1 284.5 275.0 L 334.0 324.4 A 192.0 192.0 0 1 0 662.0 462.3 Z" fill="#38bdf8" fill-opacity="0.32" stroke="#0a0d1e" stroke-width="1"/>
<path d="M 286.7 272.8 A 262.0 262.0 0 0 1 290.4 269.2 L 338.4 320.2 A 192.0 192.0 0 0 0 335.7 322.8 Z" fill="#38bdf8" fill-opacity="0.55" stroke="#0a0d1e" stroke-width="1"/>
<path d="M 292.8 267.0 A 262.0 262.0 0 0 1 303.3 257.9 L 347.8 311.9 A 192.0 192.0 0 0 0 340.1 318.6 Z" fill="#38bdf8" fill-opacity="0.32" stroke="#0a0d1e" stroke-width="1"/>
<path d="M 305.8 255.9 A 262.0 262.0 0 0 1 311.6 251.3 L 353.9 307.1 A 192.0 192.0 0 0 0 349.7 310.4 Z" fill="#38bdf8" fill-opacity="0.55" stroke="#0a0d1e" stroke-width="1"/>
<text class="mono" x="348.8" y="726.8" text-anchor="end" font-size="11" fill="#8a93c4" letter-spacing="1">SPACE SYSTEMS</text>
<text class="mono" x="348.8" y="741.8" text-anchor="end" font-size="9.5" fill="#38bdf8" letter-spacing="1">5P · 1448S</text>
<path d="M 363.3 307.7 A 186.0 186.0 0 0 1 394.9 289.8 L 428.0 364.8 A 104.0 104.0 0 0 0 410.3 374.8 Z" fill="#a78bfa" fill-opacity="0.9" stroke="#0a0d1e" stroke-width="1.5"/>
<path d="M 319.7 245.4 A 262.0 262.0 0 0 1 327.1 240.4 L 365.3 299.1 A 192.0 192.0 0 0 0 359.8 302.7 Z" fill="#a78bfa" fill-opacity="0.55" stroke="#0a0d1e" stroke-width="1"/>
<path d="M 328.9 239.3 A 262.0 262.0 0 0 1 331.2 237.8 L 368.3 297.1 A 192.0 192.0 0 0 0 366.6 298.2 Z" fill="#a78bfa" fill-opacity="0.32" stroke="#0a0d1e" stroke-width="1"/>
<path d="M 333.0 236.7 A 262.0 262.0 0 0 1 336.4 234.6 L 372.1 294.9 A 192.0 192.0 0 0 0 369.6 296.3 Z" fill="#a78bfa" fill-opacity="0.55" stroke="#0a0d1e" stroke-width="1"/>
<path d="M 338.2 233.6 A 262.0 262.0 0 0 1 350.9 226.6 L 382.7 289.0 A 192.0 192.0 0 0 0 373.4 294.1 Z" fill="#a78bfa" fill-opacity="0.32" stroke="#0a0d1e" stroke-width="1"/>
<path d="M 352.8 225.7 A 262.0 262.0 0 0 1 355.3 224.4 L 386.0 287.4 A 192.0 192.0 0 0 0 384.1 288.3 Z" fill="#a78bfa" fill-opacity="0.55" stroke="#0a0d1e" stroke-width="1"/>
<path d="M 357.2 223.5 A 262.0 262.0 0 0 1 361.3 221.6 L 390.3 285.3 A 192.0 192.0 0 0 0 387.4 286.7 Z" fill="#a78bfa" fill-opacity="0.32" stroke="#0a0d1e" stroke-width="1"/>
<path d="M 363.2 220.7 A 262.0 262.0 0 0 1 364.2 220.3 L 392.5 284.3 A 192.0 192.0 0 0 0 391.8 284.7 Z" fill="#a78bfa" fill-opacity="0.55" stroke="#0a0d1e" stroke-width="1"/>
<text class="mono" x="330.5" y="208.6" text-anchor="end" font-size="11" fill="#8a93c4" letter-spacing="1">STRUCTURES</text>
<text class="mono" x="330.5" y="223.6" text-anchor="end" font-size="9.5" fill="#a78bfa" letter-spacing="1">7P · 69S</text>
<path d="M 401.5 287.1 A 186.0 186.0 0 0 1 425.1 279.5 L 444.9 359.1 A 104.0 104.0 0 0 0 431.7 363.3 Z" fill="#f472b6" fill-opacity="0.9" stroke="#0a0d1e" stroke-width="1.5"/>
<path d="M 373.5 216.4 A 262.0 262.0 0 0 1 377.7 214.8 L 402.3 280.3 A 192.0 192.0 0 0 0 399.3 281.5 Z" fill="#f472b6" fill-opacity="0.55" stroke="#0a0d1e" stroke-width="1"/>
<path d="M 379.0 214.3 A 262.0 262.0 0 0 1 390.6 210.3 L 411.8 277.0 A 192.0 192.0 0 0 0 403.3 279.9 Z" fill="#f472b6" fill-opacity="0.32" stroke="#0a0d1e" stroke-width="1"/>
<path d="M 392.0 209.9 A 262.0 262.0 0 0 1 394.1 209.2 L 414.4 276.2 A 192.0 192.0 0 0 0 412.8 276.7 Z" fill="#f472b6" fill-opacity="0.55" stroke="#0a0d1e" stroke-width="1"/>
<path d="M 395.5 208.8 A 262.0 262.0 0 0 1 398.2 208.0 L 417.4 275.4 A 192.0 192.0 0 0 0 415.4 275.9 Z" fill="#f472b6" fill-opacity="0.32" stroke="#0a0d1e" stroke-width="1"/>
<path d="M 399.6 207.6 A 262.0 262.0 0 0 1 402.8 206.8 L 420.8 274.4 A 192.0 192.0 0 0 0 418.4 275.1 Z" fill="#f472b6" fill-opacity="0.55" stroke="#0a0d1e" stroke-width="1"/>
<path d="M 404.2 206.4 A 262.0 262.0 0 0 1 404.8 206.3 L 422.2 274.0 A 192.0 192.0 0 0 0 421.8 274.1 Z" fill="#f472b6" fill-opacity="0.32" stroke="#0a0d1e" stroke-width="1"/>
<path d="M 406.2 205.9 A 262.0 262.0 0 0 1 406.7 205.8 L 423.6 273.7 A 192.0 192.0 0 0 0 423.2 273.8 Z" fill="#f472b6" fill-opacity="0.55" stroke="#0a0d1e" stroke-width="1"/>
<text class="mono" x="383.2" y="185.6" text-anchor="middle" font-size="11" fill="#8a93c4" letter-spacing="1">SYSTEMS ENG &amp; SAFETY</text>
<text class="mono" x="383.2" y="200.6" text-anchor="middle" font-size="9.5" fill="#f472b6" letter-spacing="1">7P · 47S</text>
<path d="M 432.0 277.9 A 186.0 186.0 0 0 1 462.9 274.1 L 466.0 356.1 A 104.0 104.0 0 0 0 448.8 358.2 Z" fill="#fb923c" fill-opacity="0.9" stroke="#0a0d1e" stroke-width="1.5"/>
<path d="M 416.5 203.5 A 262.0 262.0 0 0 1 419.2 203.0 L 432.8 271.6 A 192.0 192.0 0 0 0 430.8 272.0 Z" fill="#fb923c" fill-opacity="0.55" stroke="#0a0d1e" stroke-width="1"/>
<path d="M 421.4 202.5 A 262.0 262.0 0 0 1 423.0 202.2 L 435.6 271.1 A 192.0 192.0 0 0 0 434.4 271.3 Z" fill="#fb923c" fill-opacity="0.32" stroke="#0a0d1e" stroke-width="1"/>
<path d="M 425.2 201.9 A 262.0 262.0 0 0 1 426.8 201.6 L 438.4 270.6 A 192.0 192.0 0 0 0 437.2 270.8 Z" fill="#fb923c" fill-opacity="0.55" stroke="#0a0d1e" stroke-width="1"/>
<path d="M 429.0 201.2 A 262.0 262.0 0 0 1 430.7 201.0 L 441.2 270.2 A 192.0 192.0 0 0 0 440.0 270.4 Z" fill="#fb923c" fill-opacity="0.32" stroke="#0a0d1e" stroke-width="1"/>
<path d="M 432.8 200.7 A 262.0 262.0 0 0 1 456.6 198.3 L 460.2 268.2 A 192.0 192.0 0 0 0 442.8 269.9 Z" fill="#fb923c" fill-opacity="0.55" stroke="#0a0d1e" stroke-width="1"/>
<path d="M 458.8 198.2 A 262.0 262.0 0 0 1 459.9 198.2 L 462.6 268.1 A 192.0 192.0 0 0 0 461.8 268.2 Z" fill="#fb923c" fill-opacity="0.32" stroke="#0a0d1e" stroke-width="1"/>
<text class="mono" x="435.4" y="174.1" text-anchor="middle" font-size="11" fill="#8a93c4" letter-spacing="1">VEHICLE DESIGN</text>
<text class="mono" x="435.4" y="189.1" text-anchor="middle" font-size="9.5" fill="#fb923c" letter-spacing="1">6P · 59S</text>
<text class="cond" x="470.0" y="452.0" text-anchor="middle" font-size="52" fill="#edf0fc" letter-spacing="1">2055</text>
<text class="mono" x="470.0" y="476.0" text-anchor="middle" font-size="10" fill="#8a93c4" letter-spacing="2">VERIFIED SKILLS</text>
<text class="mono" x="470.0" y="494.0" text-anchor="middle" font-size="9.5" fill="#8a93c4" letter-spacing="1">86 PACKS · 12 FAMILIES</text>
<text class="cond" x="52.0" y="64.0" text-anchor="start" font-size="34" fill="#edf0fc" letter-spacing="2">REPOSITORY STRUCTURE</text>
<text class="mono" x="52.0" y="90.0" text-anchor="start" font-size="10.5" fill="#8a93c4" letter-spacing="1">INNER RING: FAMILIES · OUTER RING: INSTALLABLE PACKS · ARC LENGTH = VERIFIED SKILLS</text>
<text class="mono" x="470.0" y="876.0" text-anchor="middle" font-size="10" fill="#8a93c4" letter-spacing="2">EVERY ARC COMPUTED FROM skills/ AT HEAD · FULL PER-PACK LISTS IN docs/DOMAINS.md</text>
<text class="mono" x="888.0" y="64.0" text-anchor="end" font-size="9.5" fill="#8a93c4" letter-spacing="1.5" opacity="0.9">AERO AGENT SKILLS · ASHFORDE OÜ</text>
</svg>
