<svg xmlns="http://www.w3.org/2000/svg" width="940" height="900" viewBox="0 0 940 900">
  <style>
    .mono { font-family: "JetBrains Mono", "IBM Plex Mono", "Menlo", monospace; }
    .cond { font-family: "Barlow Condensed", "DIN Condensed", "Arial Narrow", sans-serif; font-weight: 700; text-transform: uppercase; }
    .serif { font-family: "Instrument Serif", Georgia, serif; font-style: italic; }
  </style>
<rect width="940" height="900" fill="#0a0d1e"/>
<path d="M 470.0 274.0 A 186.0 186.0 0 0 1 489.3 275.0 L 480.8 356.6 A 104.0 104.0 0 0 0 470.0 356.0 Z" fill="#38bdf8" fill-opacity="0.9" stroke="#0a0d1e" stroke-width="1.5"/>
<path d="M 470.0 198.0 A 262.0 262.0 0 0 1 471.8 198.0 L 471.3 268.0 A 192.0 192.0 0 0 0 470.0 268.0 Z" fill="#38bdf8" fill-opacity="0.55" stroke="#0a0d1e" stroke-width="1"/>
<path d="M 472.6 198.0 A 262.0 262.0 0 0 1 474.3 198.0 L 473.2 268.0 A 192.0 192.0 0 0 0 471.9 268.0 Z" fill="#38bdf8" fill-opacity="0.32" stroke="#0a0d1e" stroke-width="1"/>
<path d="M 475.1 198.0 A 262.0 262.0 0 0 1 478.7 198.1 L 476.4 268.1 A 192.0 192.0 0 0 0 473.7 268.0 Z" fill="#38bdf8" fill-opacity="0.55" stroke="#0a0d1e" stroke-width="1"/>
<path d="M 479.4 198.2 A 262.0 262.0 0 0 1 482.0 198.3 L 478.8 268.2 A 192.0 192.0 0 0 0 476.9 268.1 Z" fill="#38bdf8" fill-opacity="0.32" stroke="#0a0d1e" stroke-width="1"/>
<path d="M 482.7 198.3 A 262.0 262.0 0 0 1 483.8 198.4 L 480.1 268.3 A 192.0 192.0 0 0 0 479.3 268.2 Z" fill="#38bdf8" fill-opacity="0.55" stroke="#0a0d1e" stroke-width="1"/>
<path d="M 484.5 198.4 A 262.0 262.0 0 0 1 484.9 198.4 L 480.9 268.3 A 192.0 192.0 0 0 0 480.7 268.3 Z" fill="#38bdf8" fill-opacity="0.32" stroke="#0a0d1e" stroke-width="1"/>
<path d="M 485.7 198.5 A 262.0 262.0 0 0 1 486.0 198.5 L 481.7 268.4 A 192.0 192.0 0 0 0 481.5 268.3 Z" fill="#38bdf8" fill-opacity="0.55" stroke="#0a0d1e" stroke-width="1"/>
<path d="M 486.8 198.5 A 262.0 262.0 0 0 1 493.9 199.1 L 487.5 268.8 A 192.0 192.0 0 0 0 482.3 268.4 Z" fill="#38bdf8" fill-opacity="0.32" stroke="#0a0d1e" stroke-width="1"/>
<path d="M 494.7 199.2 A 262.0 262.0 0 0 1 495.7 199.3 L 488.9 268.9 A 192.0 192.0 0 0 0 488.1 268.9 Z" fill="#38bdf8" fill-opacity="0.55" stroke="#0a0d1e" stroke-width="1"/>
<path d="M 496.5 199.3 A 262.0 262.0 0 0 1 497.2 199.4 L 489.9 269.0 A 192.0 192.0 0 0 0 489.4 269.0 Z" fill="#38bdf8" fill-opacity="0.32" stroke="#0a0d1e" stroke-width="1"/>
<text class="mono" x="484.8" y="172.4" text-anchor="middle" font-size="11" fill="#8a93c4" letter-spacing="1">AERODYNAMICS</text>
<text class="mono" x="484.8" y="187.4" text-anchor="middle" font-size="9.5" fill="#38bdf8" letter-spacing="1">10P · 57S</text>
<path d="M 496.4 275.9 A 186.0 186.0 0 0 1 513.4 279.1 L 494.3 358.9 A 104.0 104.0 0 0 0 484.8 357.1 Z" fill="#a78bfa" fill-opacity="0.9" stroke="#0a0d1e" stroke-width="1.5"/>
<path d="M 507.2 200.7 A 262.0 262.0 0 0 1 509.0 200.9 L 498.6 270.1 A 192.0 192.0 0 0 0 497.3 269.9 Z" fill="#a78bfa" fill-opacity="0.55" stroke="#0a0d1e" stroke-width="1"/>
<path d="M 509.7 201.0 A 262.0 262.0 0 0 1 511.9 201.4 L 500.7 270.5 A 192.0 192.0 0 0 0 499.1 270.2 Z" fill="#a78bfa" fill-opacity="0.32" stroke="#0a0d1e" stroke-width="1"/>
<path d="M 512.6 201.5 A 262.0 262.0 0 0 1 515.8 202.0 L 503.6 271.0 A 192.0 192.0 0 0 0 501.2 270.6 Z" fill="#a78bfa" fill-opacity="0.55" stroke="#0a0d1e" stroke-width="1"/>
<path d="M 516.5 202.2 A 262.0 262.0 0 0 1 518.0 202.4 L 505.1 271.2 A 192.0 192.0 0 0 0 504.1 271.1 Z" fill="#a78bfa" fill-opacity="0.32" stroke="#0a0d1e" stroke-width="1"/>
<path d="M 518.7 202.6 A 262.0 262.0 0 0 1 519.4 202.7 L 506.2 271.4 A 192.0 192.0 0 0 0 505.7 271.3 Z" fill="#a78bfa" fill-opacity="0.55" stroke="#0a0d1e" stroke-width="1"/>
<path d="M 520.2 202.8 A 262.0 262.0 0 0 1 524.0 203.6 L 509.6 272.1 A 192.0 192.0 0 0 0 506.8 271.6 Z" fill="#a78bfa" fill-opacity="0.32" stroke="#0a0d1e" stroke-width="1"/>
<path d="M 524.8 203.8 A 262.0 262.0 0 0 1 527.9 204.5 L 512.4 272.8 A 192.0 192.0 0 0 0 510.1 272.2 Z" fill="#a78bfa" fill-opacity="0.55" stroke="#0a0d1e" stroke-width="1"/>
<path d="M 528.7 204.7 A 262.0 262.0 0 0 1 529.4 204.8 L 513.5 273.0 A 192.0 192.0 0 0 0 513.0 272.9 Z" fill="#a78bfa" fill-opacity="0.32" stroke="#0a0d1e" stroke-width="1"/>
<path d="M 530.1 205.0 A 262.0 262.0 0 0 1 531.2 205.2 L 514.8 273.3 A 192.0 192.0 0 0 0 514.0 273.1 Z" fill="#a78bfa" fill-opacity="0.55" stroke="#0a0d1e" stroke-width="1"/>
<text class="mono" x="523.4" y="177.1" text-anchor="middle" font-size="11" fill="#8a93c4" letter-spacing="1">AVIONICS</text>
<text class="mono" x="523.4" y="192.1" text-anchor="middle" font-size="9.5" fill="#a78bfa" letter-spacing="1">9P · 51S</text>
<path d="M 520.3 280.9 A 186.0 186.0 0 0 1 538.3 287.0 L 508.2 363.3 A 104.0 104.0 0 0 0 498.1 359.9 Z" fill="#f472b6" fill-opacity="0.9" stroke="#0a0d1e" stroke-width="1.5"/>
<path d="M 540.9 207.8 A 262.0 262.0 0 0 1 541.2 207.9 L 522.2 275.2 A 192.0 192.0 0 0 0 521.9 275.2 Z" fill="#f472b6" fill-opacity="0.55" stroke="#0a0d1e" stroke-width="1"/>
<path d="M 542.3 208.2 A 262.0 262.0 0 0 1 543.0 208.4 L 523.5 275.6 A 192.0 192.0 0 0 0 523.0 275.5 Z" fill="#f472b6" fill-opacity="0.32" stroke="#0a0d1e" stroke-width="1"/>
<path d="M 544.1 208.7 A 262.0 262.0 0 0 1 544.4 208.8 L 524.5 275.9 A 192.0 192.0 0 0 0 524.3 275.8 Z" fill="#f472b6" fill-opacity="0.55" stroke="#0a0d1e" stroke-width="1"/>
<path d="M 545.5 209.1 A 262.0 262.0 0 0 1 558.4 213.4 L 534.8 279.3 A 192.0 192.0 0 0 0 525.3 276.1 Z" fill="#f472b6" fill-opacity="0.32" stroke="#0a0d1e" stroke-width="1"/>
<path d="M 559.5 213.8 A 262.0 262.0 0 0 1 560.5 214.1 L 536.3 279.8 A 192.0 192.0 0 0 0 535.6 279.5 Z" fill="#f472b6" fill-opacity="0.55" stroke="#0a0d1e" stroke-width="1"/>
<path d="M 561.5 214.5 A 262.0 262.0 0 0 1 563.2 215.1 L 538.3 280.6 A 192.0 192.0 0 0 0 537.1 280.1 Z" fill="#f472b6" fill-opacity="0.32" stroke="#0a0d1e" stroke-width="1"/>
<path d="M 564.3 215.5 A 262.0 262.0 0 0 1 566.3 216.3 L 540.5 281.4 A 192.0 192.0 0 0 0 539.1 280.9 Z" fill="#f472b6" fill-opacity="0.55" stroke="#0a0d1e" stroke-width="1"/>
<text class="mono" x="560.7" y="186.9" text-anchor="middle" font-size="11" fill="#8a93c4" letter-spacing="1">CROSS-CUTTING</text>
<text class="mono" x="560.7" y="201.9" text-anchor="middle" font-size="9.5" fill="#f472b6" letter-spacing="1">7P · 56S</text>
<path d="M 544.9 289.8 A 186.0 186.0 0 0 1 559.8 297.1 L 520.2 368.9 A 104.0 104.0 0 0 0 511.9 364.8 Z" fill="#fb923c" fill-opacity="0.9" stroke="#0a0d1e" stroke-width="1.5"/>
<path d="M 575.5 220.2 A 262.0 262.0 0 0 1 576.2 220.5 L 547.8 284.5 A 192.0 192.0 0 0 0 547.3 284.3 Z" fill="#fb923c" fill-opacity="0.55" stroke="#0a0d1e" stroke-width="1"/>
<path d="M 578.0 221.3 A 262.0 262.0 0 0 1 579.3 221.9 L 550.1 285.5 A 192.0 192.0 0 0 0 549.1 285.1 Z" fill="#fb923c" fill-opacity="0.32" stroke="#0a0d1e" stroke-width="1"/>
<path d="M 581.1 222.7 A 262.0 262.0 0 0 1 591.3 227.8 L 558.9 289.8 A 192.0 192.0 0 0 0 551.4 286.1 Z" fill="#fb923c" fill-opacity="0.55" stroke="#0a0d1e" stroke-width="1"/>
<path d="M 593.1 228.7 A 262.0 262.0 0 0 1 596.5 230.6 L 562.7 291.9 A 192.0 192.0 0 0 0 560.2 290.5 Z" fill="#fb923c" fill-opacity="0.32" stroke="#0a0d1e" stroke-width="1"/>
<text class="mono" x="595.9" y="201.4" text-anchor="start" font-size="11" fill="#8a93c4" letter-spacing="1">FLIGHT MECHANICS</text>
<text class="mono" x="595.9" y="216.4" text-anchor="start" font-size="9.5" fill="#fb923c" letter-spacing="1">4P · 49S</text>
<path d="M 566.0 300.7 A 186.0 186.0 0 0 1 579.9 309.9 L 531.4 376.1 A 104.0 104.0 0 0 0 523.7 370.9 Z" fill="#38bdf8" fill-opacity="0.9" stroke="#0a0d1e" stroke-width="1.5"/>
<path d="M 605.3 235.6 A 262.0 262.0 0 0 1 609.5 238.2 L 572.3 297.5 A 192.0 192.0 0 0 0 569.1 295.6 Z" fill="#38bdf8" fill-opacity="0.55" stroke="#0a0d1e" stroke-width="1"/>
<path d="M 610.5 238.9 A 262.0 262.0 0 0 1 611.7 239.6 L 573.9 298.5 A 192.0 192.0 0 0 0 573.0 298.0 Z" fill="#38bdf8" fill-opacity="0.32" stroke="#0a0d1e" stroke-width="1"/>
<path d="M 612.7 240.3 A 262.0 262.0 0 0 1 617.8 243.7 L 578.3 301.5 A 192.0 192.0 0 0 0 574.6 299.0 Z" fill="#38bdf8" fill-opacity="0.55" stroke="#0a0d1e" stroke-width="1"/>
<path d="M 618.8 244.3 A 262.0 262.0 0 0 1 621.4 246.2 L 581.0 303.3 A 192.0 192.0 0 0 0 579.0 302.0 Z" fill="#38bdf8" fill-opacity="0.32" stroke="#0a0d1e" stroke-width="1"/>
<path d="M 622.4 246.9 A 262.0 262.0 0 0 1 623.5 247.7 L 582.5 304.4 A 192.0 192.0 0 0 0 581.7 303.8 Z" fill="#38bdf8" fill-opacity="0.55" stroke="#0a0d1e" stroke-width="1"/>
<path d="M 624.5 248.4 A 262.0 262.0 0 0 1 624.8 248.6 L 583.4 305.1 A 192.0 192.0 0 0 0 583.2 304.9 Z" fill="#38bdf8" fill-opacity="0.32" stroke="#0a0d1e" stroke-width="1"/>
<text class="mono" x="627.3" y="219.6" text-anchor="start" font-size="11" fill="#8a93c4" letter-spacing="1">FLIGHT TEST &amp; OPS</text>
<text class="mono" x="627.3" y="234.6" text-anchor="start" font-size="9.5" fill="#38bdf8" letter-spacing="1">6P · 49S</text>
<path d="M 585.6 314.2 A 186.0 186.0 0 0 1 602.7 329.7 L 544.2 387.1 A 104.0 104.0 0 0 0 534.6 378.5 Z" fill="#a78bfa" fill-opacity="0.9" stroke="#0a0d1e" stroke-width="1.5"/>
<path d="M 632.8 254.7 A 262.0 262.0 0 0 1 638.6 259.5 L 593.6 313.0 A 192.0 192.0 0 0 0 589.3 309.5 Z" fill="#a78bfa" fill-opacity="0.55" stroke="#0a0d1e" stroke-width="1"/>
<path d="M 639.8 260.5 A 262.0 262.0 0 0 1 642.6 262.9 L 596.5 315.5 A 192.0 192.0 0 0 0 594.5 313.8 Z" fill="#a78bfa" fill-opacity="0.32" stroke="#0a0d1e" stroke-width="1"/>
<path d="M 643.8 263.9 A 262.0 262.0 0 0 1 646.7 266.6 L 599.5 318.2 A 192.0 192.0 0 0 0 597.4 316.3 Z" fill="#a78bfa" fill-opacity="0.55" stroke="#0a0d1e" stroke-width="1"/>
<path d="M 647.9 267.7 A 262.0 262.0 0 0 1 651.8 271.4 L 603.2 321.8 A 192.0 192.0 0 0 0 600.4 319.1 Z" fill="#a78bfa" fill-opacity="0.32" stroke="#0a0d1e" stroke-width="1"/>
<path d="M 653.0 272.5 A 262.0 262.0 0 0 1 654.8 274.3 L 605.4 323.9 A 192.0 192.0 0 0 0 604.1 322.6 Z" fill="#a78bfa" fill-opacity="0.55" stroke="#0a0d1e" stroke-width="1"/>
<path d="M 655.9 275.4 A 262.0 262.0 0 0 1 656.9 276.4 L 607.0 325.5 A 192.0 192.0 0 0 0 606.3 324.7 Z" fill="#a78bfa" fill-opacity="0.32" stroke="#0a0d1e" stroke-width="1"/>
<text class="mono" x="659.9" y="244.8" text-anchor="start" font-size="11" fill="#8a93c4" letter-spacing="1">GNC &amp; AUTONOMY</text>
<text class="mono" x="659.9" y="259.8" text-anchor="start" font-size="9.5" fill="#a78bfa" letter-spacing="1">6P · 68S</text>
<path d="M 607.6 334.9 A 186.0 186.0 0 0 1 618.0 347.4 L 552.8 397.0 A 104.0 104.0 0 0 0 546.9 390.0 Z" fill="#f472b6" fill-opacity="0.9" stroke="#0a0d1e" stroke-width="1.5"/>
<path d="M 663.8 283.7 A 262.0 262.0 0 0 1 664.3 284.3 L 612.4 331.2 A 192.0 192.0 0 0 0 612.1 330.8 Z" fill="#f472b6" fill-opacity="0.55" stroke="#0a0d1e" stroke-width="1"/>
<path d="M 664.9 284.9 A 262.0 262.0 0 0 1 670.1 290.8 L 616.6 336.0 A 192.0 192.0 0 0 0 612.8 331.7 Z" fill="#f472b6" fill-opacity="0.32" stroke="#0a0d1e" stroke-width="1"/>
<path d="M 670.6 291.5 A 262.0 262.0 0 0 1 671.5 292.6 L 617.7 337.3 A 192.0 192.0 0 0 0 617.0 336.5 Z" fill="#f472b6" fill-opacity="0.55" stroke="#0a0d1e" stroke-width="1"/>
<path d="M 672.0 293.2 A 262.0 262.0 0 0 1 672.3 293.5 L 618.2 338.0 A 192.0 192.0 0 0 0 618.1 337.8 Z" fill="#f472b6" fill-opacity="0.32" stroke="#0a0d1e" stroke-width="1"/>
<path d="M 672.8 294.1 A 262.0 262.0 0 0 1 673.5 294.9 L 619.1 339.0 A 192.0 192.0 0 0 0 618.6 338.4 Z" fill="#f472b6" fill-opacity="0.55" stroke="#0a0d1e" stroke-width="1"/>
<path d="M 674.0 295.6 A 262.0 262.0 0 0 1 674.2 295.9 L 619.6 339.7 A 192.0 192.0 0 0 0 619.5 339.5 Z" fill="#f472b6" fill-opacity="0.32" stroke="#0a0d1e" stroke-width="1"/>
<path d="M 674.7 296.5 A 262.0 262.0 0 0 1 677.6 300.2 L 622.1 342.9 A 192.0 192.0 0 0 0 620.0 340.2 Z" fill="#f472b6" fill-opacity="0.55" stroke="#0a0d1e" stroke-width="1"/>
<path d="M 678.1 300.8 A 262.0 262.0 0 0 1 678.5 301.4 L 622.8 343.8 A 192.0 192.0 0 0 0 622.5 343.3 Z" fill="#f472b6" fill-opacity="0.32" stroke="#0a0d1e" stroke-width="1"/>
<text class="mono" x="688.3" y="274.3" text-anchor="start" font-size="11" fill="#8a93c4" letter-spacing="1">MANUFACTURING QUALITY</text>
<text class="mono" x="688.3" y="289.3" text-anchor="start" font-size="9.5" fill="#f472b6" letter-spacing="1">8P · 48S</text>
<path d="M 622.3 353.2 A 186.0 186.0 0 0 1 632.0 368.7 L 560.6 408.9 A 104.0 104.0 0 0 0 555.1 400.3 Z" fill="#fb923c" fill-opacity="0.9" stroke="#0a0d1e" stroke-width="1.5"/>
<path d="M 684.5 309.5 A 262.0 262.0 0 0 1 685.7 311.3 L 628.1 351.0 A 192.0 192.0 0 0 0 627.2 349.7 Z" fill="#fb923c" fill-opacity="0.55" stroke="#0a0d1e" stroke-width="1"/>
<path d="M 686.1 311.8 A 262.0 262.0 0 0 1 686.3 312.1 L 628.5 351.6 A 192.0 192.0 0 0 0 628.3 351.4 Z" fill="#fb923c" fill-opacity="0.32" stroke="#0a0d1e" stroke-width="1"/>
<path d="M 686.6 312.6 A 262.0 262.0 0 0 1 687.4 313.8 L 629.3 352.9 A 192.0 192.0 0 0 0 628.8 352.0 Z" fill="#fb923c" fill-opacity="0.55" stroke="#0a0d1e" stroke-width="1"/>
<path d="M 687.8 314.4 A 262.0 262.0 0 0 1 688.0 314.7 L 629.7 353.5 A 192.0 192.0 0 0 0 629.6 353.3 Z" fill="#fb923c" fill-opacity="0.32" stroke="#0a0d1e" stroke-width="1"/>
<path d="M 688.3 315.2 A 262.0 262.0 0 0 1 690.3 318.2 L 631.4 356.1 A 192.0 192.0 0 0 0 630.0 353.9 Z" fill="#fb923c" fill-opacity="0.55" stroke="#0a0d1e" stroke-width="1"/>
<path d="M 690.7 318.7 A 262.0 262.0 0 0 1 691.0 319.3 L 632.0 356.9 A 192.0 192.0 0 0 0 631.7 356.5 Z" fill="#fb923c" fill-opacity="0.32" stroke="#0a0d1e" stroke-width="1"/>
<path d="M 691.4 319.9 A 262.0 262.0 0 0 1 692.0 320.8 L 632.7 358.0 A 192.0 192.0 0 0 0 632.2 357.3 Z" fill="#fb923c" fill-opacity="0.55" stroke="#0a0d1e" stroke-width="1"/>
<path d="M 692.3 321.4 A 262.0 262.0 0 0 1 695.7 326.9 L 635.4 362.4 A 192.0 192.0 0 0 0 632.9 358.4 Z" fill="#fb923c" fill-opacity="0.32" stroke="#0a0d1e" stroke-width="1"/>
<path d="M 696.0 327.4 A 262.0 262.0 0 0 1 696.9 329.0 L 636.3 364.0 A 192.0 192.0 0 0 0 635.6 362.8 Z" fill="#fb923c" fill-opacity="0.55" stroke="#0a0d1e" stroke-width="1"/>
<path d="M 697.2 329.5 A 262.0 262.0 0 0 1 697.6 330.2 L 636.8 364.9 A 192.0 192.0 0 0 0 636.5 364.4 Z" fill="#fb923c" fill-opacity="0.32" stroke="#0a0d1e" stroke-width="1"/>
<path d="M 697.9 330.7 A 262.0 262.0 0 0 1 698.2 331.3 L 637.3 365.7 A 192.0 192.0 0 0 0 637.0 365.3 Z" fill="#fb923c" fill-opacity="0.55" stroke="#0a0d1e" stroke-width="1"/>
<text class="mono" x="710.2" y="304.5" text-anchor="start" font-size="11" fill="#8a93c4" letter-spacing="1">PROPULSION</text>
<text class="mono" x="710.2" y="319.5" text-anchor="start" font-size="9.5" fill="#fb923c" letter-spacing="1">11P · 54S</text>
<path d="M 635.4 375.0 A 186.0 186.0 0 1 1 385.2 294.4 L 422.6 367.4 A 104.0 104.0 0 1 0 562.5 412.4 Z" fill="#38bdf8" fill-opacity="0.9" stroke="#0a0d1e" stroke-width="1.5"/>
<path d="M 703.0 340.2 A 262.0 262.0 0 0 1 706.0 346.1 L 642.9 376.6 A 192.0 192.0 0 0 0 640.8 372.2 Z" fill="#38bdf8" fill-opacity="0.55" stroke="#0a0d1e" stroke-width="1"/>
<path d="M 707.3 349.0 A 262.0 262.0 0 1 1 327.6 240.1 L 365.6 298.9 A 192.0 192.0 0 1 0 643.9 378.7 Z" fill="#38bdf8" fill-opacity="0.32" stroke="#0a0d1e" stroke-width="1"/>
<path d="M 330.3 238.4 A 262.0 262.0 0 0 1 333.1 236.6 L 369.7 296.3 A 192.0 192.0 0 0 0 367.6 297.6 Z" fill="#38bdf8" fill-opacity="0.55" stroke="#0a0d1e" stroke-width="1"/>
<path d="M 335.8 235.0 A 262.0 262.0 0 0 1 343.6 230.5 L 377.4 291.8 A 192.0 192.0 0 0 0 371.7 295.1 Z" fill="#38bdf8" fill-opacity="0.32" stroke="#0a0d1e" stroke-width="1"/>
<path d="M 346.4 229.0 A 262.0 262.0 0 0 1 350.6 226.8 L 382.5 289.1 A 192.0 192.0 0 0 0 379.4 290.7 Z" fill="#38bdf8" fill-opacity="0.55" stroke="#0a0d1e" stroke-width="1"/>
<text class="mono" x="383.0" y="740.3" text-anchor="middle" font-size="11" fill="#8a93c4" letter-spacing="1">SPACE SYSTEMS</text>
<text class="mono" x="383.0" y="755.3" text-anchor="middle" font-size="9.5" fill="#38bdf8" letter-spacing="1">5P · 2582S</text>
<path d="M 391.7 291.3 A 186.0 186.0 0 0 1 413.5 282.8 L 438.4 360.9 A 104.0 104.0 0 0 0 426.2 365.7 Z" fill="#a78bfa" fill-opacity="0.9" stroke="#0a0d1e" stroke-width="1.5"/>
<path d="M 359.7 222.4 A 262.0 262.0 0 0 1 364.9 220.0 L 393.0 284.1 A 192.0 192.0 0 0 0 389.1 285.9 Z" fill="#a78bfa" fill-opacity="0.55" stroke="#0a0d1e" stroke-width="1"/>
<path d="M 366.2 219.5 A 262.0 262.0 0 0 1 367.8 218.8 L 395.1 283.2 A 192.0 192.0 0 0 0 393.9 283.7 Z" fill="#a78bfa" fill-opacity="0.32" stroke="#0a0d1e" stroke-width="1"/>
<path d="M 369.1 218.2 A 262.0 262.0 0 0 1 371.4 217.3 L 397.7 282.1 A 192.0 192.0 0 0 0 396.0 282.8 Z" fill="#a78bfa" fill-opacity="0.55" stroke="#0a0d1e" stroke-width="1"/>
<path d="M 372.7 216.7 A 262.0 262.0 0 0 1 381.4 213.4 L 405.1 279.3 A 192.0 192.0 0 0 0 398.7 281.7 Z" fill="#a78bfa" fill-opacity="0.32" stroke="#0a0d1e" stroke-width="1"/>
<path d="M 382.7 213.0 A 262.0 262.0 0 0 1 384.4 212.4 L 407.3 278.5 A 192.0 192.0 0 0 0 406.0 279.0 Z" fill="#a78bfa" fill-opacity="0.55" stroke="#0a0d1e" stroke-width="1"/>
<path d="M 385.7 211.9 A 262.0 262.0 0 0 1 388.4 211.0 L 410.2 277.5 A 192.0 192.0 0 0 0 408.2 278.2 Z" fill="#a78bfa" fill-opacity="0.32" stroke="#0a0d1e" stroke-width="1"/>
<path d="M 389.7 210.6 A 262.0 262.0 0 0 1 390.4 210.4 L 411.7 277.1 A 192.0 192.0 0 0 0 411.2 277.2 Z" fill="#a78bfa" fill-opacity="0.55" stroke="#0a0d1e" stroke-width="1"/>
<text class="mono" x="366.8" y="191.4" text-anchor="end" font-size="11" fill="#8a93c4" letter-spacing="1">STRUCTURES</text>
<text class="mono" x="366.8" y="206.4" text-anchor="end" font-size="9.5" fill="#a78bfa" letter-spacing="1">7P · 69S</text>
<path d="M 420.3 280.8 A 186.0 186.0 0 0 1 435.9 277.2 L 450.9 357.8 A 104.0 104.0 0 0 0 442.2 359.8 Z" fill="#f472b6" fill-opacity="0.9" stroke="#0a0d1e" stroke-width="1.5"/>
<path d="M 400.0 207.5 A 262.0 262.0 0 0 1 402.8 206.8 L 420.8 274.4 A 192.0 192.0 0 0 0 418.7 275.0 Z" fill="#f472b6" fill-opacity="0.55" stroke="#0a0d1e" stroke-width="1"/>
<path d="M 403.7 206.5 A 262.0 262.0 0 0 1 411.4 204.6 L 427.0 272.9 A 192.0 192.0 0 0 0 421.4 274.2 Z" fill="#f472b6" fill-opacity="0.32" stroke="#0a0d1e" stroke-width="1"/>
<path d="M 412.3 204.4 A 262.0 262.0 0 0 1 413.7 204.1 L 428.7 272.5 A 192.0 192.0 0 0 0 427.7 272.7 Z" fill="#f472b6" fill-opacity="0.55" stroke="#0a0d1e" stroke-width="1"/>
<path d="M 414.6 203.9 A 262.0 262.0 0 0 1 416.4 203.6 L 430.7 272.1 A 192.0 192.0 0 0 0 429.4 272.3 Z" fill="#f472b6" fill-opacity="0.32" stroke="#0a0d1e" stroke-width="1"/>
<path d="M 417.3 203.4 A 262.0 262.0 0 0 1 419.4 202.9 L 432.9 271.6 A 192.0 192.0 0 0 0 431.4 271.9 Z" fill="#f472b6" fill-opacity="0.55" stroke="#0a0d1e" stroke-width="1"/>
<path d="M 420.3 202.8 A 262.0 262.0 0 0 1 420.7 202.7 L 433.8 271.4 A 192.0 192.0 0 0 0 433.6 271.5 Z" fill="#f472b6" fill-opacity="0.32" stroke="#0a0d1e" stroke-width="1"/>
<path d="M 421.6 202.5 A 262.0 262.0 0 0 1 421.9 202.4 L 434.8 271.3 A 192.0 192.0 0 0 0 434.5 271.3 Z" fill="#f472b6" fill-opacity="0.55" stroke="#0a0d1e" stroke-width="1"/>
<text class="mono" x="406.0" y="179.3" text-anchor="middle" font-size="11" fill="#8a93c4" letter-spacing="1">SYSTEMS ENG &amp; SAFETY</text>
<text class="mono" x="406.0" y="194.3" text-anchor="middle" font-size="9.5" fill="#f472b6" letter-spacing="1">7P · 47S</text>
<path d="M 442.9 276.0 A 186.0 186.0 0 0 1 462.9 274.1 L 466.0 356.1 A 104.0 104.0 0 0 0 454.9 357.1 Z" fill="#fb923c" fill-opacity="0.9" stroke="#0a0d1e" stroke-width="1.5"/>
<path d="M 431.9 200.8 A 262.0 262.0 0 0 1 433.6 200.5 L 443.3 269.9 A 192.0 192.0 0 0 0 442.0 270.0 Z" fill="#fb923c" fill-opacity="0.55" stroke="#0a0d1e" stroke-width="1"/>
<path d="M 435.0 200.3 A 262.0 262.0 0 0 1 436.1 200.2 L 445.2 269.6 A 192.0 192.0 0 0 0 444.4 269.7 Z" fill="#fb923c" fill-opacity="0.32" stroke="#0a0d1e" stroke-width="1"/>
<path d="M 437.5 200.0 A 262.0 262.0 0 0 1 438.6 199.9 L 447.0 269.4 A 192.0 192.0 0 0 0 446.2 269.5 Z" fill="#fb923c" fill-opacity="0.55" stroke="#0a0d1e" stroke-width="1"/>
<path d="M 440.0 199.7 A 262.0 262.0 0 0 1 441.0 199.6 L 448.8 269.2 A 192.0 192.0 0 0 0 448.0 269.3 Z" fill="#fb923c" fill-opacity="0.32" stroke="#0a0d1e" stroke-width="1"/>
<path d="M 442.4 199.5 A 262.0 262.0 0 0 1 457.8 198.3 L 461.1 268.2 A 192.0 192.0 0 0 0 449.8 269.1 Z" fill="#fb923c" fill-opacity="0.55" stroke="#0a0d1e" stroke-width="1"/>
<path d="M 459.2 198.2 A 262.0 262.0 0 0 1 459.9 198.2 L 462.6 268.1 A 192.0 192.0 0 0 0 462.1 268.2 Z" fill="#fb923c" fill-opacity="0.32" stroke="#0a0d1e" stroke-width="1"/>
<text class="mono" x="443.8" y="173.2" text-anchor="middle" font-size="11" fill="#8a93c4" letter-spacing="1">VEHICLE DESIGN</text>
<text class="mono" x="443.8" y="188.2" text-anchor="middle" font-size="9.5" fill="#fb923c" letter-spacing="1">6P · 59S</text>
<text class="cond" x="470.0" y="452.0" text-anchor="middle" font-size="52" fill="#edf0fc" letter-spacing="1">3189</text>
<text class="mono" x="470.0" y="476.0" text-anchor="middle" font-size="10" fill="#8a93c4" letter-spacing="2">VERIFIED SKILLS</text>
<text class="mono" x="470.0" y="494.0" text-anchor="middle" font-size="9.5" fill="#8a93c4" letter-spacing="1">86 PACKS · 12 FAMILIES</text>
<text class="cond" x="52.0" y="64.0" text-anchor="start" font-size="34" fill="#edf0fc" letter-spacing="2">REPOSITORY STRUCTURE</text>
<text class="mono" x="52.0" y="90.0" text-anchor="start" font-size="10.5" fill="#8a93c4" letter-spacing="1">INNER RING: FAMILIES · OUTER RING: INSTALLABLE PACKS · ARC LENGTH = VERIFIED SKILLS</text>
<text class="mono" x="470.0" y="876.0" text-anchor="middle" font-size="10" fill="#8a93c4" letter-spacing="2">EVERY ARC COMPUTED FROM skills/ AT HEAD · FULL PER-PACK LISTS IN docs/DOMAINS.md</text>
<text class="mono" x="888.0" y="64.0" text-anchor="end" font-size="9.5" fill="#8a93c4" letter-spacing="1.5" opacity="0.9">AERO AGENT SKILLS · ASHFORDE OÜ</text>
</svg>
